{
.appVersion = "983";
copyright = "Copyright 2017 The Barlow Project Authors (https://github.com/jpt/barlow)";
customParameters = (
{
name = "Use Typo Metrics";
value = 1;
},
{
name = licenseURL;
value = "http://scripts.sil.org/OFL";
},
{
name = license;
value = "This Font Software is licensed under the SIL Open Font License, Version 1.1. This license is available with a FAQ at: http://scripts.sil.org/OFL";
},
{
name = versionString;
value = "Development Version";
},
{
name = fsType;
value = (
);
},
{
name = vendorID;
value = TRBY;
}
);
date = "2017-01-19 02:17:38 +0000";
designer = "Jeremy Tribby";
designerURL = "https://tribby.com/";
familyName = Barlow;
fontMaster = (
{
alignmentZones = (
"{800, 16}",
"{700, 9}",
"{500, 9}",
"{0, -8}",
"{-200, -16}"
);
ascender = 800;
capHeight = 700;
customParameters = (
{
name = typoAscender;
value = 1000;
},
{
name = typoDescender;
value = -200;
},
{
name = winAscent;
value = 958;
},
{
name = winDescent;
value = 211;
},
{
name = hheaAscender;
value = 1000;
},
{
name = hheaDescender;
value = -200;
}
);
descender = -200;
horizontalStems = (
22,
22
);
id = "262880E7-CFE1-4BDA-902E-E24798F3240A";
userData = {
GSCornerRadius = 12;
GSOffsetHorizontal = 11;
GSOffsetMakeStroke = 1;
GSOffsetVertical = 10;
noodleExtremesAndInflections = 1;
noodleRemoveOverlap = 1;
noodleThickness = "22.0";
};
verticalStems = (
21,
21
);
visible = 1;
weight = Light;
weightValue = 23;
widthValue = 5;
xHeight = 500;
},
{
alignmentZones = (
"{800, 16}",
"{700, 9}",
"{520, 9}",
"{0, -13}",
"{-200, -8}"
);
ascender = 800;
capHeight = 700;
customParameters = (
{
name = typoAscender;
value = 1000;
},
{
name = typoDescender;
value = -200;
},
{
name = winAscent;
value = 958;
},
{
name = winDescent;
value = 211;
},
{
name = hheaAscender;
value = 1000;
},
{
name = hheaDescender;
value = -200;
}
);
descender = -200;
horizontalStems = (
188,
188
);
id = "FFFA8D72-12AC-4CE0-B2CA-57A29829F4DA";
userData = {
GSCornerRadius = 8;
GSOffsetHorizontal = 60;

glyphs = (
{
glyphname = A;
lastChange = "2017-03-31 04:55:45 +0000";
layers = (
{
anchors = (
{
name = top;
position = "{246, 700}";
}
);
hints = (
{
origin = "{0, 6}";
target = "{0, 0}";
},
{
origin = "{0, 2}";
target = "{0, 3}";
},
{
origin = "{0, 5}";
target = "{0, 4}";
},
{
horizontal = 1;
origin = "{1, 0}";
target = "{1, 1}";
}
);
layerId = "262880E7-CFE1-4BDA-902E-E24798F3240A";
paths = (
{
closed = 1;
nodes = (
"46 0 LINE",
"246 671 LINE",
"448 0 LINE",
"470 0 LINE",
"257 700 LINE",
"235 700 LINE",
"24 0 LINE"
);
},
{
closed = 1;
nodes = (
"413 155 LINE",
"413 176 LINE",
"84 176 LINE",
"84 155 LINE"
);
}
);
width = 494;
},
{
anchors = (
{
name = top;
position = "{260, 700}";
}
);
layerId = "4E2227F3-52E4-4048-A8EE-327B486EF0A4";
paths = (
{
closed = 1;
nodes = (
"194 0 LINE",
"264 458 LINE",
"321 0 LINE",
"513 0 LINE",
"365 700 LINE",
"155 700 LINE",
"6 0 LINE"
);
},
{
closed = 1;
nodes = (
"393 95 LINE",
"393 239 LINE",
"123 239 LINE",
"123 95 LINE"
);
}
);
width = 519;
},
{
anchors = (
{
name = top;
position = "{302, 700}";
}
);
layerId = "FFFA8D72-12AC-4CE0-B2CA-57A29829F4DA";
paths = (
{
closed = 1;
nodes = (
"197 0 LINE",
"304 488 LINE",
"411 0 LINE",
"599 0 LINE",
"409 700 LINE",
"199 700 LINE",
"9 0 LINE"
);
},
{
closed = 1;
nodes = (
"470 95 LINE",
"470 239 LINE",
"135 239 LINE",
"135 95 LINE"
);
}
);
width = 608;
},
{
anchors = (
{
name = top;
position = "{190, 700}";
}
);
layerId = "DCBE1F7B-116A-43E0-B7B4-8657BA77D8B5";
paths = (
{
closed = 1;
nodes = (
"43 0 LINE",
"190 662 LINE",
"338 0 LINE",
"360 0 LINE",
"201 700 LINE",
"178 700 LINE",
"21 0 LINE"
);
},
{
closed = 1;
nodes = (
"315 155 LINE",
"315 176 LINE",
"69 176 LINE",
"69 155 LINE"
);
}
);
width = 381;
}
);
leftKerningGroup = A;
rightKerningGroup = A;
unicode = 0041;
},
{
glyphname = B;
lastChange = "2017-03-31 04:55:45 +0000";
layers = (
{
hints = (
{
horizontal = 1;
origin = "{2, 0}";
target = "{0, 8}";
},
{
horizontal = 1;
origin = "{1, 7}";
target = "{0, 0}";
},
{
origin = "{1, 7}";
target = "{0, 0}";
},
{
origin = "{0, 4}";
target = "{1, 3}";
},
{
origin = "{2, 4}";
target = "{3, 3}";
},
{
horizontal = 1;
origin = "{3, 0}";
target = "{2, 7}";
}
);
layerId = "262880E7-CFE1-4BDA-902E-E24798F3240A";
paths = (
{
closed = 1;
nodes = (
"126 679 LINE",
"306 679 LINE SMOOTH",
"406 679 OFFCURVE",
"472 617 OFFCURVE",
"472 523 CURVE SMOOTH",
"472 433 OFFCURVE",
"406 373 OFFCURVE",
"306 373 CURVE SMOOTH",
"126 373 LINE"
);
},
{
closed = 1;
nodes = (
"307 352 LINE SMOOTH",
"419 352 OFFCURVE",
"494 420 OFFCURVE",
"494 523 CURVE SMOOTH",
"494 629 OFFCURVE",
"419 700 OFFCURVE",
"306 700 CURVE SMOOTH",
"104 700 LINE",
"104 352 LINE"
);
},
{
closed = 1;
nodes = (
"126 352 LINE",
"306 352 LINE SMOOTH",
"410 352 OFFCURVE",
"479 286 OFFCURVE",
"479 186 CURVE SMOOTH",
"479 88 OFFCURVE",
"412 22 OFFCURVE",
"312 22 CURVE SMOOTH",
"126 22 LINE"
);
},
{
closed = 1;
nodes = (
"312 0 LINE SMOOTH",
"426 0 OFFCURVE",
"501 74 OFFCURVE",
"501 186 CURVE SMOOTH",
"501 298 OFFCURVE",
"424 373 OFFCURVE",
"307 373 CURVE SMOOTH",
"104 373 LINE",
"104 0 LINE"
);
}
);
width = 573;
},
{
layerId = "4E2227F3-52E4-4048-A8EE-327B486EF0A4";
paths = (
{
closed = 1;
nodes = (
"214 539 LINE",
"225 539 LINE",
"255 539 OFFCURVE",
"270 520 OFFCURVE",
"270 483 CURVE SMOOTH",
"270 447 OFFCURVE",
"255 427 OFFCURVE",
"225 427 CURVE",
"214 427 LINE"
);
},
{
closed = 1;
nodes = (
"191 319 LINE SMOOTH",
"366 319 OFFCURVE",
"454 369 OFFCURVE",
"454 503 CURVE SMOOTH",
"454 640 OFFCURVE",
"361 700 OFFCURVE",
"222 700 CURVE",
"26 700 LINE",
"26 319 LINE"
);
},
{
closed = 1;
nodes = (
"214 293 LINE",
"238 293 LINE SMOOTH",
"263 293 OFFCURVE",
"280 266 OFFCURVE",
"280 225 CURVE SMOOTH",
"280 182 OFFCURVE",
"262 161 OFFCURVE",
"237 161 CURVE SMOOTH",
"214 161 LINE"
);
},
{
closed = 1;
nodes = (
"252 0 LINE SMOOTH",
"371 0 OFFCURVE",
"470 65 OFFCURVE",
"468 201 CURVE SMOOTH",
"465 368 OFFCURVE",
"320 418 OFFCURVE",
"189 418 CURVE",
"26 418 LINE",
"26 0 LINE"
);
}
);
width = 486;
},
{
layerId = "FFFA8D72-12AC-4CE0-B2CA-57A29829F4DA";
paths = (
{
closed = 1;
nodes = (
"227 539 LINE",
"287 539 LINE",
"332 539 OFFCURVE",
"360 516 OFFCURVE",
"360 484 CURVE SMOOTH",
"360 451 OFFCURVE",
"330 429 OFFCURVE",
"287 429 CURVE",
"227 429 LINE"
);
},
{
closed = 1;
nodes = (
"241 323 LINE SMOOTH",
"426 321 OFFCURVE",
"544 360 OFFCURVE",
"544 502 CURVE SMOOTH",
"544 650 OFFCURVE",
"450 700 OFFCURVE",
"287 700 CURVE",
"39 700 LINE",
"39 325 LINE"
);
},
{
closed = 1;
nodes = (
"227 276 LINE",
"297 276 LINE SMOOTH",
"336 276 OFFCURVE",
"367 253 OFFCURVE",
"367 220 CURVE SMOOTH",
"367 189 OFFCURVE",
"340 161 OFFCURVE",
"296 161 CURVE SMOOTH",
"227 161 LINE"
);
},
{
closed = 1;
nodes = (
"296 0 LINE SMOOTH",
"438 0 OFFCURVE",
"555 55 OFFCURVE",
"555 200 CURVE SMOOTH",
"555 376 OFFCURVE",
"377 403 OFFCURVE",
"239 403 CURVE",
"39 401 LINE",
"39 0 LINE"
);
}
);
width = 582;
},
{
layerId = "DCBE1F7B-116A-43E0-B7B4-8657BA77D8B5";
paths = (
{
closed = 1;
nodes = (
"113 679 LINE",
"227 679 LINE SMOOTH",
"316 679 OFFCURVE",
"369 621 OFFCURVE",
"369 523 CURVE SMOOTH",
"369 429 OFFCURVE",
"316 373 OFFCURVE",
"227 373 CURVE SMOOTH",
"113 373 LINE"
);
},
{
closed = 1;
nodes = (
"226 352 LINE SMOOTH",
"330 352 OFFCURVE",
"391 415 OFFCURVE",
"391 523 CURVE SMOOTH",
"391 635 OFFCURVE",
"330 700 OFFCURVE",
"227 700 CURVE SMOOTH",
"91 700 LINE",
"91 352 LINE"
);
},
{
closed = 1;
nodes = (
"113 352 LINE",
"227 352 LINE SMOOTH",
"317 352 OFFCURVE",
"370 291 OFFCURVE",
"370 186 CURVE SMOOTH",
"370 83 OFFCURVE",
"317 22 OFFCURVE",
"227 22 CURVE SMOOTH",
"113 22 LINE"
);
},
{
closed = 1;
nodes = (
"228 0 LINE SMOOTH",
"331 0 OFFCURVE",
"392 69 OFFCURVE",
"392 186 CURVE SMOOTH",
"392 304 OFFCURVE",
"331 373 OFFCURVE",
"226 373 CURVE SMOOTH",
"91 373 LINE",
"91 0 LINE"
);
}
);
width = 455;
}
);
leftKerningGroup = H;
rightKerningGroup = B;
unicode = 0042;
},
{
glyphname = C;
lastChange = "2017-03-31 04:55:45 +0000";
layers = (
{
anchors = (
{
name = top;
position = "{278, 708}";
}
);
hints = (
{
origin = "{0, 27}";
target = "{0, 12}";
},
{
origin = "{0, 5}";
target = "{0, 2}";
},
{
horizontal = 1;
origin = "{0, 31}";
target = "{0, 8}";
},
{
horizontal = 1;
origin = "{0, 24}";
target = "{0, 15}";
}
);
layerId = "262880E7-CFE1-4BDA-902E-E24798F3240A";
paths = (
{
closed = 1;
nodes = (
"396 -9 OFFCURVE",
"475 66 OFFCURVE",
"475 178 CURVE SMOOTH",
"475 187 LINE",
"453 188 LINE",
"453 176 LINE SMOOTH",
"453 78 OFFCURVE",
"383 12 OFFCURVE",
"278 12 CURVE SMOOTH",
"172 12 OFFCURVE",
"102 78 OFFCURVE",
"102 176 CURVE SMOOTH",
"102 524 LINE SMOOTH",
"102 622 OFFCURVE",
"172 687 OFFCURVE",
"278 687 CURVE SMOOTH",
"383 687 OFFCURVE",
"453 622 OFFCURVE",
"453 524 CURVE SMOOTH",
"453 511 LINE",
"475 512 LINE",
"475 523 LINE SMOOTH",
"475 634 OFFCURVE",
"396 708 OFFCURVE",
"278 708 CURVE SMOOTH",
"159 708 OFFCURVE",
"80 634 OFFCURVE",
"80 523 CURVE SMOOTH",
"80 178 LINE SMOOTH",
"80 66 OFFCURVE",
"159 -9 OFFCURVE",
"278 -9 CURVE SMOOTH"
);
}
);
width = 547;
},
{
anchors = (
{
name = top;
position = "{239, 708}";
}
);
layerId = "4E2227F3-52E4-4048-A8EE-327B486EF0A4";
paths = (
{
closed = 1;
nodes = (
"370 -8 OFFCURVE",
"458 75 OFFCURVE",
"458 205 CURVE SMOOTH",
"458 224 LINE",
"270 231 LINE",
"270 189 LINE SMOOTH",
"270 167 OFFCURVE",
"258 153 OFFCURVE",
"239 153 CURVE SMOOTH",
"220 153 OFFCURVE",
"208 167 OFFCURVE",
"208 189 CURVE SMOOTH",
"208 510 LINE SMOOTH",
"208 532 OFFCURVE",
"220 547 OFFCURVE",
"239 547 CURVE SMOOTH",
"258 547 OFFCURVE",
"270 532 OFFCURVE",
"270 510 CURVE SMOOTH",
"270 470 LINE",
"458 477 LINE",
"458 497 LINE SMOOTH",
"458 627 OFFCURVE",
"370 708 OFFCURVE",
"239 708 CURVE SMOOTH",
"107 708 OFFCURVE",
"20 627 OFFCURVE",
"20 497 CURVE SMOOTH",
"20 205 LINE SMOOTH",
"20 75 OFFCURVE",
"107 -8 OFFCURVE",
"239 -8 CURVE SMOOTH"
);
}
);
width = 476;
},
{
anchors = (
{
name = top;
position = "{286, 708}";
}
);
layerId = "FFFA8D72-12AC-4CE0-B2CA-57A29829F4DA";
paths = (
{
closed = 1;
nodes = (
"440 -8 OFFCURVE",
"542 79 OFFCURVE",
"542 215 CURVE SMOOTH",
"542 224 LINE",
"354 234 LINE",
"354 222 LINE SMOOTH",
"354 181 OFFCURVE",
"327 153 OFFCURVE",
"286 153 CURVE SMOOTH",
"245 153 OFFCURVE",
"218 181 OFFCURVE",
"218 222 CURVE SMOOTH",
"218 477 LINE SMOOTH",
"218 519 OFFCURVE",
"245 547 OFFCURVE",
"286 547 CURVE SMOOTH",
"327 547 OFFCURVE",
"354 519 OFFCURVE",
"354 477 CURVE SMOOTH",
"354 465 LINE",
"542 477 LINE",
"542 487 LINE SMOOTH",
"542 623 OFFCURVE",
"440 708 OFFCURVE",
"286 708 CURVE SMOOTH",
"132 708 OFFCURVE",
"30 617 OFFCURVE",
"30 472 CURVE SMOOTH",
"30 230 LINE SMOOTH",
"30 85 OFFCURVE",
"132 -8 OFFCURVE",
"286 -8 CURVE SMOOTH"
);
}
);
width = 569;
},
{
anchors = (
{
name = top;
position = "{219, 708}";
}
);
layerId = "DCBE1F7B-116A-43E0-B7B4-8657BA77D8B5";
paths = (
{
closed = 1;
nodes = (
"310 -8 OFFCURVE",
"370 54 OFFCURVE",
"370 148 CURVE SMOOTH",
"370 177 LINE",
"347 178 LINE",
"347 147 LINE SMOOTH",
"347 67 OFFCURVE",
"296 13 OFFCURVE",
"219 13 CURVE SMOOTH",
"143 13 OFFCURVE",
"92 67 OFFCURVE",
"92 147 CURVE SMOOTH",
"92 554 LINE SMOOTH",
"92 634 OFFCURVE",
"143 687 OFFCURVE",
"219 687 CURVE SMOOTH",
"296 687 OFFCURVE",
"347 634 OFFCURVE",
"347 554 CURVE SMOOTH",
"347 521 LINE",
"370 522 LINE",
"370 553 LINE SMOOTH",
"370 647 OFFCURVE",
"310 708 OFFCURVE",
"219 708 CURVE SMOOTH",
"130 708 OFFCURVE",
"70 647 OFFCURVE",
"70 553 CURVE SMOOTH",
"70 148 LINE SMOOTH",
"70 54 OFFCURVE",
"130 -8 OFFCURVE",
"219 -8 CURVE SMOOTH"
);
}
);
width = 433;
}
);
leftKerningGroup = O;
rightKerningGroup = O;
unicode = 0043;
},
{
glyphname = D;
lastChange = "2017-03-31 04:55:45 +0000";
layers = (
{
hints = (
{
horizontal = 1;
origin = "{0, 7}";
target = "{1, 1}";
},
{
origin = "{0, 8}";
target = "{1, 0}";
},
{
horizontal = 1;
origin = "{0, 9}";
target = "{1, 9}";
},
{
origin = "{1, 5}";
target = "{0, 3}";
}
);
layerId = "262880E7-CFE1-4BDA-902E-E24798F3240A";
paths = (
{
closed = 1;
nodes = (
"294 0 LINE SMOOTH",
"413 0 OFFCURVE",
"486 68 OFFCURVE",
"486 180 CURVE SMOOTH",
"486 520 LINE SMOOTH",
"486 632 OFFCURVE",
"413 700 OFFCURVE",
"294 700 CURVE SMOOTH",
"104 700 LINE",
"104 0 LINE"
);
},
{
closed = 1;
nodes = (
"126 679 LINE",
"296 679 LINE SMOOTH",
"400 679 OFFCURVE",
"464 619 OFFCURVE",
"464 520 CURVE SMOOTH",
"464 179 LINE SMOOTH",
"464 81 OFFCURVE",
"400 21 OFFCURVE",
"296 21 CURVE SMOOTH",
"126 21 LINE"
);
}
);
width = 574;
},
{
layerId = "4E2227F3-52E4-4048-A8EE-327B486EF0A4";
paths = (
{
closed = 1;
nodes = (
"238 0 LINE SMOOTH",
"372 0 OFFCURVE",
"461 80 OFFCURVE",
"461 200 CURVE SMOOTH",
"461 500 LINE SMOOTH",
"461 620 OFFCURVE",
"372 700 OFFCURVE",
"238 700 CURVE SMOOTH",
"26 700 LINE",
"26 0 LINE"
);
},
{
closed = 1;
nodes = (
"214 539 LINE",
"233 539 LINE SMOOTH",
"257 539 OFFCURVE",
"273 519 OFFCURVE",
"273 488 CURVE",
"273 213 LINE",
"271 183 OFFCURVE",
"255 163 OFFCURVE",
"234 162 CURVE SMOOTH",
"214 161 LINE"
);
}
);
width = 483;
},
{
layerId = "FFFA8D72-12AC-4CE0-B2CA-57A29829F4DA";
paths = (
{
closed = 1;
nodes = (
"281 0 LINE SMOOTH",
"450 0 OFFCURVE",
"545 74 OFFCURVE",
"545 205 CURVE SMOOTH",
"545 495 LINE SMOOTH",
"545 626 OFFCURVE",
"450 700 OFFCURVE",
"281 700 CURVE SMOOTH",
"39 700 LINE",
"39 0 LINE"
);
},
{
closed = 1;
nodes = (
"227 539 LINE",
"287 539 LINE SMOOTH",
"332 539 OFFCURVE",
"357 512 OFFCURVE",
"357 463 CURVE",
"357 237 LINE",
"355 189 OFFCURVE",
"330 161 OFFCURVE",
"288 161 CURVE SMOOTH",
"227 161 LINE"
);
}
);
width = 578;
},
{
layerId = "DCBE1F7B-116A-43E0-B7B4-8657BA77D8B5";
paths = (
{
closed = 1;
nodes = (
"235 0 LINE SMOOTH",
"325 0 OFFCURVE",
"381 68 OFFCURVE",
"381 180 CURVE SMOOTH",
"381 520 LINE SMOOTH",
"381 632 OFFCURVE",
"325 700 OFFCURVE",
"235 700 CURVE SMOOTH",
"91 700 LINE",
"91 0 LINE"
);
},
{
closed = 1;
nodes = (
"113 679 LINE",
"236 679 LINE SMOOTH",
"312 679 OFFCURVE",
"358 619 OFFCURVE",
"358 520 CURVE SMOOTH",
"358 179 LINE SMOOTH",
"358 81 OFFCURVE",
"311 21 OFFCURVE",
"236 21 CURVE SMOOTH",
"113 21 LINE"
);
}
);
width = 458;
}
);
leftKerningGroup = H;
rightKerningGroup = B;
unicode = 0044;
},
{
glyphname = E;
lastChange = "2017-03-31 04:55:45 +0000";
layers = (
{
anchors = (
{
name = top;
position = "{289, 710}";
}
);
hints = (
{
horizontal = 1;
origin = "{1, 0}";
target = "{1, 1}";
},
{
horizontal = 1;
origin = "{0, 0}";
target = "{0, 1}";
},
{
origin = "{0, 7}";
target = "{0, 2}";
},
{
horizontal = 1;
origin = "{0, 5}";
target = "{0, 4}";
}
);
layerId = "262880E7-CFE1-4BDA-902E-E24798F3240A";
paths = (
{
closed = 1;
nodes = (
"475 0 LINE",
"475 21 LINE",
"126 21 LINE",
"126 679 LINE",
"475 679 LINE",
"475 700 LINE",
"104 700 LINE",
"104 0 LINE"
);
},
{
closed = 1;
nodes = (
"366 340 LINE",
"366 361 LINE",
"115 361 LINE",
"115 340 LINE"
);
}
);
width = 523;
},
{
anchors = (
{
name = top;
position = "{226, 713}";
}
);
layerId = "4E2227F3-52E4-4048-A8EE-327B486EF0A4";
paths = (
{
closed = 1;
nodes = (
"426 0 LINE",
"426 161 LINE",
"214 161 LINE",
"214 539 LINE",
"426 539 LINE",
"426 700 LINE",
"26 700 LINE",
"26 0 LINE"
);
},
{
closed = 1;
nodes = (
"334 270 LINE",
"334 431 LINE",
"102 431 LINE",
"102 270 LINE"
);
}
);
width = 438;
},
{
anchors = (
{
name = top;
position = "{276, 713}";
}
);
layerId = "FFFA8D72-12AC-4CE0-B2CA-57A29829F4DA";
paths = (
{
closed = 1;
nodes = (
"509 0 LINE",
"509 161 LINE",
"227 161 LINE",
"227 539 LINE",
"509 539 LINE",
"509 700 LINE",
"39 700 LINE",
"39 0 LINE"
);
},
{
closed = 1;
nodes = (
"395 275 LINE",
"395 435 LINE",
"115 435 LINE",
"115 275 LINE"
);
}
);
width = 527;
},
{
anchors = (
{
name = top;
position = "{232, 710}";
}
);
layerId = "DCBE1F7B-116A-43E0-B7B4-8657BA77D8B5";
paths = (
{
closed = 1;
nodes = (
"373 0 LINE",
"373 21 LINE",
"113 21 LINE",
"113 679 LINE",
"373 679 LINE",
"373 700 LINE",
"91 700 LINE",
"91 0 LINE"
);
},
{
closed = 1;
nodes = (
"290 340 LINE",
"290 361 LINE",
"102 361 LINE",
"102 340 LINE"
);
}
);
width = 415;
}
);
leftKerningGroup = H;
unicode = 0045;
},
{
glyphname = F;
lastChange = "2017-03-31 04:55:45 +0000";
layers = (
{
hints = (
{
horizontal = 1;
origin = "{0, 3}";
target = "{0, 2}";
},
{
horizontal = 1;
origin = "{1, 0}";
target = "{1, 1}";
},
{
origin = "{0, 5}";
target = "{0, 0}";
}
);
layerId = "262880E7-CFE1-4BDA-902E-E24798F3240A";
paths = (
{
closed = 1;
nodes = (
"126 0 LINE",
"126 679 LINE",
"474 679 LINE",
"474 700 LINE",
"104 700 LINE",
"104 0 LINE"
);
},
{
closed = 1;
nodes = (
"365 340 LINE",
"365 361 LINE",
"115 361 LINE",
"115 340 LINE"
);
}
);
width = 498;
},
{
layerId = "4E2227F3-52E4-4048-A8EE-327B486EF0A4";
paths = (
{
closed = 1;
nodes = (
"214 0 LINE",
"214 539 LINE",
"426 539 LINE",
"426 700 LINE",
"26 700 LINE",
"26 0 LINE"
);
},
{
closed = 1;
nodes = (
"334 270 LINE",
"334 431 LINE",
"102 431 LINE",
"102 270 LINE"
);
}
);
width = 432;
},
{
layerId = "FFFA8D72-12AC-4CE0-B2CA-57A29829F4DA";
paths = (
{
closed = 1;
nodes = (
"227 0 LINE",
"227 539 LINE",
"508 539 LINE",
"508 700 LINE",
"39 700 LINE",
"39 0 LINE"
);
},
{
closed = 1;
nodes = (
"395 275 LINE",
"395 435 LINE",
"115 435 LINE",
"115 275 LINE"
);
}
);
width = 517;
},
{
layerId = "DCBE1F7B-116A-43E0-B7B4-8657BA77D8B5";
paths = (
{
closed = 1;
nodes = (
"113 0 LINE",
"113 679 LINE",
"371 679 LINE",
"371 700 LINE",
"91 700 LINE",
"91 0 LINE"
);
},
{
closed = 1;
nodes = (
"289 340 LINE",
"289 361 LINE",
"102 361 LINE",
"102 340 LINE"
);
}
);
width = 392;
}
);
leftKerningGroup = H;
rightKerningGroup = F;
unicode = 0046;
},
{
glyphname = G;
lastChange = "2017-03-31 04:55:45 +0000";
layers = (
{
hints = (
{
origin = "{0, 29}";
target = "{0, 14}";
},
{
horizontal = 1;
origin = "{0, 26}";
target = "{0, 17}";
},
{
origin = "{0, 21}";
target = "{0, 22}";
},
{
horizontal = 1;
origin = "{0, 5}";
target = "{0, 4}";
},
{
horizontal = 1;
origin = "{0, 33}";
target = "{0, 10}";
}
);
layerId = "262880E7-CFE1-4BDA-902E-E24798F3240A";
paths = (
{
closed = 1;
nodes = (
"396 -8 OFFCURVE",
"474 64 OFFCURVE",
"474 174 CURVE SMOOTH",
"474 337 LINE",
"287 337 LINE",
"287 316 LINE",
"452 316 LINE",
"452 173 LINE SMOOTH",
"452 77 OFFCURVE",
"383 13 OFFCURVE",
"278 13 CURVE SMOOTH",
"172 13 OFFCURVE",
"102 77 OFFCURVE",
"102 173 CURVE SMOOTH",
"102 527 LINE SMOOTH",
"102 623 OFFCURVE",
"172 687 OFFCURVE",
"278 687 CURVE SMOOTH",
"383 687 OFFCURVE",
"452 623 OFFCURVE",
"452 527 CURVE SMOOTH",
"452 500 LINE",
"474 500 LINE",
"474 526 LINE SMOOTH",
"474 636 OFFCURVE",
"396 708 OFFCURVE",
"278 708 CURVE SMOOTH",
"159 708 OFFCURVE",
"80 636 OFFCURVE",
"80 526 CURVE SMOOTH",
"80 174 LINE SMOOTH",
"80 64 OFFCURVE",
"159 -8 OFFCURVE",
"278 -8 CURVE SMOOTH"
);
}
);
width = 546;
},
{
layerId = "4E2227F3-52E4-4048-A8EE-327B486EF0A4";
paths = (
{
closed = 1;
nodes = (
"370 -8 OFFCURVE",
"458 72 OFFCURVE",
"458 196 CURVE SMOOTH",
"458 395 LINE",
"241 395 LINE",
"241 250 LINE",
"270 250 LINE",
"270 195 LINE SMOOTH",
"270 170 OFFCURVE",
"258 153 OFFCURVE",
"239 153 CURVE SMOOTH",
"220 153 OFFCURVE",
"208 170 OFFCURVE",
"208 195 CURVE SMOOTH",
"208 505 LINE SMOOTH",
"208 530 OFFCURVE",
"220 547 OFFCURVE",
"239 547 CURVE SMOOTH",
"258 547 OFFCURVE",
"270 530 OFFCURVE",
"270 505 CURVE SMOOTH",
"270 455 LINE",
"458 455 LINE",
"458 503 LINE SMOOTH",
"458 628 OFFCURVE",
"370 708 OFFCURVE",
"239 708 CURVE SMOOTH",
"107 708 OFFCURVE",
"20 629 OFFCURVE",
"20 505 CURVE SMOOTH",
"20 196 LINE SMOOTH",
"20 72 OFFCURVE",
"107 -8 OFFCURVE",
"239 -8 CURVE SMOOTH"
);
}
);
width = 476;
},
{
layerId = "FFFA8D72-12AC-4CE0-B2CA-57A29829F4DA";
paths = (
{
closed = 1;
nodes = (
"439 -8 OFFCURVE",
"541 88 OFFCURVE",
"541 236 CURVE SMOOTH",
"541 391 LINE",
"290 391 LINE",
"290 246 LINE",
"354 246 LINE",
"354 230 LINE SMOOTH",
"354 184 OFFCURVE",
"327 153 OFFCURVE",
"286 153 CURVE SMOOTH",
"245 153 OFFCURVE",
"218 184 OFFCURVE",
"218 230 CURVE SMOOTH",
"218 470 LINE SMOOTH",
"218 516 OFFCURVE",
"245 547 OFFCURVE",
"286 547 CURVE SMOOTH",
"327 547 OFFCURVE",
"354 516 OFFCURVE",
"354 470 CURVE SMOOTH",
"354 447 LINE",
"541 447 LINE",
"541 463 LINE SMOOTH",
"541 612 OFFCURVE",
"439 708 OFFCURVE",
"286 708 CURVE SMOOTH",
"132 708 OFFCURVE",
"30 613 OFFCURVE",
"30 465 CURVE SMOOTH",
"30 236 LINE SMOOTH",
"30 88 OFFCURVE",
"132 -8 OFFCURVE",
"286 -8 CURVE SMOOTH"
);
}
);
width = 568;
},
{
layerId = "DCBE1F7B-116A-43E0-B7B4-8657BA77D8B5";
paths = (
{
closed = 1;
nodes = (
"309 -8 OFFCURVE",
"369 52 OFFCURVE",
"369 144 CURVE SMOOTH",
"369 332 LINE",
"226 332 LINE",
"226 311 LINE",
"347 311 LINE",
"347 143 LINE SMOOTH",
"347 65 OFFCURVE",
"296 13 OFFCURVE",
"219 13 CURVE SMOOTH",
"143 13 OFFCURVE",
"92 65 OFFCURVE",
"92 143 CURVE SMOOTH",
"92 557 LINE SMOOTH",
"92 635 OFFCURVE",
"143 687 OFFCURVE",
"219 687 CURVE SMOOTH",
"296 687 OFFCURVE",
"347 635 OFFCURVE",
"347 557 CURVE SMOOTH",
"347 500 LINE",
"369 500 LINE",
"369 556 LINE SMOOTH",
"369 648 OFFCURVE",
"309 708 OFFCURVE",
"219 708 CURVE SMOOTH",
"130 708 OFFCURVE",
"70 648 OFFCURVE",
"70 556 CURVE SMOOTH",
"70 144 LINE SMOOTH",
"70 52 OFFCURVE",
"130 -8 OFFCURVE",
"219 -8 CURVE SMOOTH"
);
}
);
width = 432;
}
);
leftKerningGroup = O;
rightKerningGroup = G;
unicode = 0047;
},
{
glyphname = H;
lastChange = "2017-03-31 04:55:45 +0000";
layers = (
{
hints = (
{
origin = "{1, 2}";
target = "{1, 1}";
},
{
origin = "{0, 2}";
target = "{0, 1}";
},
{
horizontal = 1;
origin = "{2, 0}";
target = "{2, 1}";
}
);
layerId = "262880E7-CFE1-4BDA-902E-E24798F3240A";
paths = (
{
closed = 1;
nodes = (
"476 0 LINE",
"476 700 LINE",
"454 700 LINE",
"454 0 LINE"
);
},
{
closed = 1;
nodes = (
"126 0 LINE",
"126 700 LINE",
"104 700 LINE",
"104 0 LINE"
);
},
{
closed = 1;
nodes = (
"459 340 LINE",
"459 361 LINE",
"121 361 LINE",
"121 340 LINE"
);
}
);
width = 580;
},
{
layerId = "4E2227F3-52E4-4048-A8EE-327B486EF0A4";
paths = (
{
closed = 1;
nodes = (
"459 0 LINE",
"459 700 LINE",
"271 700 LINE",
"271 0 LINE"
);
},
{
closed = 1;
nodes = (
"214 0 LINE",
"214 700 LINE",
"26 700 LINE",
"26 0 LINE"
);
},
{
closed = 1;
nodes = (
"361 270 LINE",
"361 431 LINE",
"126 431 LINE",
"126 270 LINE"
);
}
);
width = 485;
},
{
layerId = "FFFA8D72-12AC-4CE0-B2CA-57A29829F4DA";
paths = (
{
closed = 1;
nodes = (
"541 0 LINE",
"541 700 LINE",
"353 700 LINE",
"353 0 LINE"
);
},
{
closed = 1;
nodes = (
"227 0 LINE",
"227 700 LINE",
"39 700 LINE",
"39 0 LINE"
);
},
{
closed = 1;
nodes = (
"442 274 LINE",
"442 435 LINE",
"140 435 LINE",
"140 274 LINE"
);
}
);
width = 580;
},
{
layerId = "DCBE1F7B-116A-43E0-B7B4-8657BA77D8B5";
paths = (
{
closed = 1;
nodes = (
"374 0 LINE",
"374 700 LINE",
"352 700 LINE",
"352 0 LINE"
);
},
{
closed = 1;
nodes = (
"113 0 LINE",
"113 700 LINE",
"91 700 LINE",
"91 0 LINE"
);
},
{
closed = 1;
nodes = (
"359 340 LINE",
"359 361 LINE",
"107 361 LINE",
"107 340 LINE"
);
}
);
width = 465;
}
);
unicode = 0048;
},
{
glyphname = I;
lastChange = "2017-03-31 04:55:45 +0000";
layers = (
{
anchors = (
{
name = top;
position = "{115, 710}";
}
);
hints = (
{
origin = "{0, 2}";
target = "{0, 1}";
}
);
layerId = "262880E7-CFE1-4BDA-902E-E24798F3240A";
paths = (
{
closed = 1;
nodes = (
"126 0 LINE",
"126 700 LINE",
"104 700 LINE",
"104 0 LINE"
);
}
);
width = 230;
},
{
anchors = (
{
name = top;
position = "{120, 713}";
}
);
layerId = "4E2227F3-52E4-4048-A8EE-327B486EF0A4";
paths = (
{
closed = 1;
nodes = (
"214 0 LINE",
"214 700 LINE",
"26 700 LINE",
"26 0 LINE"
);
}
);
width = 240;
},
{
anchors = (
{
name = top;
position = "{133, 713}";
}
);
layerId = "FFFA8D72-12AC-4CE0-B2CA-57A29829F4DA";
paths = (
{
closed = 1;
nodes = (
"227 0 LINE",
"227 700 LINE",
"39 700 LINE",
"39 0 LINE"
);
}
);
width = 266;
},
{
anchors = (
{
name = top;
position = "{102, 710}";
}
);
layerId = "DCBE1F7B-116A-43E0-B7B4-8657BA77D8B5";
paths = (
{
closed = 1;
nodes = (
"113 0 LINE",
"113 700 LINE",
"91 700 LINE",
"91 0 LINE"
);
}
);
width = 204;
}
);
unicode = 0049;
},
{
glyphname = J;
lastChange = "2017-03-31 04:55:45 +0000";
layers = (
{
hints = (
{
origin = "{0, 5}";
target = "{0, 2}";
},
{
horizontal = 1;
origin = "{0, 17}";
target = "{0, 8}";
},
{
origin = "{0, 13}";
target = "{0, 12}";
}
);
layerId = "262880E7-CFE1-4BDA-902E-E24798F3240A";
paths = (
{
closed = 1;
nodes = (
"336 -8 OFFCURVE",
"412 62 OFFCURVE",
"412 168 CURVE SMOOTH",
"412 700 LINE",
"390 700 LINE",
"390 167 LINE SMOOTH",
"390 75 OFFCURVE",
"322 13 OFFCURVE",
"222 13 CURVE SMOOTH",
"121 13 OFFCURVE",
"54 75 OFFCURVE",
"54 167 CURVE SMOOTH",
"54 251 LINE",
"32 251 LINE",
"32 168 LINE SMOOTH",
"32 62 OFFCURVE",
"107 -8 OFFCURVE",
"222 -8 CURVE SMOOTH"
);
}
);
width = 516;
},
{
layerId = "4E2227F3-52E4-4048-A8EE-327B486EF0A4";
paths = (
{
closed = 1;
nodes = (
"356 -8 OFFCURVE",
"444 72 OFFCURVE",
"444 192 CURVE SMOOTH",
"444 700 LINE",
"256 700 LINE",
"256 190 LINE SMOOTH",
"256 168 OFFCURVE",
"243 153 OFFCURVE",
"225 153 CURVE SMOOTH",
"208 153 OFFCURVE",
"196 168 OFFCURVE",
"196 190 CURVE SMOOTH",
"196 265 LINE",
"8 265 LINE",
"8 192 LINE SMOOTH",
"8 72 OFFCURVE",
"95 -8 OFFCURVE",
"225 -8 CURVE SMOOTH"
);
}
);
width = 470;
},
{
layerId = "FFFA8D72-12AC-4CE0-B2CA-57A29829F4DA";
paths = (
{
closed = 1;
nodes = (
"416 -8 OFFCURVE",
"518 80 OFFCURVE",
"518 212 CURVE SMOOTH",
"518 700 LINE",
"331 700 LINE",
"331 213 LINE SMOOTH",
"331 177 OFFCURVE",
"304 153 OFFCURVE",
"264 153 CURVE SMOOTH",
"226 153 OFFCURVE",
"200 177 OFFCURVE",
"200 213 CURVE SMOOTH",
"200 280 LINE",
"12 280 LINE",
"12 212 LINE SMOOTH",
"12 80 OFFCURVE",
"113 -8 OFFCURVE",
"264 -8 CURVE SMOOTH"
);
}
);
width = 557;
},
{
layerId = "DCBE1F7B-116A-43E0-B7B4-8657BA77D8B5";
paths = (
{
closed = 1;
nodes = (
"258 -8 OFFCURVE",
"316 54 OFFCURVE",
"316 148 CURVE SMOOTH",
"316 700 LINE",
"294 700 LINE",
"294 147 LINE SMOOTH",
"294 67 OFFCURVE",
"245 13 OFFCURVE",
"172 13 CURVE SMOOTH",
"99 13 OFFCURVE",
"50 67 OFFCURVE",
"50 147 CURVE SMOOTH",
"50 251 LINE",
"28 251 LINE",
"28 148 LINE SMOOTH",
"28 54 OFFCURVE",
"86 -8 OFFCURVE",
"172 -8 CURVE SMOOTH"
);
}
);
width = 407;
}
);
leftKerningGroup = J;
rightKerningGroup = U;
unicode = 004A;
},
{
glyphname = K;
lastChange = "2017-03-31 04:55:45 +0000";
layers = (
{
hints = (
{
origin = "{0, 7}";
target = "{0, 6}";
},
{
origin = "{0, 3}";
target = "{0, 4}";
},
{
origin = "{0, 11}";
target = "{0, 0}";
}
);
layerId = "262880E7-CFE1-4BDA-902E-E24798F3240A";
paths = (
{
closed = 1;
nodes = (
"126 0 LINE",
"126 275 LINE",
"248 408 LINE",
"502 0 LINE",
"530 0 LINE",
"263 427 LINE",
"506 700 LINE",
"478 700 LINE",
"126 306 LINE",
"126 700 LINE",
"104 700 LINE",
"104 0 LINE"
);
}
);
width = 554;
},
{
layerId = "4E2227F3-52E4-4048-A8EE-327B486EF0A4";
paths = (
{
closed = 1;
nodes = (
"214 0 LINE",
"214 163 LINE",
"237 224 LINE",
"313 0 LINE",
"511 0 LINE",
"368 402 LINE",
"508 700 LINE",
"310 700 LINE",
"214 470 LINE",
"214 700 LINE",
"26 700 LINE",
"26 0 LINE"
);
}
);
width = 517;
},
{
layerId = "FFFA8D72-12AC-4CE0-B2CA-57A29829F4DA";
paths = (
{
closed = 1;
nodes = (
"227 0 LINE",
"227 191 LINE",
"275 264 LINE",
"400 0 LINE",
"601 0 LINE",
"406 392 LINE",
"595 700 LINE",
"396 700 LINE",
"227 444 LINE",
"227 700 LINE",
"39 700 LINE",
"39 0 LINE"
);
}
);
width = 610;
},
{
layerId = "DCBE1F7B-116A-43E0-B7B4-8657BA77D8B5";
paths = (
{
closed = 1;
nodes = (
"113 0 LINE",
"113 274 LINE",
"201 406 LINE",
"377 0 LINE",
"404 0 LINE",
"217 427 LINE",
"387 700 LINE",
"359 700 LINE",
"113 308 LINE",
"113 700 LINE",
"91 700 LINE",
"91 0 LINE"
);
}
);
width = 425;
}
);
rightKerningGroup = K;
unicode = 004B;
},
{
glyphname = L;
lastChange = "2017-03-31 04:55:45 +0000";
layers = (
{
hints = (
{
horizontal = 1;
origin = "{0, 0}";
target = "{0, 1}";
},
{
origin = "{0, 4}";
target = "{0, 3}";
}
);
layerId = "262880E7-CFE1-4BDA-902E-E24798F3240A";
paths = (
{
closed = 1;
nodes = (
"469 0 LINE",
"469 21 LINE",
"126 21 LINE",
"126 700 LINE",
"104 700 LINE",
"104 0 LINE"
);
}
);
width = 477;
},
{
layerId = "4E2227F3-52E4-4048-A8EE-327B486EF0A4";
paths = (
{
closed = 1;
nodes = (
"435 0 LINE",
"435 161 LINE",
"214 161 LINE",
"214 700 LINE",
"26 700 LINE",
"26 0 LINE"
);
}
);
width = 437;
},
{
layerId = "FFFA8D72-12AC-4CE0-B2CA-57A29829F4DA";
paths = (
{
closed = 1;
nodes = (
"516 0 LINE",
"516 161 LINE",
"227 161 LINE",
"227 700 LINE",
"39 700 LINE",
"39 0 LINE"
);
}
);
width = 519;
},
{
layerId = "DCBE1F7B-116A-43E0-B7B4-8657BA77D8B5";
paths = (
{
closed = 1;
nodes = (
"368 0 LINE",
"368 21 LINE",
"113 21 LINE",
"113 700 LINE",
"91 700 LINE",
"91 0 LINE"
);
}
);
width = 375;
}
);
rightKerningGroup = L;
unicode = 004C;
},
{
color = 3;
glyphname = M;
lastChange = "2017-03-31 04:55:45 +0000";
layers = (
{
hints = (
{
origin = "{0, 2}";
target = "{0, 3}";
},
{
origin = "{0, 11}";
target = "{0, 10}";
},
{
origin = "{0, 8}";
target = "{0, 7}";
}
);
layerId = "262880E7-CFE1-4BDA-902E-E24798F3240A";
paths = (
{
closed = 1;
nodes = (
"126 0 LINE",
"126 654 LINE",
"307 329 LINE",
"325 329 LINE",
"504 654 LINE",
"504 0 LINE",
"526 0 LINE",
"526 700 LINE",
"504 700 LINE",
"314 358 LINE",
"126 700 LINE",
"104 700 LINE",
"104 0 LINE"
);
}
);
width = 630;
},
{
layerId = "4E2227F3-52E4-4048-A8EE-327B486EF0A4";
paths = (
{
closed = 1;
nodes = (
"214 0 LINE",
"214 439 LINE",
"273 310 LINE",
"274 310 LINE",
"334 436 LINE",
"334 0 LINE",
"522 0 LINE",
"522 700 LINE",
"339 700 LINE",
"274 560 LINE",
"209 700 LINE",
"26 700 LINE",
"26 0 LINE"
);
}
);
width = 548;
},
{
associatedMasterId = "4E2227F3-52E4-4048-A8EE-327B486EF0A4";
layerId = "C618EEF0-F381-433B-B25F-2EDAE517ED4C";
name = "{100,3}";
paths = (
{
closed = 1;
nodes = (
"161 0 LINE",
"161 490 LINE",
"258 280 LINE",
"267 280 LINE",
"364 488 LINE",
"364 0 LINE",
"463 0 LINE",
"463 700 LINE",
"366 700 LINE",
"262 452 LINE",
"158 700 LINE",
"61 700 LINE",
"61 0 LINE"
);
}
);
width = 523;
},
{
layerId = "FFFA8D72-12AC-4CE0-B2CA-57A29829F4DA";
paths = (
{
closed = 1;
nodes = (
"227 0 LINE",
"227 414 LINE",
"297 292 LINE",
"377 292 LINE",
"447 414 LINE",
"447 0 LINE",
"635 0 LINE",
"635 700 LINE",
"452 700 LINE",
"337 512 LINE",
"222 700 LINE",
"39 700 LINE",
"39 0 LINE"
);
}
);
width = 674;
},
{
layerId = "DCBE1F7B-116A-43E0-B7B4-8657BA77D8B5";
paths = (
{
closed = 1;
nodes = (
"113 0 LINE",
"113 651 LINE",
"243 330 LINE",
"261 330 LINE",
"389 651 LINE",
"389 0 LINE",
"411 0 LINE",
"411 700 LINE",
"389 700 LINE",
"250 358 LINE",
"113 700 LINE",
"91 700 LINE",
"91 0 LINE"
);
}
);
width = 502;
},
{
associatedMasterId = "4E2227F3-52E4-4048-A8EE-327B486EF0A4";
hints = (
{
origin = "{0, 2}";
target = "{0, 3}";
},
{
origin = "{0, 11}";
target = "{0, 10}";
},
{
origin = "{0, 8}";
target = "{0, 7}";
}
);
layerId = "B75973C7-2F91-404C-BACF-1A0B6CD40DCC";
name = "{100,5}";
paths = (
{
closed = 1;
nodes = (
"173 0 LINE",
"173 522 LINE",
"302 292 LINE",
"349 292 LINE",
"477 522 LINE",
"477 0 LINE",
"577 0 LINE",
"577 700 LINE",
"480 700 LINE",
"325 430 LINE",
"171 700 LINE",
"74 700 LINE",
"74 0 LINE"
);
}
);
width = 651;
},
{
associatedMasterId = "4E2227F3-52E4-4048-A8EE-327B486EF0A4";
hints = (
{
origin = "{0, 2}";
target = "{0, 3}";
},
{
origin = "{0, 11}";
target = "{0, 10}";
},
{
origin = "{0, 8}";
target = "{0, 7}";
},
{
origin = "{0, 5}";
target = "{0, 6}";
},
{
origin = "{0, 12}";
target = "{0, 0}";
}
);
layerId = "2CAFF881-D152-4119-AE13-D526D04837FD";
name = "{140,4}";
paths = (
{
closed = 1;
nodes = (
"192 0 LINE",
"192 441 LINE",
"262 290 LINE",
"336 290 LINE",
"406 441 LINE",
"406 0 LINE",
"546 0 LINE",
"546 700 LINE",
"416 700 LINE",
"299 474 LINE",
"182 700 LINE",
"52 700 LINE",
"52 0 LINE"
);
}
);
width = 597;
},
{
associatedMasterId = "4E2227F3-52E4-4048-A8EE-327B486EF0A4";
hints = (
{
origin = "{0, 2}";
target = "{0, 3}";
},
{
origin = "{0, 11}";
target = "{0, 10}";
},
{
origin = "{0, 8}";
target = "{0, 7}";
}
);
layerId = "B0E824CF-0225-4ED0-ACE8-90DC4BF0AF6C";
name = "{100,4}";
paths = (
{
closed = 1;
nodes = (
"168 0 LINE",
"168 490 LINE",
"261 280 LINE",
"329 280 LINE",
"422 489 LINE",
"422 0 LINE",
"522 0 LINE",
"522 700 LINE",
"414 700 LINE",
"295 431 LINE",
"176 700 LINE",
"68 700 LINE",
"68 0 LINE"
);
}
);
width = 589;
}
);
unicode = 004D;
},
{
color = 3;
glyphname = N;
lastChange = "2017-03-31 04:55:45 +0000";
layers = (
{
anchors = (
{
name = top;
position = "{301, 710}";
}
);
hints = (
{
origin = "{0, 9}";
target = "{0, 0}";
},
{
origin = "{0, 2}";
target = "{0, 3}";
}
);
layerId = "262880E7-CFE1-4BDA-902E-E24798F3240A";
paths = (
{
closed = 1;
nodes = (
"126 0 LINE",
"126 651 LINE",
"472 0 LINE",
"494 0 LINE",
"494 700 LINE",
"472 700 LINE",
"472 49 LINE",
"126 700 LINE",
"104 700 LINE",
"104 0 LINE"
);
}
);
width = 598;
},
{
anchors = (
{
name = top;
position = "{270, 713}";
}
);
layerId = "4E2227F3-52E4-4048-A8EE-327B486EF0A4";
paths = (
{
closed = 1;
nodes = (
"212 0 LINE",
"210 346 LINE",
"296 0 LINE",
"502 0 LINE",
"502 700 LINE",
"316 700 LINE",
"317 356 LINE",
"230 700 LINE",
"26 700 LINE",
"26 0 LINE"
);
}
);
width = 528;
},
{
anchors = (
{
name = top;
position = "{296, 713}";
}
);
layerId = "FFFA8D72-12AC-4CE0-B2CA-57A29829F4DA";
paths = (
{
closed = 1;
nodes = (
"225 0 LINE",
"223 357 LINE",
"399 0 LINE",
"575 0 LINE",
"575 700 LINE",
"389 700 LINE",
"390 350 LINE",
"215 700 LINE",
"39 700 LINE",
"39 0 LINE"
);
}
);
width = 614;
},
{
anchors = (
{
name = top;
position = "{240, 710}";
}
);
layerId = "DCBE1F7B-116A-43E0-B7B4-8657BA77D8B5";
paths = (
{
closed = 1;
nodes = (
"113 0 LINE",
"113 648 LINE",
"365 0 LINE",
"388 0 LINE",
"388 700 LINE",
"366 700 LINE",
"366 52 LINE",
"113 700 LINE",
"91 700 LINE",
"91 0 LINE"
);
}
);
width = 479;
},
{
anchors = (
{
name = top;
position = "{305, 711}";
}
);
associatedMasterId = "4E2227F3-52E4-4048-A8EE-327B486EF0A4";
layerId = "AF700569-CAED-4344-924C-FF7EDA896D2F";
name = "{100,5}";
paths = (
{
closed = 1;
nodes = (
"173 0 LINE",
"172 490 LINE",
"433 0 LINE",
"529 0 LINE",
"529 700 LINE",
"430 700 LINE",
"431 207 LINE",
"170 700 LINE",
"74 700 LINE",
"74 0 LINE"
);
}
);
width = 602;
},
{
anchors = (
{
name = top;
position = "{252, 711}";
}
);
associatedMasterId = "4E2227F3-52E4-4048-A8EE-327B486EF0A4";
layerId = "42C43E0D-C6E2-494E-A0C1-A4C56C6C4E84";
name = "{100,3}";
paths = (
{
closed = 1;
nodes = (
"160 0 LINE",
"159 467 LINE",
"336 0 LINE",
"442 0 LINE",
"442 700 LINE",
"343 700 LINE",
"344 234 LINE",
"165 700 LINE",
"61 700 LINE",
"61 0 LINE"
);
}
);
width = 503;
}
);
leftKerningGroup = H;
rightKerningGroup = H;
unicode = 004E;
},
{
glyphname = O;
lastChange = "2017-03-31 04:55:46 +0000";
layers = (
{
anchors = (
{
name = top;
position = "{280, 708}";
}
);
hints = (
{
origin = "{0, 9}";
target = "{1, 3}";
},
{
horizontal = 1;
origin = "{0, 6}";
target = "{1, 6}";
},
{
origin = "{1, 9}";
target = "{0, 3}";
},
{
horizontal = 1;
origin = "{0, 13}";
target = "{1, 13}";
}
);
layerId = "262880E7-CFE1-4BDA-902E-E24798F3240A";
paths = (
{
closed = 1;
nodes = (
"401 -7 OFFCURVE",
"482 77 OFFCURVE",
"482 190 CURVE SMOOTH",
"482 509 LINE SMOOTH",
"482 623 OFFCURVE",
"401 708 OFFCURVE",
"280 708 CURVE SMOOTH",
"159 708 OFFCURVE",
"80 623 OFFCURVE",
"80 509 CURVE SMOOTH",
"80 190 LINE SMOOTH",
"80 77 OFFCURVE",
"159 -7 OFFCURVE",
"280 -7 CURVE SMOOTH"
);
},
{
closed = 1;
nodes = (
"173 13 OFFCURVE",
"102 89 OFFCURVE",
"102 189 CURVE SMOOTH",
"102 510 LINE SMOOTH",
"102 610 OFFCURVE",
"173 687 OFFCURVE",
"280 687 CURVE SMOOTH",
"388 687 OFFCURVE",
"460 610 OFFCURVE",
"460 510 CURVE SMOOTH",
"460 189 LINE SMOOTH",
"460 89 OFFCURVE",
"388 13 OFFCURVE",
"280 13 CURVE SMOOTH"
);
}
);
width = 562;
},
{
anchors = (
{
name = top;
position = "{242, 708}";
}
);
layerId = "4E2227F3-52E4-4048-A8EE-327B486EF0A4";
paths = (
{
closed = 1;
nodes = (
"376 -8 OFFCURVE",
"464 75 OFFCURVE",
"464 206 CURVE SMOOTH",
"464 494 LINE SMOOTH",
"464 625 OFFCURVE",
"376 708 OFFCURVE",
"242 708 CURVE SMOOTH",
"107 708 OFFCURVE",
"20 625 OFFCURVE",
"20 494 CURVE SMOOTH",
"20 206 LINE SMOOTH",
"20 75 OFFCURVE",
"107 -8 OFFCURVE",
"242 -8 CURVE SMOOTH"
);
},
{
closed = 1;
nodes = (
"220 153 OFFCURVE",
"208 171 OFFCURVE",
"208 198 CURVE SMOOTH",
"208 502 LINE SMOOTH",
"208 529 OFFCURVE",
"220 547 OFFCURVE",
"242 547 CURVE SMOOTH",
"264 547 OFFCURVE",
"276 529 OFFCURVE",
"276 502 CURVE SMOOTH",
"276 198 LINE SMOOTH",
"276 171 OFFCURVE",
"264 153 OFFCURVE",
"242 153 CURVE SMOOTH"
);
}
);
width = 484;
},
{
anchors = (
{
name = top;
position = "{290, 708}";
}
);
guideLines = (
{
position = "{290, 613}";
},
{
position = "{287, 360}";
},
{
position = "{290, 87}";
}
);
layerId = "FFFA8D72-12AC-4CE0-B2CA-57A29829F4DA";
paths = (
{
closed = 1;
nodes = (
"448 -12 OFFCURVE",
"551 87 OFFCURVE",
"551 236 CURVE SMOOTH",
"551 464 LINE SMOOTH",
"551 613 OFFCURVE",
"448 708 OFFCURVE",
"290 708 CURVE SMOOTH",
"132 708 OFFCURVE",
"30 613 OFFCURVE",
"30 464 CURVE SMOOTH",
"30 236 LINE SMOOTH",
"30 87 OFFCURVE",
"132 -12 OFFCURVE",
"290 -12 CURVE SMOOTH"
);
},
{
closed = 1;
nodes = (
"245 149 OFFCURVE",
"218 180 OFFCURVE",
"218 230 CURVE SMOOTH",
"218 466 LINE SMOOTH",
"218 516 OFFCURVE",
"245 547 OFFCURVE",
"290 547 CURVE SMOOTH",
"335 547 OFFCURVE",
"363 516 OFFCURVE",
"363 466 CURVE SMOOTH",
"363 230 LINE SMOOTH",
"363 180 OFFCURVE",
"335 149 OFFCURVE",
"290 149 CURVE SMOOTH"
);
}
);
width = 581;
},
{
anchors = (
{
name = top;
position = "{221, 699}";
}
);
layerId = "DCBE1F7B-116A-43E0-B7B4-8657BA77D8B5";
paths = (
{
closed = 1;
nodes = (
"311 -8 OFFCURVE",
"374 56 OFFCURVE",
"374 150 CURVE SMOOTH",
"374 549 LINE SMOOTH",
"374 643 OFFCURVE",
"311 708 OFFCURVE",
"221 708 CURVE SMOOTH",
"132 708 OFFCURVE",
"70 643 OFFCURVE",
"70 549 CURVE SMOOTH",
"70 150 LINE SMOOTH",
"70 56 OFFCURVE",
"132 -8 OFFCURVE",
"221 -8 CURVE SMOOTH"
);
},
{
closed = 1;
nodes = (
"145 13 OFFCURVE",
"92 69 OFFCURVE",
"92 149 CURVE SMOOTH",
"92 550 LINE SMOOTH",
"92 631 OFFCURVE",
"145 687 OFFCURVE",
"221 687 CURVE SMOOTH",
"298 687 OFFCURVE",
"352 631 OFFCURVE",
"352 550 CURVE SMOOTH",
"352 149 LINE SMOOTH",
"352 69 OFFCURVE",
"298 13 OFFCURVE",
"221 13 CURVE SMOOTH"
);
}
);
width = 444;
}
);
leftKerningGroup = O;
rightKerningGroup = C;
unicode = 004F;
},
{
color = 3;
glyphname = Oslash;
lastChange = "2017-03-31 04:55:46 +0000";
layers = (
{
components = (
{
name = O;
transform = "{1, 0, 0, 1, -13, 0}";
}
);
layerId = "262880E7-CFE1-4BDA-902E-E24798F3240A";
paths = (
{
closed = 1;
nodes = (
"96 -21 LINE",
"116 -30 LINE",
"443 730 LINE",
"423 739 LINE"
);
}
);
width = 536;
},
{
components = (
{
name = O;
transform = "{1, 0, 0, 1, -12, 0}";
}
);
layerId = "FFFA8D72-12AC-4CE0-B2CA-57A29829F4DA";
paths = (
{
closed = 1;
nodes = (
"63 10 LINE",
"121 -30 LINE",
"497 690 LINE",
"439 730 LINE"
);
}
);
width = 549;
},
{
components = (
{
name = O;
transform = "{1, 0, 0, 1, -16, 0}";
}
);
layerId = "DCBE1F7B-116A-43E0-B7B4-8657BA77D8B5";
paths = (
{
closed = 1;
nodes = (
"44 -21 LINE",
"64 -30 LINE",
"365 730 LINE",
"345 739 LINE"
);
}
);
width = 412;
},
{
components = (
{
name = O;
transform = "{1, 0, 0, 1, -8, 0}";
}
);
layerId = "4E2227F3-52E4-4048-A8EE-327B486EF0A4";
paths = (
{
closed = 1;
nodes = (
"39 0 LINE",
"101 -30 LINE",
"432 700 LINE",
"369 730 LINE"
);
}
);
width = 462;
},
{
associatedMasterId = "FFFA8D72-12AC-4CE0-B2CA-57A29829F4DA";
components = (
{
name = O;
transform = "{1, 0, 0, 1, 6, 0}";
}
);
layerId = "160CDC3E-1151-4942-8EC5-A5A167ED0AB4";
name = "{100,3}";
paths = (
{
closed = 1;
nodes = (
"35 -16 LINE",
"92 -44 LINE",
"420 721 LINE",
"362 748 LINE"
);
}
);
width = 588;
},
{
associatedMasterId = "FFFA8D72-12AC-4CE0-B2CA-57A29829F4DA";
components = (
{
name = O;
transform = "{1, 0, 0, 1, 14, 0}";
}
);
layerId = "ED17B6D4-A8AE-40B6-9381-1DD3D326EE5F";
name = "{100,5}";
paths = (
{
closed = 1;
nodes = (
"66 -11 LINE",
"121 -44 LINE",
"506 715 LINE",
"451 749 LINE"
);
}
);
width = 606;
}
);
unicode = 00D8;
},
{
glyphname = P;
lastChange = "2017-03-31 04:55:46 +0000";
layers = (
{
hints = (
{
horizontal = 1;
origin = "{0, 17}";
target = "{0, 2}";
},
{
origin = "{0, 5}";
target = "{0, 14}";
},
{
horizontal = 1;
origin = "{0, 11}";
target = "{0, 8}";
},
{
origin = "{0, 18}";
target = "{0, 1}";
}
);
layerId = "262880E7-CFE1-4BDA-902E-E24798F3240A";
paths = (
{
closed = 1;
nodes = (
"118 0 LINE",
"118 681 LINE",
"306 681 LINE SMOOTH",
"398 681 OFFCURVE",
"460 617 OFFCURVE",
"460 520 CURVE SMOOTH",
"460 425 OFFCURVE",
"398 361 OFFCURVE",
"306 361 CURVE SMOOTH",
"113 361 LINE",
"113 340 LINE",
"304 340 LINE SMOOTH",
"411 340 OFFCURVE",
"482 411 OFFCURVE",
"482 520 CURVE SMOOTH",
"482 629 OFFCURVE",
"411 702 OFFCURVE",
"304 702 CURVE SMOOTH",
"96 702 LINE",
"96 0 LINE"
);
}
);
width = 514;
},
{
layerId = "4E2227F3-52E4-4048-A8EE-327B486EF0A4";
paths = (
{
closed = 1;
nodes = (
"212 0 LINE",
"212 539 LINE",
"231 539 LINE SMOOTH",
"260 539 OFFCURVE",
"281 517 OFFCURVE",
"281 471 CURVE SMOOTH",
"281 426 OFFCURVE",
"260 405 OFFCURVE",
"231 405 CURVE SMOOTH",
"196 405 LINE",
"196 260 LINE",
"274 260 LINE SMOOTH",
"390 260 OFFCURVE",
"469 345 OFFCURVE",
"469 475 CURVE SMOOTH",
"469 608 OFFCURVE",
"386 700 OFFCURVE",
"264 700 CURVE SMOOTH",
"24 700 LINE",
"24 0 LINE"
);
}
);
width = 477;
},
{
layerId = "FFFA8D72-12AC-4CE0-B2CA-57A29829F4DA";
paths = (
{
closed = 1;
nodes = (
"224 0 LINE",
"224 539 LINE",
"283 539 LINE SMOOTH",
"331 539 OFFCURVE",
"365 517 OFFCURVE",
"365 471 CURVE SMOOTH",
"365 426 OFFCURVE",
"331 405 OFFCURVE",
"283 405 CURVE SMOOTH",
"207 405 LINE",
"207 255 LINE",
"305 255 LINE SMOOTH",
"441 255 OFFCURVE",
"552 342 OFFCURVE",
"552 475 CURVE SMOOTH",
"552 608 OFFCURVE",
"456 700 OFFCURVE",
"314 700 CURVE SMOOTH",
"36 700 LINE",
"36 0 LINE"
);
}
);
width = 564;
},
{
layerId = "DCBE1F7B-116A-43E0-B7B4-8657BA77D8B5";
paths = (
{
closed = 1;
nodes = (
"106 0 LINE",
"106 681 LINE",
"232 681 LINE SMOOTH",
"306 681 OFFCURVE",
"355 617 OFFCURVE",
"355 520 CURVE SMOOTH",
"355 425 OFFCURVE",
"306 361 OFFCURVE",
"232 361 CURVE SMOOTH",
"102 361 LINE",
"102 340 LINE",
"232 340 LINE SMOOTH",
"319 340 OFFCURVE",
"377 412 OFFCURVE",
"377 520 CURVE SMOOTH",
"377 629 OFFCURVE",
"319 702 OFFCURVE",
"232 702 CURVE SMOOTH",
"84 702 LINE",
"84 0 LINE"
);
}
);
width = 405;
}
);
leftKerningGroup = H;
rightKerningGroup = P;
unicode = 0050;
},
{
glyphname = Q;
lastChange = "2017-03-31 05:06:31 +0000";
layers = (
{
hints = (
{
horizontal = 1;
origin = "{2, 6}";
target = "{1, 6}";
},
{
origin = "{2, 9}";
target = "{1, 3}";
},
{
origin = "{1, 9}";
target = "{2, 3}";
},
{
horizontal = 1;
origin = "{2, 13}";
target = "{1, 13}";
}
);
layerId = "262880E7-CFE1-4BDA-902E-E24798F3240A";
paths = (
{
closed = 1;
nodes = (
"283 -127 LINE",
"283 0 LINE",
"261 0 LINE",
"261 -127 LINE"
);
},
{
closed = 1;
nodes = (
"169 13 OFFCURVE",
"102 80 OFFCURVE",
"102 180 CURVE SMOOTH",
"102 520 LINE SMOOTH",
"102 620 OFFCURVE",
"169 687 OFFCURVE",
"272 687 CURVE SMOOTH",
"374 687 OFFCURVE",
"442 620 OFFCURVE",
"442 520 CURVE SMOOTH",
"442 180 LINE SMOOTH",
"442 80 OFFCURVE",
"374 13 OFFCURVE",
"272 13 CURVE SMOOTH"
);
},
{
closed = 1;
nodes = (
"387 -8 OFFCURVE",
"464 67 OFFCURVE",
"464 181 CURVE SMOOTH",
"464 519 LINE SMOOTH",
"464 633 OFFCURVE",
"387 708 OFFCURVE",
"272 708 CURVE SMOOTH",
"156 708 OFFCURVE",
"80 633 OFFCURVE",
"80 519 CURVE SMOOTH",
"80 181 LINE SMOOTH",
"80 67 OFFCURVE",
"156 -8 OFFCURVE",
"272 -8 CURVE SMOOTH"
);
}
);
width = 562;
},
{
layerId = "4E2227F3-52E4-4048-A8EE-327B486EF0A4";
paths = (
{
closed = 1;
nodes = (
"330 -87 LINE",
"330 113 LINE",
"142 113 LINE",
"142 -87 LINE"
);
},
{
closed = 1;
nodes = (
"219 153 OFFCURVE",
"208 170 OFFCURVE",
"208 195 CURVE SMOOTH",
"208 505 LINE SMOOTH",
"208 530 OFFCURVE",
"219 547 OFFCURVE",
"236 547 CURVE SMOOTH",
"254 547 OFFCURVE",
"265 530 OFFCURVE",
"265 505 CURVE SMOOTH",
"265 195 LINE SMOOTH",
"265 170 OFFCURVE",
"254 153 OFFCURVE",
"236 153 CURVE SMOOTH"
);
},
{
closed = 1;
nodes = (
"367 -8 OFFCURVE",
"453 81 OFFCURVE",
"453 215 CURVE SMOOTH",
"453 485 LINE SMOOTH",
"453 619 OFFCURVE",
"367 708 OFFCURVE",
"236 708 CURVE SMOOTH",
"106 708 OFFCURVE",
"20 619 OFFCURVE",
"20 485 CURVE SMOOTH",
"20 215 LINE SMOOTH",
"20 81 OFFCURVE",
"106 -8 OFFCURVE",
"236 -8 CURVE SMOOTH"
);
}
);
width = 484;
},
{
layerId = "FFFA8D72-12AC-4CE0-B2CA-57A29829F4DA";
paths = (
{
closed = 1;
nodes = (
"377 -87 LINE",
"377 113 LINE",
"189 113 LINE",
"189 -87 LINE"
);
},
{
closed = 1;
nodes = (
"244 153 OFFCURVE",
"218 184 OFFCURVE",
"218 230 CURVE SMOOTH",
"218 470 LINE SMOOTH",
"218 516 OFFCURVE",
"244 547 OFFCURVE",
"282 547 CURVE SMOOTH",
"321 547 OFFCURVE",
"347 516 OFFCURVE",
"347 470 CURVE SMOOTH",
"347 230 LINE SMOOTH",
"347 184 OFFCURVE",
"321 153 OFFCURVE",
"282 153 CURVE SMOOTH"
);
},
{
closed = 1;
nodes = (
"433 -8 OFFCURVE",
"535 85 OFFCURVE",
"535 225 CURVE SMOOTH",
"535 460 LINE SMOOTH",
"535 612 OFFCURVE",
"433 708 OFFCURVE",
"282 708 CURVE SMOOTH",
"131 708 OFFCURVE",
"30 612 OFFCURVE",
"30 460 CURVE SMOOTH",
"30 225 LINE SMOOTH",
"30 85 OFFCURVE",
"131 -8 OFFCURVE",
"282 -8 CURVE SMOOTH"
);
}
);
width = 581;
},
{
layerId = "DCBE1F7B-116A-43E0-B7B4-8657BA77D8B5";
paths = (
{
closed = 1;
nodes = (
"227 -127 LINE",
"227 0 LINE",
"204 0 LINE",
"204 -127 LINE"
);
},
{
closed = 1;
nodes = (
"143 13 OFFCURVE",
"92 69 OFFCURVE",
"92 150 CURVE SMOOTH",
"92 550 LINE SMOOTH",
"92 631 OFFCURVE",
"143 687 OFFCURVE",
"216 687 CURVE SMOOTH",
"289 687 OFFCURVE",
"339 631 OFFCURVE",
"339 550 CURVE SMOOTH",
"339 150 LINE SMOOTH",
"339 69 OFFCURVE",
"289 13 OFFCURVE",
"216 13 CURVE SMOOTH"
);
},
{
closed = 1;
nodes = (
"302 -8 OFFCURVE",
"361 57 OFFCURVE",
"361 151 CURVE SMOOTH",
"361 549 LINE SMOOTH",
"361 643 OFFCURVE",
"302 708 OFFCURVE",
"216 708 CURVE SMOOTH",
"130 708 OFFCURVE",
"70 643 OFFCURVE",
"70 549 CURVE SMOOTH",
"70 151 LINE SMOOTH",
"70 57 OFFCURVE",
"130 -8 OFFCURVE",
"216 -8 CURVE SMOOTH"
);
}
);
width = 444;
}
);
leftKerningGroup = C;
unicode = 0051;
},
{
glyphname = R;
lastChange = "2017-03-31 04:55:46 +0000";
layers = (
{
hints = (
{
horizontal = 1;
origin = "{0, 18}";
target = "{0, 1}";
},
{
horizontal = 1;
origin = "{0, 10}";
target = "{0, 9}";
},
{
origin = "{0, 19}";
target = "{0, 0}";
},
{
place = "{458, 0}";
},
{
place = "{445, 0}";
}
);
layerId = "262880E7-CFE1-4BDA-902E-E24798F3240A";
paths = (
{
closed = 1;
nodes = (
"126 0 LINE",
"126 681 LINE",
"314 681 LINE SMOOTH",
"406 681 OFFCURVE",
"468 617 OFFCURVE",
"468 522 CURVE SMOOTH",
"468 429 OFFCURVE",
"406 365 OFFCURVE",
"314 365 CURVE SMOOTH",
"121 365 LINE",
"121 344 LINE",
"312 344 LINE SMOOTH",
"419 344 OFFCURVE",
"490 415 OFFCURVE",
"490 522 CURVE SMOOTH",
"490 629 OFFCURVE",
"419 702 OFFCURVE",
"312 702 CURVE SMOOTH",
"104 702 LINE",
"104 0 LINE"
);
},
{
closed = 1;
nodes = (
"503 0 LINE",
"330 355 LINE",
"312 347 LINE",
"482 0 LINE"
);
}
);
width = 543;
},
{
layerId = "4E2227F3-52E4-4048-A8EE-327B486EF0A4";
paths = (
{
closed = 1;
nodes = (
"214 0 LINE",
"214 539 LINE",
"233 539 LINE SMOOTH",
"262 539 OFFCURVE",
"283 518 OFFCURVE",
"283 475 CURVE SMOOTH",
"283 434 OFFCURVE",
"262 412 OFFCURVE",
"233 412 CURVE SMOOTH",
"198 412 LINE",
"198 269 LINE",
"276 269 LINE SMOOTH",
"392 269 OFFCURVE",
"471 352 OFFCURVE",
"471 477 CURVE SMOOTH",
"471 608 OFFCURVE",
"388 700 OFFCURVE",
"266 700 CURVE SMOOTH",
"26 700 LINE",
"26 0 LINE"
);
},
{
closed = 1;
nodes = (
"480 0 LINE",
"381 349 LINE",
"202 349 LINE",
"286 0 LINE"
);
}
);
width = 490;
},
{
layerId = "FFFA8D72-12AC-4CE0-B2CA-57A29829F4DA";
paths = (
{
closed = 1;
nodes = (
"227 0 LINE",
"227 539 LINE",
"296 539 LINE SMOOTH",
"339 539 OFFCURVE",
"368 513 OFFCURVE",
"368 475 CURVE SMOOTH",
"368 437 OFFCURVE",
"339 412 OFFCURVE",
"296 412 CURVE SMOOTH",
"210 412 LINE",
"210 269 LINE",
"327 269 LINE SMOOTH",
"464 269 OFFCURVE",
"555 352 OFFCURVE",
"555 477 CURVE SMOOTH",
"555 611 OFFCURVE",
"464 700 OFFCURVE",
"327 700 CURVE SMOOTH",
"39 700 LINE",
"39 0 LINE"
);
},
{
closed = 1;
nodes = (
"565 0 LINE",
"428 349 LINE",
"243 349 LINE",
"365 0 LINE"
);
}
);
width = 580;
},
{
layerId = "DCBE1F7B-116A-43E0-B7B4-8657BA77D8B5";
paths = (
{
closed = 1;
nodes = (
"113 0 LINE",
"113 681 LINE",
"239 681 LINE SMOOTH",
"313 681 OFFCURVE",
"362 617 OFFCURVE",
"362 522 CURVE SMOOTH",
"362 428 OFFCURVE",
"313 365 OFFCURVE",
"239 365 CURVE SMOOTH",
"109 365 LINE",
"109 344 LINE",
"239 344 LINE SMOOTH",
"326 344 OFFCURVE",
"384 415 OFFCURVE",
"384 522 CURVE SMOOTH",
"384 630 OFFCURVE",
"326 702 OFFCURVE",
"239 702 CURVE SMOOTH",
"91 702 LINE",
"91 0 LINE"
);
},
{
closed = 1;
nodes = (
"389 0 LINE",
"258 353 LINE",
"239 345 LINE",
"367 0 LINE"
);
}
);
width = 424;
}
);
rightKerningGroup = R;
unicode = 0052;
},
{
glyphname = S;
lastChange = "2017-03-31 04:55:46 +0000";
layers = (
{
anchors = (
{
name = top;
position = "{259, 708}";
}
);
hints = (
{
horizontal = 1;
origin = "{0, 20}";
target = "{0, 11}";
},
{
origin = "{0, 23}";
target = "{0, 8}";
},
{
origin = "{0, 29}";
target = "{0, 2}";
},
{
origin = "{0, 14}";
target = "{0, 17}";
},
{
horizontal = 1;
origin = "{0, 41}";
target = "{0, 32}";
},
{
origin = "{0, 37}";
target = "{0, 36}";
}
);
layerId = "262880E7-CFE1-4BDA-902E-E24798F3240A";
paths = (
{
closed = 1;
nodes = (
"386 -8 OFFCURVE",
"469 61 OFFCURVE",
"469 161 CURVE SMOOTH",
"469 257 OFFCURVE",
"393 301 OFFCURVE",
"272 371 CURVE SMOOTH",
"165 433 OFFCURVE",
"99 456 OFFCURVE",
"99 549 CURVE SMOOTH",
"99 639 OFFCURVE",
"163 687 OFFCURVE",
"259 687 CURVE SMOOTH",
"369 687 OFFCURVE",
"440 625 OFFCURVE",
"440 533 CURVE SMOOTH",
"440 500 LINE",
"462 500 LINE",
"462 535 LINE SMOOTH",
"462 639 OFFCURVE",
"384 708 OFFCURVE",
"262 708 CURVE SMOOTH",
"151 708 OFFCURVE",
"78 652 OFFCURVE",
"78 548 CURVE SMOOTH",
"78 444 OFFCURVE",
"151 412 OFFCURVE",
"257 351 CURVE SMOOTH",
"398 270 OFFCURVE",
"447 231 OFFCURVE",
"447 159 CURVE SMOOTH",
"447 71 OFFCURVE",
"374 13 OFFCURVE",
"266 13 CURVE SMOOTH",
"155 13 OFFCURVE",
"84 74 OFFCURVE",
"84 166 CURVE SMOOTH",
"84 210 LINE",
"64 210 LINE",
"64 164 LINE SMOOTH",
"64 60 OFFCURVE",
"143 -8 OFFCURVE",
"264 -8 CURVE SMOOTH"
);
}
);
width = 541;
},
{
anchors = (
{
name = top;
position = "{229, 708}";
}
);
layerId = "4E2227F3-52E4-4048-A8EE-327B486EF0A4";
paths = (
{
closed = 1;
nodes = (
"360 -8 OFFCURVE",
"447 70 OFFCURVE",
"447 187 CURVE SMOOTH",
"447 287 OFFCURVE",
"386 338 OFFCURVE",
"281 412 CURVE SMOOTH",
"218 457 OFFCURVE",
"201 479 OFFCURVE",
"201 509 CURVE SMOOTH",
"201 533 OFFCURVE",
"212 547 OFFCURVE",
"229 547 CURVE SMOOTH",
"246 547 OFFCURVE",
"258 533 OFFCURVE",
"258 513 CURVE SMOOTH",
"258 472 LINE",
"443 472 LINE",
"443 509 LINE SMOOTH",
"443 628 OFFCURVE",
"358 708 OFFCURVE",
"229 708 CURVE SMOOTH",
"101 708 OFFCURVE",
"16 628 OFFCURVE",
"16 510 CURVE SMOOTH",
"16 387 OFFCURVE",
"107 322 OFFCURVE",
"179 272 CURVE SMOOTH",
"249 224 OFFCURVE",
"262 206 OFFCURVE",
"262 185 CURVE SMOOTH",
"262 166 OFFCURVE",
"250 153 OFFCURVE",
"234 153 CURVE SMOOTH",
"218 153 OFFCURVE",
"206 167 OFFCURVE",
"206 189 CURVE SMOOTH",
"206 229 LINE",
"20 229 LINE",
"20 180 LINE SMOOTH",
"20 70 OFFCURVE",
"104 -8 OFFCURVE",
"233 -8 CURVE SMOOTH"
);
}
);
width = 465;
},
{
anchors = (
{
name = top;
position = "{265, 708}";
}
);
layerId = "FFFA8D72-12AC-4CE0-B2CA-57A29829F4DA";
paths = (
{
closed = 1;
nodes = (
"402 -8 OFFCURVE",
"512 54 OFFCURVE",
"512 195 CURVE SMOOTH",
"512 259 OFFCURVE",
"489 340 OFFCURVE",
"330 418 CURVE SMOOTH",
"258 453 OFFCURVE",
"209 465 OFFCURVE",
"209 503 CURVE SMOOTH",
"209 529 OFFCURVE",
"231 547 OFFCURVE",
"265 547 CURVE SMOOTH",
"304 547 OFFCURVE",
"323 524 OFFCURVE",
"323 488 CURVE SMOOTH",
"323 466 LINE",
"508 466 LINE",
"508 509 LINE SMOOTH",
"508 628 OFFCURVE",
"410 708 OFFCURVE",
"266 708 CURVE SMOOTH",
"121 708 OFFCURVE",
"24 628 OFFCURVE",
"24 499 CURVE SMOOTH",
"24 394 OFFCURVE",
"88 346 OFFCURVE",
"187 300 CURVE SMOOTH",
"289 253 OFFCURVE",
"327 234 OFFCURVE",
"327 199 CURVE SMOOTH",
"327 171 OFFCURVE",
"304 153 OFFCURVE",
"272 153 CURVE SMOOTH",
"235 153 OFFCURVE",
"214 177 OFFCURVE",
"214 210 CURVE SMOOTH",
"214 236 LINE",
"25 236 LINE",
"28 180 LINE SMOOTH",
"34 69 OFFCURVE",
"120 -8 OFFCURVE",
"269 -8 CURVE SMOOTH"
);
}
);
width = 539;
},
{
anchors = (
{
name = top;
position = "{197, 708}";
}
);
layerId = "DCBE1F7B-116A-43E0-B7B4-8657BA77D8B5";
paths = (
{
closed = 1;
nodes = (
"289 -8 OFFCURVE",
"351 60 OFFCURVE",
"351 166 CURVE SMOOTH",
"351 257 OFFCURVE",
"306 294 OFFCURVE",
"206 369 CURVE SMOOTH",
"119 434 OFFCURVE",
"78 469 OFFCURVE",
"78 549 CURVE SMOOTH",
"78 640 OFFCURVE",
"130 688 OFFCURVE",
"197 688 CURVE SMOOTH",
"272 688 OFFCURVE",
"323 627 OFFCURVE",
"323 534 CURVE SMOOTH",
"323 500 LINE",
"345 500 LINE",
"345 535 LINE SMOOTH",
"345 639 OFFCURVE",
"286 708 OFFCURVE",
"197 708 CURVE SMOOTH",
"117 708 OFFCURVE",
"56 652 OFFCURVE",
"56 551 CURVE SMOOTH",
"56 453 OFFCURVE",
"112 409 OFFCURVE",
"194 347 CURVE SMOOTH",
"272 288 OFFCURVE",
"329 250 OFFCURVE",
"329 159 CURVE SMOOTH",
"329 70 OFFCURVE",
"274 12 OFFCURVE",
"202 12 CURVE SMOOTH",
"129 12 OFFCURVE",
"77 72 OFFCURVE",
"77 165 CURVE SMOOTH",
"77 192 LINE",
"56 192 LINE",
"56 164 LINE SMOOTH",
"56 60 OFFCURVE",
"117 -8 OFFCURVE",
"203 -8 CURVE SMOOTH"
);
}
);
width = 414;
}
);
leftKerningGroup = S;
rightKerningGroup = S;
unicode = 0053;
},
{
glyphname = T;
lastChange = "2017-03-31 04:55:46 +0000";
layers = (
{
hints = (
{
horizontal = 1;
origin = "{1, 2}";
target = "{1, 3}";
},
{
origin = "{0, 3}";
target = "{0, 0}";
}
);
layerId = "262880E7-CFE1-4BDA-902E-E24798F3240A";
paths = (
{
closed = 1;
nodes = (
"235 0 LINE",
"235 689 LINE",
"213 689 LINE",
"213 0 LINE"
);
},
{
closed = 1;
nodes = (
"434 679 LINE",
"434 700 LINE",
"24 700 LINE",
"24 679 LINE"
);
}
);
width = 458;
},
{
layerId = "4E2227F3-52E4-4048-A8EE-327B486EF0A4";
paths = (
{
closed = 1;
nodes = (
"330 0 LINE",
"330 689 LINE",
"142 689 LINE",
"142 0 LINE"
);
},
{
closed = 1;
nodes = (
"469 539 LINE",
"469 700 LINE",
"6 700 LINE",
"6 539 LINE"
);
}
);
width = 475;
},
{
layerId = "FFFA8D72-12AC-4CE0-B2CA-57A29829F4DA";
paths = (
{
closed = 1;
nodes = (
"370 0 LINE",
"370 689 LINE",
"182 689 LINE",
"182 0 LINE"
);
},
{
closed = 1;
nodes = (
"548 538 LINE",
"548 700 LINE",
"9 700 LINE",
"9 538 LINE"
);
}
);
width = 557;
},
{
layerId = "DCBE1F7B-116A-43E0-B7B4-8657BA77D8B5";
paths = (
{
closed = 1;
nodes = (
"183 0 LINE",
"183 689 LINE",
"161 689 LINE",
"161 0 LINE"
);
},
{
closed = 1;
nodes = (
"332 679 LINE",
"332 700 LINE",
"21 700 LINE",
"21 679 LINE"
);
}
);
width = 353;
}
);
leftKerningGroup = T;
rightKerningGroup = T;
unicode = 0054;
},
{
glyphname = U;
lastChange = "2017-03-31 04:55:46 +0000";
layers = (
{
anchors = (
{
name = top;
position = "{298, 712}";
}
);
hints = (
{
horizontal = 1;
origin = "{0, 17}";
target = "{0, 8}";
},
{
origin = "{0, 5}";
target = "{0, 2}";
},
{
origin = "{0, 14}";
target = "{0, 11}";
}
);
layerId = "262880E7-CFE1-4BDA-902E-E24798F3240A";
paths = (
{
closed = 1;
nodes = (
"419 -8 OFFCURVE",
"501 69 OFFCURVE",
"501 185 CURVE SMOOTH",
"501 700 LINE",
"479 700 LINE",
"479 182 LINE SMOOTH",
"479 81 OFFCURVE",
"406 13 OFFCURVE",
"298 13 CURVE SMOOTH",
"189 13 OFFCURVE",
"118 81 OFFCURVE",
"118 182 CURVE SMOOTH",
"118 700 LINE",
"96 700 LINE",
"96 185 LINE SMOOTH",
"96 69 OFFCURVE",
"177 -8 OFFCURVE",
"298 -8 CURVE SMOOTH"
);
}
);
width = 597;
},
{
anchors = (
{
name = top;
position = "{241, 713}";
}
);
layerId = "4E2227F3-52E4-4048-A8EE-327B486EF0A4";
paths = (
{
closed = 1;
nodes = (
"371 -8 OFFCURVE",
"457 78 OFFCURVE",
"457 208 CURVE SMOOTH",
"457 700 LINE",
"269 700 LINE",
"269 190 LINE SMOOTH",
"269 168 OFFCURVE",
"258 153 OFFCURVE",
"241 153 CURVE SMOOTH",
"223 153 OFFCURVE",
"212 168 OFFCURVE",
"212 190 CURVE SMOOTH",
"212 700 LINE",
"24 700 LINE",
"24 208 LINE SMOOTH",
"24 78 OFFCURVE",
"110 -8 OFFCURVE",
"241 -8 CURVE SMOOTH"
);
}
);
width = 481;
},
{
anchors = (
{
name = top;
position = "{290, 713}";
}
);
layerId = "FFFA8D72-12AC-4CE0-B2CA-57A29829F4DA";
paths = (
{
closed = 1;
nodes = (
"442 -8 OFFCURVE",
"544 81 OFFCURVE",
"544 223 CURVE SMOOTH",
"544 700 LINE",
"356 700 LINE",
"356 223 LINE SMOOTH",
"356 183 OFFCURVE",
"330 153 OFFCURVE",
"290 153 CURVE SMOOTH",
"250 153 OFFCURVE",
"223 183 OFFCURVE",
"223 223 CURVE SMOOTH",
"223 700 LINE",
"35 700 LINE",
"35 223 LINE SMOOTH",
"35 81 OFFCURVE",
"137 -8 OFFCURVE",
"290 -8 CURVE SMOOTH"
);
}
);
width = 579;
},
{
anchors = (
{
name = top;
position = "{236, 710}";
}
);
layerId = "DCBE1F7B-116A-43E0-B7B4-8657BA77D8B5";
paths = (
{
closed = 1;
nodes = (
"328 -8 OFFCURVE",
"390 65 OFFCURVE",
"390 175 CURVE SMOOTH",
"390 700 LINE",
"368 700 LINE",
"368 172 LINE SMOOTH",
"368 77 OFFCURVE",
"315 13 OFFCURVE",
"236 13 CURVE SMOOTH",
"158 13 OFFCURVE",
"106 77 OFFCURVE",
"106 172 CURVE SMOOTH",
"106 700 LINE",
"84 700 LINE",
"84 175 LINE SMOOTH",
"84 65 OFFCURVE",
"145 -8 OFFCURVE",
"236 -8 CURVE SMOOTH"
);
}
);
width = 474;
}
);
rightKerningGroup = U;
unicode = 0055;
},
{
glyphname = V;
lastChange = "2017-03-31 04:55:46 +0000";
layers = (
{
hints = (
{
origin = "{0, 6}";
target = "{0, 0}";
},
{
origin = "{0, 5}";
target = "{0, 4}";
},
{
origin = "{0, 2}";
target = "{0, 1}";
}
);
layerId = "262880E7-CFE1-4BDA-902E-E24798F3240A";
paths = (
{
closed = 1;
nodes = (
"267 0 LINE",
"481 700 LINE",
"460 700 LINE",
"256 33 LINE",
"54 700 LINE",
"32 700 LINE",
"245 0 LINE"
);
}
);
width = 513;
},
{
layerId = "4E2227F3-52E4-4048-A8EE-327B486EF0A4";
paths = (
{
closed = 1;
nodes = (
"357 0 LINE",
"505 700 LINE",
"307 700 LINE",
"261 305 LINE",
"211 700 LINE",
"8 700 LINE",
"154 0 LINE"
);
}
);
width = 513;
},
{
layerId = "FFFA8D72-12AC-4CE0-B2CA-57A29829F4DA";
paths = (
{
closed = 1;
nodes = (
"389 0 LINE",
"573 700 LINE",
"375 700 LINE",
"296 258 LINE",
"214 700 LINE",
"12 700 LINE",
"194 0 LINE"
);
}
);
width = 585;
},
{
layerId = "DCBE1F7B-116A-43E0-B7B4-8657BA77D8B5";
paths = (
{
closed = 1;
nodes = (
"200 0 LINE",
"349 700 LINE",
"327 700 LINE",
"189 42 LINE",
"51 700 LINE",
"28 700 LINE",
"178 0 LINE"
);
}
);
width = 377;
}
);
leftKerningGroup = V;
rightKerningGroup = V;
unicode = 0056;
},
{
color = 3;
glyphname = W;
lastChange = "2017-03-31 04:55:46 +0000";
layers = (
{
hints = (
{
origin = "{0, 11}";
target = "{0, 10}";
},
{
origin = "{0, 12}";
target = "{0, 0}";
},
{
origin = "{0, 8}";
target = "{0, 7}";
},
{
origin = "{0, 2}";
target = "{0, 3}";
},
{
origin = "{0, 5}";
target = "{0, 4}";
}
);
layerId = "262880E7-CFE1-4BDA-902E-E24798F3240A";
paths = (
{
closed = 1;
nodes = (
"240 0 LINE",
"412 666 LINE",
"582 0 LINE",
"604 0 LINE",
"795 700 LINE",
"773 700 LINE",
"594 40 LINE",
"422 700 LINE",
"400 700 LINE",
"230 40 LINE",
"54 700 LINE",
"32 700 LINE",
"218 0 LINE"
);
}
);
width = 827;
},
{
layerId = "4E2227F3-52E4-4048-A8EE-327B486EF0A4";
paths = (
{
closed = 1;
nodes = (
"317 0 LINE",
"356 362 LINE",
"404 0 LINE",
"570 0 LINE",
"704 700 LINE",
"510 700 LINE",
"481 353 LINE",
"426 700 LINE",
"280 700 LINE",
"241 353 LINE",
"206 700 LINE",
"8 700 LINE",
"150 0 LINE"
);
}
);
width = 712;
},
{
hints = (
{
place = "{-23.609, 0}";
}
);
layerId = "FFFA8D72-12AC-4CE0-B2CA-57A29829F4DA";
paths = (
{
closed = 1;
nodes = (
"342 0 LINE",
"400 372 LINE",
"468 0 LINE",
"655 0 LINE",
"787 700 LINE",
"599 700 LINE",
"552 348 LINE",
"497 700 LINE",
"306 700 LINE",
"259 348 LINE",
"210 700 LINE",
"12 700 LINE",
"166 0 LINE"
);
}
);
width = 799;
},
{
layerId = "DCBE1F7B-116A-43E0-B7B4-8657BA77D8B5";
paths = (
{
closed = 1;
nodes = (
"183 0 LINE",
"287 656 LINE",
"390 0 LINE",
"413 0 LINE",
"539 700 LINE",
"515 700 LINE",
"403 40 LINE",
"298 700 LINE",
"275 700 LINE",
"173 40 LINE",
"51 700 LINE",
"28 700 LINE",
"161 0 LINE"
);
}
);
width = 567;
},
{
associatedMasterId = "4E2227F3-52E4-4048-A8EE-327B486EF0A4";
layerId = "D22352A1-5D91-4C5D-8547-45DDB8692B1B";
name = "{150,3}";
paths = (
{
closed = 1;
nodes = (
"287 0 LINE",
"340 410 LINE",
"401 0 LINE",
"534 0 LINE",
"666 700 LINE",
"512 700 LINE",
"473 311 LINE",
"401 700 LINE",
"275 700 LINE",
"216 311 LINE",
"171 700 LINE",
"13 700 LINE",
"153 0 LINE"
);
}
);
width = 679;
}
);
leftKerningGroup = V;
rightKerningGroup = V;
unicode = 0057;
},
{
glyphname = X;
lastChange = "2017-03-31 04:55:46 +0000";
layers = (
{
hints = (
{
origin = "{0, 11}";
target = "{0, 0}";
},
{
origin = "{0, 2}";
target = "{0, 3}";
}
);
layerId = "262880E7-CFE1-4BDA-902E-E24798F3240A";
paths = (
{
closed = 1;
nodes = (
"57 0 LINE",
"244 330 LINE",
"430 0 LINE",
"455 0 LINE",
"254 349 LINE",
"455 700 LINE",
"430 700 LINE",
"244 369 LINE",
"57 700 LINE",
"32 700 LINE",
"233 350 LINE",
"32 0 LINE"
);
}
);
width = 487;
},
{
layerId = "4E2227F3-52E4-4048-A8EE-327B486EF0A4";
paths = (
{
closed = 1;
nodes = (
"199 0 LINE",
"248 162 LINE",
"297 0 LINE",
"487 0 LINE",
"347 350 LINE",
"487 700 LINE",
"296 700 LINE",
"248 537 LINE",
"200 700 LINE",
"8 700 LINE",
"148 350 LINE",
"8 0 LINE"
);
}
);
width = 495;
},
{
layerId = "FFFA8D72-12AC-4CE0-B2CA-57A29829F4DA";
paths = (
{
closed = 1;
nodes = (
"216 0 LINE",
"304 196 LINE",
"392 0 LINE",
"595 0 LINE",
"416 350 LINE",
"595 700 LINE",
"391 700 LINE",
"304 503 LINE",
"217 700 LINE",
"12 700 LINE",
"192 350 LINE",
"12 0 LINE"
);
}
);
width = 607;
},
{
layerId = "DCBE1F7B-116A-43E0-B7B4-8657BA77D8B5";
paths = (
{
closed = 1;
nodes = (
"53 0 LINE",
"189 330 LINE",
"324 0 LINE",
"349 0 LINE",
"199 349 LINE",
"349 700 LINE",
"324 700 LINE",
"189 369 LINE",
"53 700 LINE",
"28 700 LINE",
"177 350 LINE",
"28 0 LINE"
);
}
);
width = 377;
}
);
rightKerningGroup = X;
unicode = 0058;
},
{
glyphname = Y;
lastChange = "2017-03-31 04:55:46 +0000";
layers = (
{
anchors = (
{
name = top;
position = "{240, 699}";
}
);
hints = (
{
origin = "{0, 6}";
target = "{0, 5}";
},
{
origin = "{0, 3}";
target = "{0, 2}";
},
{
origin = "{0, 8}";
target = "{0, 0}";
}
);
layerId = "262880E7-CFE1-4BDA-902E-E24798F3240A";
paths = (
{
closed = 1;
nodes = (
"251 0 LINE",
"251 339 LINE",
"448 700 LINE",
"426 700 LINE",
"240 358 LINE",
"54 700 LINE",
"32 700 LINE",
"229 339 LINE",
"229 0 LINE"
);
}
);
width = 480;
},
{
anchors = (
{
name = top;
position = "{250, 699}";
}
);
layerId = "4E2227F3-52E4-4048-A8EE-327B486EF0A4";
paths = (
{
closed = 1;
nodes = (
"343 2 LINE",
"343 251 LINE",
"492 700 LINE",
"294 700 LINE",
"250 471 LINE",
"206 700 LINE",
"8 700 LINE",
"155 251 LINE",
"155 2 LINE"
);
}
);
width = 500;
},
{
anchors = (
{
name = top;
position = "{299, 700}";
}
);
layerId = "FFFA8D72-12AC-4CE0-B2CA-57A29829F4DA";
paths = (
{
closed = 1;
nodes = (
"392 2 LINE",
"392 251 LINE",
"587 700 LINE",
"382 700 LINE",
"299 461 LINE",
"216 700 LINE",
"12 700 LINE",
"205 251 LINE",
"205 2 LINE"
);
}
);
width = 599;
},
{
anchors = (
{
name = top;
position = "{181, 700}";
}
);
layerId = "DCBE1F7B-116A-43E0-B7B4-8657BA77D8B5";
paths = (
{
closed = 1;
nodes = (
"192 0 LINE",
"192 339 LINE",
"333 700 LINE",
"310 700 LINE",
"181 358 LINE",
"51 700 LINE",
"28 700 LINE",
"170 339 LINE",
"170 0 LINE"
);
}
);
width = 361;
}
);
leftKerningGroup = Y;
unicode = 0059;
},
{
glyphname = Z;
lastChange = "2017-03-31 04:55:46 +0000";
layers = (
{
anchors = (
{
name = top;
position = "{219, 713}";
}
);
hints = (
{
horizontal = 1;
origin = "{0, 5}";
target = "{0, 6}";
},
{
origin = "{0, 7}";
target = "{0, 3}";
},
{
horizontal = 1;
origin = "{0, 0}";
target = "{0, 1}";
},
{
origin = "{0, 8}";
target = "{0, 2}";
}
);
layerId = "262880E7-CFE1-4BDA-902E-E24798F3240A";
paths = (
{
closed = 1;
nodes = (
"418 0 LINE",
"418 21 LINE",
"57 21 LINE",
"418 679 LINE",
"418 700 LINE",
"32 700 LINE",
"32 679 LINE",
"394 679 LINE",
"32 21 LINE",
"32 0 LINE"
);
}
);
width = 458;
},
{
anchors = (
{
name = top;
position = "{206, 713}";
}
);
layerId = "4E2227F3-52E4-4048-A8EE-327B486EF0A4";
paths = (
{
closed = 1;
nodes = (
"406 0 LINE",
"406 161 LINE",
"204 161 LINE",
"406 539 LINE",
"406 700 LINE",
"8 700 LINE",
"8 539 LINE",
"208 539 LINE",
"8 161 LINE",
"8 0 LINE"
);
}
);
width = 416;
},
{
anchors = (
{
name = top;
position = "{252, 713}";
}
);
layerId = "FFFA8D72-12AC-4CE0-B2CA-57A29829F4DA";
paths = (
{
closed = 1;
nodes = (
"483 0 LINE",
"483 161 LINE",
"208 161 LINE",
"483 530 LINE",
"483 700 LINE",
"12 700 LINE",
"12 539 LINE",
"285 539 LINE",
"12 170 LINE",
"12 0 LINE"
);
}
);
width = 498;
},
{
anchors = (
{
name = top;
position = "{177, 713}";
}
);
layerId = "DCBE1F7B-116A-43E0-B7B4-8657BA77D8B5";
paths = (
{
closed = 1;
nodes = (
"320 0 LINE",
"320 21 LINE",
"53 21 LINE",
"320 679 LINE",
"320 700 LINE",
"28 700 LINE",
"28 679 LINE",
"296 679 LINE",
"28 21 LINE",
"28 0 LINE"
);
}
);
width = 355;
}
);
leftKerningGroup = Z;
rightKerningGroup = Z;
unicode = 005A;
},
{
color = 3;
glyphname = a;
lastChange = "2017-03-31 05:06:09 +0000";
layers = (
{
anchors = (
{
name = top;
position = "{243, 508}";
}
);
hints = (
{
horizontal = 1;
origin = "{2, 5}";
target = "{1, 4}";
},
{
horizontal = 1;
origin = "{1, 10}";
target = "{2, 10}";
},
{
origin = "{1, 7}";
target = "{2, 2}";
},
{
origin = "{0, 15}";
target = "{0, 0}";
},
{
horizontal = 1;
origin = "{0, 4}";
target = "{0, 11}";
},
{
origin = "{0, 7}";
target = "{0, 8}";
}
);
layerId = "262880E7-CFE1-4BDA-902E-E24798F3240A";
paths = (
{
closed = 1;
nodes = (
"405 0 LINE",
"405 342 LINE SMOOTH",
"405 442 OFFCURVE",
"356 508 OFFCURVE",
"240 508 CURVE SMOOTH",
"146 508 OFFCURVE",
"81 462 OFFCURVE",
"71 392 CURVE",
"93 388 LINE",
"100 449 OFFCURVE",
"156 487 OFFCURVE",
"237 487 CURVE SMOOTH",
"343 487 OFFCURVE",
"383 425 OFFCURVE",
"383 345 CURVE SMOOTH",
"383 0 LINE"
);
},
{
closed = 1;
nodes = (
"304 -8 OFFCURVE",
"400 37 OFFCURVE",
"400 142 CURVE",
"400 282 LINE",
"253 282 LINE",
"126 282 OFFCURVE",
"48 224 OFFCURVE",
"48 128 CURVE SMOOTH",
"48 26 OFFCURVE",
"132 -8 OFFCURVE",
"210 -8 CURVE SMOOTH"
);
},
{
closed = 1;
nodes = (
"132 13 OFFCURVE",
"70 49 OFFCURVE",
"70 129 CURVE SMOOTH",
"70 213 OFFCURVE",
"145 261 OFFCURVE",
"250 261 CURVE",
"383 261 LINE",
"383 142 LINE SMOOTH",
"383 52 OFFCURVE",
"293 13 OFFCURVE",
"209 13 CURVE SMOOTH"
);
}
);
width = 477;
},
{
anchors = (
{
name = top;
position = "{232, 528}";
}
);
layerId = "4E2227F3-52E4-4048-A8EE-327B486EF0A4";
paths = (
{
closed = 1;
nodes = (
"449 0 LINE",
"449 360 LINE SMOOTH",
"449 461 OFFCURVE",
"362 528 OFFCURVE",
"232 528 CURVE SMOOTH",
"105 528 OFFCURVE",
"17 459 OFFCURVE",
"17 341 CURVE",
"206 337 LINE",
"206 355 OFFCURVE",
"217 367 OFFCURVE",
"232 367 CURVE SMOOTH",
"249 367 OFFCURVE",
"261 355 OFFCURVE",
"261 337 CURVE SMOOTH",
"261 0 LINE"
);
},
{
closed = 1;
nodes = (
"264 -7 OFFCURVE",
"300 59 OFFCURVE",
"300 197 CURVE",
"300 313 LINE",
"221 313 LINE",
"95 313 OFFCURVE",
"12 297 OFFCURVE",
"12 151 CURVE SMOOTH",
"12 7 OFFCURVE",
"90 -9 OFFCURVE",
"159 -8 CURVE SMOOTH"
);
},
{
closed = 1;
nodes = (
"216 125 OFFCURVE",
"204 134 OFFCURVE",
"204 153 CURVE SMOOTH",
"204 170 OFFCURVE",
"216 185 OFFCURVE",
"235 185 CURVE",
"261 185 LINE",
"261 152 LINE SMOOTH",
"261 135 OFFCURVE",
"243 125 OFFCURVE",
"229 125 CURVE SMOOTH"
);
}
);
width = 467;
},
{
anchors = (
{
name = top;
position = "{240, 517}";
}
);
associatedMasterId = "4E2227F3-52E4-4048-A8EE-327B486EF0A4";
layerId = "ECDB5D87-04FB-4DD9-B431-22FBE4ECF321";
name = "{100,5}";
paths = (
{
closed = 1;
nodes = (
"446 0 LINE",
"446 348 LINE SMOOTH",
"446 446 OFFCURVE",
"360 517 OFFCURVE",
"239 517 CURVE SMOOTH",
"124 517 OFFCURVE",
"42 453 OFFCURVE",
"42 364 CURVE",
"141 357 LINE",
"141 401 OFFCURVE",
"182 431 OFFCURVE",
"240 431 CURVE SMOOTH",
"306 431 OFFCURVE",
"346 392 OFFCURVE",
"346 333 CURVE SMOOTH",
"346 0 LINE"
);
},
{
closed = 1;
nodes = (
"320 -8 OFFCURVE",
"383 51 OFFCURVE",
"383 157 CURVE",
"383 309 LINE",
"242 309 LINE",
"114 309 OFFCURVE",
"28 241 OFFCURVE",
"28 137 CURVE SMOOTH",
"28 46 OFFCURVE",
"98 -8 OFFCURVE",
"203 -8 CURVE SMOOTH"
);
},
{
closed = 1;
nodes = (
"164 78 OFFCURVE",
"128 94 OFFCURVE",
"128 141 CURVE SMOOTH",
"128 202 OFFCURVE",
"177 223 OFFCURVE",
"251 223 CURVE",
"346 223 LINE",
"346 200 LINE SMOOTH",
"346 122 OFFCURVE",
"294 78 OFFCURVE",
"217 78 CURVE SMOOTH"
);
}
);
width = 508;
},
{
anchors = (
{
name = top;
position = "{265, 528}";
}
);
layerId = "FFFA8D72-12AC-4CE0-B2CA-57A29829F4DA";
paths = (
{
closed = 1;
nodes = (
"513 0 LINE",
"513 355 LINE SMOOTH",
"513 451 OFFCURVE",
"404 528 OFFCURVE",
"265 528 CURVE SMOOTH",
"126 528 OFFCURVE",
"25 452 OFFCURVE",
"24 356 CURVE",
"212 332 LINE",
"213 352 OFFCURVE",
"236 367 OFFCURVE",
"268 367 CURVE SMOOTH",
"303 367 OFFCURVE",
"325 348 OFFCURVE",
"325 320 CURVE SMOOTH",
"325 0 LINE"
);
},
{
closed = 1;
nodes = (
"314 -8 OFFCURVE",
"359 47 OFFCURVE",
"359 182 CURVE",
"359 305 LINE",
"227 305 LINE",
"89 305 OFFCURVE",
"18 246 OFFCURVE",
"18 142 CURVE SMOOTH",
"18 39 OFFCURVE",
"87 -8 OFFCURVE",
"196 -8 CURVE SMOOTH"
);
},
{
closed = 1;
nodes = (
"222 115 OFFCURVE",
"207 127 OFFCURVE",
"207 153 CURVE SMOOTH",
"207 183 OFFCURVE",
"228 196 OFFCURVE",
"270 196 CURVE",
"325 196 LINE",
"325 180 LINE SMOOTH",
"325 138 OFFCURVE",
"294 115 OFFCURVE",
"252 115 CURVE SMOOTH"
);
}
);
width = 540;
},
{
anchors = (
{
name = top;
position = "{181, 508}";
}
);
layerId = "DCBE1F7B-116A-43E0-B7B4-8657BA77D8B5";
paths = (
{
closed = 1;
nodes = (
"316 0 LINE",
"316 342 LINE SMOOTH",
"316 442 OFFCURVE",
"271 508 OFFCURVE",
"185 508 CURVE SMOOTH",
"116 508 OFFCURVE",
"55 461 OFFCURVE",
"52 388 CURVE",
"75 385 LINE",
"75 446 OFFCURVE",
"127 487 OFFCURVE",
"184 487 CURVE SMOOTH",
"256 487 OFFCURVE",
"293 430 OFFCURVE",
"293 345 CURVE SMOOTH",
"293 0 LINE"
);
},
{
closed = 1;
nodes = (
"239 -8 OFFCURVE",
"308 37 OFFCURVE",
"308 142 CURVE",
"308 283 LINE",
"196 283 LINE SMOOTH",
"107 283 OFFCURVE",
"42 236 OFFCURVE",
"42 126 CURVE SMOOTH",
"42 18 OFFCURVE",
"106 -8 OFFCURVE",
"163 -8 CURVE SMOOTH"
);
},
{
closed = 1;
nodes = (
"109 13 OFFCURVE",
"64 45 OFFCURVE",
"64 127 CURVE SMOOTH",
"64 219 OFFCURVE",
"120 262 OFFCURVE",
"198 262 CURVE SMOOTH",
"293 262 LINE",
"293 142 LINE SMOOTH",
"293 52 OFFCURVE",
"229 13 OFFCURVE",
"166 13 CURVE SMOOTH"
);
}
);
width = 379;
},
{
anchors = (
{
name = top;
position = "{201, 517}";
}
);
associatedMasterId = "4E2227F3-52E4-4048-A8EE-327B486EF0A4";
layerId = "FAF4597E-2DB2-4F36-AC5C-F274557DEF62";
name = "{100,3}";
paths = (
{
closed = 1;
nodes = (
"373 0 LINE",
"373 350 LINE SMOOTH",
"373 451 OFFCURVE",
"305 517 OFFCURVE",
"201 517 CURVE SMOOTH",
"100 517 OFFCURVE",
"29 455 OFFCURVE",
"28 374 CURVE",
"129 366 LINE",
"130 405 OFFCURVE",
"161 431 OFFCURVE",
"199 431 CURVE SMOOTH",
"245 431 OFFCURVE",
"273 395 OFFCURVE",
"273 341 CURVE SMOOTH",
"273 0 LINE"
);
},
{
closed = 1;
nodes = (
"260 -8 OFFCURVE",
"309 42 OFFCURVE",
"309 177 CURVE",
"309 299 LINE",
"213 299 LINE SMOOTH",
"108 299 OFFCURVE",
"23 265 OFFCURVE",
"23 146 CURVE SMOOTH",
"23 18 OFFCURVE",
"121 -8 OFFCURVE",
"180 -8 CURVE SMOOTH"
);
},
{
closed = 1;
nodes = (
"151 79 OFFCURVE",
"124 100 OFFCURVE",
"124 144 CURVE SMOOTH",
"124 189 OFFCURVE",
"160 215 OFFCURVE",
"210 215 CURVE SMOOTH",
"273 215 LINE",
"273 161 LINE SMOOTH",
"273 107 OFFCURVE",
"230 79 OFFCURVE",
"189 79 CURVE SMOOTH"
);
}
);
width = 425;
}
);
leftKerningGroup = a;
rightKerningGroup = b;
unicode = 0061;
},
{
glyphname = b;
lastChange = "2017-03-31 05:06:31 +0000";
layers = (
{
components = (
{
name = b.bowl;
transform = "{1, 0, 0, 1, 98, 0}";
}
);
hints = (
{
origin = "{0, 2}";
target = "{0, 1}";
}
);
layerId = "262880E7-CFE1-4BDA-902E-E24798F3240A";
paths = (
{
closed = 1;
nodes = (
"118 0 LINE",
"118 700 LINE",
"96 700 LINE",
"96 0 LINE"
);
}
);
width = 519;
},
{
components = (
{
name = b.bowl;
transform = "{1, 0, 0, 1, 178, 0}";
}
);
layerId = "4E2227F3-52E4-4048-A8EE-327B486EF0A4";
paths = (
{
closed = 1;
nodes = (
"212 0 LINE",
"212 700 LINE",
"24 700 LINE",
"24 0 LINE"
);
}
);
width = 463;
},
{
components = (
{
name = b.bowl;
transform = "{1, 0, 0, 1, 165, 0}";
}
);
layerId = "FFFA8D72-12AC-4CE0-B2CA-57A29829F4DA";
paths = (
{
closed = 1;
nodes = (
"224 0 LINE",
"224 700 LINE",
"36 700 LINE",
"36 0 LINE"
);
}
);
width = 552;
},
{
components = (
{
name = b.bowl;
transform = "{1, 0, 0, 1, 91, 0}";
}
);
layerId = "DCBE1F7B-116A-43E0-B7B4-8657BA77D8B5";
paths = (
{
closed = 1;
nodes = (
"106 0 LINE",
"106 700 LINE",
"84 700 LINE",
"84 0 LINE"
);
}
);
width = 414;
},
{
associatedMasterId = "4E2227F3-52E4-4048-A8EE-327B486EF0A4";
components = (
{
name = b.bowl;
transform = "{1, 0, 0, 1, 170, 0}";
}
);
layerId = "AEAAB38B-CBBB-4137-95BA-ED9BF5F9A87D";
name = "{188,4}";
paths = (
{
closed = 1;
nodes = (
"216 0 LINE",
"216 700 LINE",
"28 700 LINE",
"28 0 LINE"
);
}
);
width = 459;
}
);
leftKerningGroup = b;
rightKerningGroup = n;
unicode = 0062;
},
{
color = 3;
glyphname = c;
lastChange = "2017-03-31 05:06:09 +0000";
layers = (
{
anchors = (
{
name = top;
position = "{249, 508}";
}
);
hints = (
{
origin = "{0, 43}";
target = "{0, 18}";
},
{
horizontal = 1;
origin = "{0, 49}";
target = "{0, 12}";
},
{
horizontal = 1;
origin = "{0, 37}";
target = "{0, 24}";
},
{
origin = "{0, 30}";
target = "{0, 31}";
}
);
layerId = "262880E7-CFE1-4BDA-902E-E24798F3240A";
paths = (
{
closed = 1;
nodes = (
"339 -8 OFFCURVE",
"408 45 OFFCURVE",
"422 113 CURVE SMOOTH",
"424 124 OFFCURVE",
"424 129 OFFCURVE",
"425 137 CURVE",
"404 139 LINE",
"402 131 OFFCURVE",
"403 131 OFFCURVE",
"402 125 CURVE SMOOTH",
"391 64 OFFCURVE",
"331 13 OFFCURVE",
"249 13 CURVE SMOOTH",
"167 13 OFFCURVE",
"111 63 OFFCURVE",
"98 135 CURVE SMOOTH",
"94 156 OFFCURVE",
"94 193 OFFCURVE",
"94 250 CURVE SMOOTH",
"94 302 OFFCURVE",
"94 343 OFFCURVE",
"98 365 CURVE SMOOTH",
"111 436 OFFCURVE",
"167 487 OFFCURVE",
"249 487 CURVE SMOOTH",
"331 487 OFFCURVE",
"390 436 OFFCURVE",
"402 375 CURVE SMOOTH",
"403 369 OFFCURVE",
"404 361 OFFCURVE",
"405 352 CURVE",
"427 353 LINE",
"426 363 OFFCURVE",
"424 376 OFFCURVE",
"422 387 CURVE SMOOTH",
"409 455 OFFCURVE",
"339 508 OFFCURVE",
"249 508 CURVE SMOOTH",
"160 508 OFFCURVE",
"96 454 OFFCURVE",
"79 377 CURVE SMOOTH",
"71 345 OFFCURVE",
"72 310 OFFCURVE",
"72 251 CURVE SMOOTH",
"72 195 OFFCURVE",
"71 156 OFFCURVE",
"79 123 CURVE SMOOTH",
"97 46 OFFCURVE",
"160 -8 OFFCURVE",
"249 -8 CURVE SMOOTH"
);
}
);
width = 491;
},
{
anchors = (
{
name = top;
position = "{229, 532}";
}
);
layerId = "4E2227F3-52E4-4048-A8EE-327B486EF0A4";
paths = (
{
closed = 1;
nodes = (
"363 -8 OFFCURVE",
"439 57 OFFCURVE",
"439 170 CURVE SMOOTH",
"439 181 OFFCURVE",
"439 197 OFFCURVE",
"439 213 CURVE",
"251 215 LINE",
"251 205 OFFCURVE",
"251 195 OFFCURVE",
"251 185 CURVE SMOOTH",
"251 166 OFFCURVE",
"242 153 OFFCURVE",
"229 153 CURVE SMOOTH",
"215 153 OFFCURVE",
"206 166 OFFCURVE",
"206 185 CURVE SMOOTH",
"206 210 OFFCURVE",
"206 235 OFFCURVE",
"206 260 CURVE SMOOTH",
"206 285 OFFCURVE",
"206 310 OFFCURVE",
"206 335 CURVE SMOOTH",
"206 354 OFFCURVE",
"215 367 OFFCURVE",
"229 367 CURVE SMOOTH",
"242 367 OFFCURVE",
"251 354 OFFCURVE",
"251 335 CURVE SMOOTH",
"251 325 OFFCURVE",
"251 316 OFFCURVE",
"251 306 CURVE",
"439 313 LINE",
"439 327 OFFCURVE",
"439 340 OFFCURVE",
"439 350 CURVE SMOOTH",
"439 456 OFFCURVE",
"363 528 OFFCURVE",
"229 528 CURVE SMOOTH",
"95 528 OFFCURVE",
"18 456 OFFCURVE",
"18 350 CURVE SMOOTH",
"18 327 OFFCURVE",
"18 283 OFFCURVE",
"18 260 CURVE SMOOTH",
"18 237 OFFCURVE",
"18 193 OFFCURVE",
"18 170 CURVE SMOOTH",
"18 57 OFFCURVE",
"95 -8 OFFCURVE",
"229 -8 CURVE SMOOTH"
);
}
);
width = 455;
},
{
anchors = (
{
name = top;
position = "{282, 528}";
}
);
layerId = "FFFA8D72-12AC-4CE0-B2CA-57A29829F4DA";
paths = (
{
closed = 1;
nodes = (
"391 -8 OFFCURVE",
"485 46 OFFCURVE",
"521 144 CURVE SMOOTH",
"528 164 OFFCURVE",
"529 185 OFFCURVE",
"529 189 CURVE",
"344 219 LINE",
"343 208 OFFCURVE",
"342 202 OFFCURVE",
"341 199 CURVE SMOOTH",
"331 167 OFFCURVE",
"308 153 OFFCURVE",
"284 153 CURVE SMOOTH",
"259 153 OFFCURVE",
"236 169 OFFCURVE",
"227 193 CURVE SMOOTH",
"220 211 OFFCURVE",
"217 234 OFFCURVE",
"217 262 CURVE SMOOTH",
"217 288 OFFCURVE",
"220 310 OFFCURVE",
"227 327 CURVE SMOOTH",
"237 351 OFFCURVE",
"260 367 OFFCURVE",
"284 367 CURVE SMOOTH",
"311 367 OFFCURVE",
"334 349 OFFCURVE",
"341 327 CURVE SMOOTH",
"344 318 OFFCURVE",
"346 305 OFFCURVE",
"347 298 CURVE",
"531 327 LINE",
"531 329 OFFCURVE",
"532 349 OFFCURVE",
"521 379 CURVE SMOOTH",
"491 462 OFFCURVE",
"399 528 OFFCURVE",
"285 528 CURVE SMOOTH",
"175 528 OFFCURVE",
"84 471 OFFCURVE",
"47 376 CURVE SMOOTH",
"36 348 OFFCURVE",
"27 310 OFFCURVE",
"27 263 CURVE SMOOTH",
"27 225 OFFCURVE",
"33 185 OFFCURVE",
"47 149 CURVE SMOOTH",
"85 51 OFFCURVE",
"174 -8 OFFCURVE",
"285 -8 CURVE SMOOTH"
);
}
);
width = 555;
},
{
anchors = (
{
name = top;
position = "{197, 508}";
}
);
layerId = "DCBE1F7B-116A-43E0-B7B4-8657BA77D8B5";
paths = (
{
closed = 1;
nodes = (
"277 -8 OFFCURVE",
"332 52 OFFCURVE",
"332 115 CURVE SMOOTH",
"332 117 OFFCURVE",
"332 125 OFFCURVE",
"332 127 CURVE",
"310 127 LINE",
"310 125 OFFCURVE",
"310 117 OFFCURVE",
"310 115 CURVE SMOOTH",
"310 63 OFFCURVE",
"264 13 OFFCURVE",
"197 13 CURVE SMOOTH",
"131 13 OFFCURVE",
"85 63 OFFCURVE",
"85 135 CURVE SMOOTH",
"85 173 OFFCURVE",
"85 212 OFFCURVE",
"85 250 CURVE SMOOTH",
"85 288 OFFCURVE",
"85 327 OFFCURVE",
"85 365 CURVE SMOOTH",
"85 437 OFFCURVE",
"131 487 OFFCURVE",
"197 487 CURVE SMOOTH",
"264 487 OFFCURVE",
"310 437 OFFCURVE",
"310 385 CURVE SMOOTH",
"310 383 OFFCURVE",
"310 375 OFFCURVE",
"310 373 CURVE",
"332 373 LINE",
"332 374 OFFCURVE",
"332 384 OFFCURVE",
"332 385 CURVE SMOOTH",
"332 448 OFFCURVE",
"277 508 OFFCURVE",
"197 508 CURVE SMOOTH",
"118 508 OFFCURVE",
"63 448 OFFCURVE",
"63 365 CURVE SMOOTH",
"63 327 OFFCURVE",
"63 288 OFFCURVE",
"63 250 CURVE SMOOTH",
"63 212 OFFCURVE",
"63 173 OFFCURVE",
"63 135 CURVE SMOOTH",
"63 52 OFFCURVE",
"118 -8 OFFCURVE",
"197 -8 CURVE SMOOTH"
);
}
);
width = 388;
},
{
anchors = (
{
name = top;
position = "{260, 528}";
}
);
associatedMasterId = "FFFA8D72-12AC-4CE0-B2CA-57A29829F4DA";
layerId = "0E7C393E-0635-473F-B31A-CAEFC4379571";
name = "Feb 24 17, 16:06";
paths = (
{
closed = 1;
nodes = (
"372 -8 OFFCURVE",
"454 49 OFFCURVE",
"490 144 CURVE SMOOTH",
"497 163 OFFCURVE",
"502 183 OFFCURVE",
"505 204 CURVE",
"319 219 LINE",
"317 206 OFFCURVE",
"314 195 OFFCURVE",
"310 185 CURVE SMOOTH",
"302 165 OFFCURVE",
"285 153 OFFCURVE",
"260 153 CURVE SMOOTH",
"235 153 OFFCURVE",
"219 165 OFFCURVE",
"210 185 CURVE SMOOTH",
"201 205 OFFCURVE",
"198 232 OFFCURVE",
"198 262 CURVE SMOOTH",
"198 298 OFFCURVE",
"200 316 OFFCURVE",
"210 336 CURVE SMOOTH",
"220 355 OFFCURVE",
"235 367 OFFCURVE",
"260 367 CURVE SMOOTH",
"285 367 OFFCURVE",
"300 355 OFFCURVE",
"310 336 CURVE SMOOTH",
"316 324 OFFCURVE",
"319 309 OFFCURVE",
"321 295 CURVE",
"507 315 LINE",
"503 338 OFFCURVE",
"498 360 OFFCURVE",
"490 381 CURVE SMOOTH",
"454 476 OFFCURVE",
"372 528 OFFCURVE",
"260 528 CURVE SMOOTH",
"148 528 OFFCURVE",
"66 476 OFFCURVE",
"30 381 CURVE SMOOTH",
"17 346 OFFCURVE",
"10 307 OFFCURVE",
"10 263 CURVE SMOOTH",
"10 219 OFFCURVE",
"17 179 OFFCURVE",
"30 144 CURVE SMOOTH",
"66 49 OFFCURVE",
"148 -8 OFFCURVE",
"260 -8 CURVE SMOOTH"
);
}
);
width = 515;
visible = 1;
},
{
anchors = (
{
name = top;
position = "{223, 532}";
}
);
associatedMasterId = "4E2227F3-52E4-4048-A8EE-327B486EF0A4";
layerId = "A66C9DAC-E233-43FD-8EF1-F60ACA1546F6";
name = "Mar 6 17, 05:00";
paths = (
{
closed = 1;
nodes = (
"359 -8 OFFCURVE",
"435 57 OFFCURVE",
"435 170 CURVE SMOOTH",
"435 180 OFFCURVE",
"435 194 OFFCURVE",
"435 209 CURVE",
"247 214 LINE",
"246 184 OFFCURVE",
"245 171 OFFCURVE",
"241 163 CURVE SMOOTH",
"238 157 OFFCURVE",
"231 153 OFFCURVE",
"223 153 CURVE SMOOTH",
"215 153 OFFCURVE",
"207 157 OFFCURVE",
"204 163 CURVE SMOOTH",
"198 174 OFFCURVE",
"198 194 OFFCURVE",
"198 260 CURVE SMOOTH",
"198 332 OFFCURVE",
"197 348 OFFCURVE",
"204 360 CURVE SMOOTH",
"208 366 OFFCURVE",
"214 371 OFFCURVE",
"223 371 CURVE SMOOTH",
"231 371 OFFCURVE",
"238 366 OFFCURVE",
"241 360 CURVE SMOOTH",
"245 351 OFFCURVE",
"247 340 OFFCURVE",
"247 305 CURVE",
"435 311 LINE",
"435 326 OFFCURVE",
"435 340 OFFCURVE",
"435 350 CURVE SMOOTH",
"435 456 OFFCURVE",
"359 532 OFFCURVE",
"223 532 CURVE SMOOTH",
"87 532 OFFCURVE",
"10 456 OFFCURVE",
"10 350 CURVE SMOOTH",
"10 327 OFFCURVE",
"10 283 OFFCURVE",
"10 260 CURVE SMOOTH",
"10 237 OFFCURVE",
"10 193 OFFCURVE",
"10 170 CURVE SMOOTH",
"10 57 OFFCURVE",
"87 -8 OFFCURVE",
"223 -8 CURVE SMOOTH"
);
}
);
width = 443;
},
{
anchors = (
{
name = top;
position = "{259, 517}";
}
);
associatedMasterId = "FFFA8D72-12AC-4CE0-B2CA-57A29829F4DA";
hints = (
{
origin = "{0, 43}";
target = "{0, 18}";
},
{
horizontal = 1;
origin = "{0, 49}";
target = "{0, 12}";
},
{
horizontal = 1;
origin = "{0, 37}";
target = "{0, 24}";
},
{
origin = "{0, 30}";
target = "{0, 31}";
}
);
layerId = "61FC974D-32B2-4EBB-9AC3-8FEB0E22D734";
name = "{100,5}";
paths = (
{
closed = 1;
nodes = (
"361 -8 OFFCURVE",
"437 42 OFFCURVE",
"461 127 CURVE SMOOTH",
"462 131 OFFCURVE",
"464 141 OFFCURVE",
"467 152 CURVE",
"369 169 LINE",
"368 166 OFFCURVE",
"367 161 OFFCURVE",
"366 157 CURVE SMOOTH",
"350 107 OFFCURVE",
"309 78 OFFCURVE",
"257 78 CURVE SMOOTH",
"210 78 OFFCURVE",
"173 108 OFFCURVE",
"158 159 CURVE SMOOTH",
"150 188 OFFCURVE",
"145 223 OFFCURVE",
"145 255 CURVE SMOOTH",
"145 288 OFFCURVE",
"150 323 OFFCURVE",
"158 349 CURVE SMOOTH",
"174 401 OFFCURVE",
"211 431 OFFCURVE",
"259 431 CURVE SMOOTH",
"310 431 OFFCURVE",
"349 402 OFFCURVE",
"366 353 CURVE SMOOTH",
"367 350 OFFCURVE",
"369 343 OFFCURVE",
"370 334 CURVE",
"468 350 LINE",
"464 369 OFFCURVE",
"462 381 OFFCURVE",
"461 383 CURVE SMOOTH",
"434 467 OFFCURVE",
"358 517 OFFCURVE",
"257 517 CURVE SMOOTH",
"164 517 OFFCURVE",
"92 466 OFFCURVE",
"63 378 CURVE SMOOTH",
"52 344 OFFCURVE",
"45 299 OFFCURVE",
"45 256 CURVE SMOOTH",
"45 214 OFFCURVE",
"52 169 OFFCURVE",
"63 134 CURVE SMOOTH",
"92 45 OFFCURVE",
"164 -8 OFFCURVE",
"256 -8 CURVE SMOOTH"
);
}
);
width = 508;
},
{
anchors = (
{
name = top;
position = "{253, 530}";
}
);
associatedMasterId = "4E2227F3-52E4-4048-A8EE-327B486EF0A4";
layerId = "A708B374-6D5B-4775-AA6A-F8146B244141";
name = "{188,4}";
paths = (
{
closed = 1;
nodes = (
"374 -8 OFFCURVE",
"459 52 OFFCURVE",
"477 157 CURVE SMOOTH",
"481 173 OFFCURVE",
"481 191 OFFCURVE",
"481 201 CURVE",
"295 217 LINE",
"294 203 OFFCURVE",
"292 189 OFFCURVE",
"288 177 CURVE SMOOTH",
"283 163 OFFCURVE",
"273 153 OFFCURVE",
"254 153 CURVE SMOOTH",
"231 153 OFFCURVE",
"220 167 OFFCURVE",
"214 189 CURVE SMOOTH",
"209 209 OFFCURVE",
"209 235 OFFCURVE",
"209 261 CURVE SMOOTH",
"209 287 OFFCURVE",
"210 310 OFFCURVE",
"214 331 CURVE SMOOTH",
"219 353 OFFCURVE",
"235 367 OFFCURVE",
"254 367 CURVE SMOOTH",
"275 367 OFFCURVE",
"287 354 OFFCURVE",
"293 332 CURVE SMOOTH",
"295 323 OFFCURVE",
"296 313 OFFCURVE",
"296 302 CURVE",
"482 320 LINE",
"482 328 OFFCURVE",
"483 345 OFFCURVE",
"477 365 CURVE SMOOTH",
"462 459 OFFCURVE",
"378 528 OFFCURVE",
"254 528 CURVE SMOOTH",
"132 528 OFFCURVE",
"48 464 OFFCURVE",
"30 363 CURVE SMOOTH",
"24 338 OFFCURVE",
"20 297 OFFCURVE",
"20 262 CURVE SMOOTH",
"20 231 OFFCURVE",
"23 189 OFFCURVE",
"30 160 CURVE SMOOTH",
"49 54 OFFCURVE",
"132 -8 OFFCURVE",
"254 -8 CURVE SMOOTH"
);
}
);
width = 499;
}
);
leftKerningGroup = o;
rightKerningGroup = c;
unicode = 0063;
},
{
color = 3;
glyphname = e;
lastChange = "2017-03-31 05:06:09 +0000";
layers = (
{
anchors = (
{
name = top;
position = "{249, 508}";
}
);
hints = (
{
origin = "{0, 40}";
target = "{0, 12}";
},
{
origin = "{0, 24}";
target = "{0, 28}";
},
{
horizontal = 1;
origin = "{0, 28}";
target = "{0, 24}";
},
{
horizontal = 1;
origin = "{0, 34}";
target = "{0, 18}";
},
{
horizontal = 1;
origin = "{0, 46}";
target = "{0, 6}";
},
{
origin = "{0, 3}";
target = "{0, 2}";
}
);
layerId = "262880E7-CFE1-4BDA-902E-E24798F3240A";
paths = (
{
closed = 1;
nodes = (
"337 -8 OFFCURVE",
"401 44 OFFCURVE",
"420 118 CURVE",
"398 117 LINE",
"380 56 OFFCURVE",
"325 13 OFFCURVE",
"249 13 CURVE SMOOTH",
"167 13 OFFCURVE",
"111 63 OFFCURVE",
"98 135 CURVE SMOOTH",
"94 156 OFFCURVE",
"94 193 OFFCURVE",
"94 250 CURVE SMOOTH",
"94 302 OFFCURVE",
"94 343 OFFCURVE",
"98 365 CURVE SMOOTH",
"111 436 OFFCURVE",
"167 487 OFFCURVE",
"249 487 CURVE SMOOTH",
"331 487 OFFCURVE",
"388 436 OFFCURVE",
"402 365 CURVE SMOOTH",
"405 345 OFFCURVE",
"406 302 OFFCURVE",
"406 258 CURVE",
"415 267 LINE",
"84 267 LINE",
"84 249 LINE",
"428 249 LINE",
"428 335 OFFCURVE",
"428 350 OFFCURVE",
"422 377 CURVE SMOOTH",
"404 454 OFFCURVE",
"339 508 OFFCURVE",
"249 508 CURVE SMOOTH",
"160 508 OFFCURVE",
"96 454 OFFCURVE",
"79 377 CURVE SMOOTH",
"71 345 OFFCURVE",
"72 310 OFFCURVE",
"72 251 CURVE SMOOTH",
"72 195 OFFCURVE",
"71 156 OFFCURVE",
"79 123 CURVE SMOOTH",
"97 46 OFFCURVE",
"160 -8 OFFCURVE",
"249 -8 CURVE SMOOTH"
);
}
);
width = 500;
},
{
anchors = (
{
name = top;
position = "{280, 528}";
}
);
guideLines = (
{
position = "{281, 327}";
},
{
position = "{283, 263}";
},
{
position = "{281, 193}";
}
);
layerId = "FFFA8D72-12AC-4CE0-B2CA-57A29829F4DA";
paths = (
{
closed = 1;
nodes = (
"388 -8 OFFCURVE",
"458 23 OFFCURVE",
"513 81 CURVE",
"426 187 LINE",
"405 162 OFFCURVE",
"366 149 OFFCURVE",
"320 149 CURVE SMOOTH",
"268 149 OFFCURVE",
"240 162 OFFCURVE",
"227 193 CURVE SMOOTH",
"219 210 OFFCURVE",
"216 233 OFFCURVE",
"216 262 CURVE SMOOTH",
"216 286 OFFCURVE",
"220 309 OFFCURVE",
"227 327 CURVE SMOOTH",
"237 351 OFFCURVE",
"255 367 OFFCURVE",
"282 367 CURVE SMOOTH",
"310 367 OFFCURVE",
"328 351 OFFCURVE",
"338 327 CURVE SMOOTH",
"345 310 OFFCURVE",
"348 287 OFFCURVE",
"348 262 CURVE",
"419 305 LINE",
"162 305 LINE",
"162 213 LINE",
"537 213 LINE",
"537 298 OFFCURVE",
"529 343 OFFCURVE",
"518 373 CURVE SMOOTH",
"485 462 OFFCURVE",
"394 528 OFFCURVE",
"280 528 CURVE SMOOTH",
"174 528 OFFCURVE",
"84 471 OFFCURVE",
"47 375 CURVE SMOOTH",
"33 339 OFFCURVE",
"27 300 OFFCURVE",
"27 262 CURVE SMOOTH",
"27 219 OFFCURVE",
"35 181 OFFCURVE",
"47 149 CURVE SMOOTH",
"85 48 OFFCURVE",
"169 -8 OFFCURVE",
"295 -8 CURVE SMOOTH"
);
}
);
width = 564;
},
{
anchors = (
{
name = top;
position = "{229, 528}";
}
);
layerId = "4E2227F3-52E4-4048-A8EE-327B486EF0A4";
paths = (
{
closed = 1;
nodes = (
"370 -8 OFFCURVE",
"435 60 OFFCURVE",
"437 181 CURVE",
"254 192 LINE",
"254 176 OFFCURVE",
"248 153 OFFCURVE",
"229 153 CURVE SMOOTH",
"215 153 OFFCURVE",
"206 166 OFFCURVE",
"206 185 CURVE SMOOTH",
"206 210 OFFCURVE",
"206 235 OFFCURVE",
"206 260 CURVE SMOOTH",
"206 285 OFFCURVE",
"206 310 OFFCURVE",
"206 335 CURVE SMOOTH",
"206 354 OFFCURVE",
"215 367 OFFCURVE",
"229 367 CURVE SMOOTH",
"242 367 OFFCURVE",
"251 354 OFFCURVE",
"251 335 CURVE SMOOTH",
"251 316 OFFCURVE",
"251 298 OFFCURVE",
"251 279 CURVE",
"314 305 LINE",
"156 305 LINE",
"156 213 LINE",
"439 213 LINE",
"439 221 OFFCURVE",
"439 291 OFFCURVE",
"439 350 CURVE SMOOTH",
"439 456 OFFCURVE",
"363 528 OFFCURVE",
"229 528 CURVE SMOOTH",
"95 528 OFFCURVE",
"18 456 OFFCURVE",
"18 350 CURVE SMOOTH",
"18 327 OFFCURVE",
"18 283 OFFCURVE",
"18 260 CURVE SMOOTH",
"18 230 OFFCURVE",
"18 200 OFFCURVE",
"18 170 CURVE SMOOTH",
"18 57 OFFCURVE",
"95 -8 OFFCURVE",
"229 -8 CURVE SMOOTH"
);
}
);
width = 457;
},
{
anchors = (
{
name = top;
position = "{197, 508}";
}
);
layerId = "DCBE1F7B-116A-43E0-B7B4-8657BA77D8B5";
paths = (
{
closed = 1;
nodes = (
"268 -8 OFFCURVE",
"320 40 OFFCURVE",
"330 109 CURVE",
"308 108 LINE",
"298 51 OFFCURVE",
"255 13 OFFCURVE",
"197 13 CURVE SMOOTH",
"131 13 OFFCURVE",
"85 63 OFFCURVE",
"85 135 CURVE SMOOTH",
"85 173 OFFCURVE",
"85 212 OFFCURVE",
"85 250 CURVE SMOOTH",
"85 288 OFFCURVE",
"85 327 OFFCURVE",
"85 365 CURVE SMOOTH",
"85 437 OFFCURVE",
"131 487 OFFCURVE",
"197 487 CURVE SMOOTH",
"264 487 OFFCURVE",
"310 437 OFFCURVE",
"310 365 CURVE SMOOTH",
"310 327 OFFCURVE",
"310 288 OFFCURVE",
"310 261 CURVE",
"319 267 LINE",
"77 267 LINE",
"77 249 LINE",
"332 249 LINE",
"332 289 OFFCURVE",
"332 327 OFFCURVE",
"332 365 CURVE SMOOTH",
"332 448 OFFCURVE",
"277 508 OFFCURVE",
"197 508 CURVE SMOOTH",
"118 508 OFFCURVE",
"63 448 OFFCURVE",
"63 365 CURVE SMOOTH",
"63 327 OFFCURVE",
"63 288 OFFCURVE",
"63 250 CURVE SMOOTH",
"63 212 OFFCURVE",
"63 173 OFFCURVE",
"63 135 CURVE SMOOTH",
"63 52 OFFCURVE",
"118 -8 OFFCURVE",
"197 -8 CURVE SMOOTH"
);
}
);
width = 395;
},
{
anchors = (
{
name = top;
position = "{252, 528}";
}
);
associatedMasterId = "FFFA8D72-12AC-4CE0-B2CA-57A29829F4DA";
layerId = "C523A904-EA06-4FAF-AEC3-0CFA5C7EE4AC";
name = "Feb 19 17, 20:25";
paths = (
{
closed = 1;
nodes = (
"389 -7 OFFCURVE",
"479 61 OFFCURVE",
"485 162 CURVE",
"305 185 LINE",
"304 166 OFFCURVE",
"285 154 OFFCURVE",
"257 154 CURVE SMOOTH",
"222 154 OFFCURVE",
"198 188 OFFCURVE",
"198 239 CURVE SMOOTH",
"198 271 LINE SMOOTH",
"198 329 OFFCURVE",
"221 367 OFFCURVE",
"256 367 CURVE SMOOTH",
"289 367 OFFCURVE",
"311 338 OFFCURVE",
"311 294 CURVE",
"311 310 LINE",
"126 310 LINE",
"126 206 LINE",
"499 206 LINE",
"499 267 LINE SMOOTH",
"499 424 OFFCURVE",
"401 528 OFFCURVE",
"253 528 CURVE SMOOTH",
"107 528 OFFCURVE",
"10 428 OFFCURVE",
"10 277 CURVE SMOOTH",
"10 249 LINE SMOOTH",
"10 95 OFFCURVE",
"110 -7 OFFCURVE",
"259 -7 CURVE SMOOTH"
);
}
);
width = 509;
},
{
anchors = (
{
name = top;
position = "{226, 498}";
}
);
associatedMasterId = "262880E7-CFE1-4BDA-902E-E24798F3240A";
layerId = "2EFA006A-DDA3-4D17-BF31-C40C040EE571";
name = "Feb 24 17, 00:11";
paths = (
{
closed = 1;
nodes = (
"307 -8 OFFCURVE",
"370 42 OFFCURVE",
"385 116 CURVE",
"364 115 LINE",
"348 54 OFFCURVE",
"293 13 OFFCURVE",
"227 13 CURVE SMOOTH",
"137 13 OFFCURVE",
"77 81 OFFCURVE",
"77 182 CURVE SMOOTH",
"77 318 LINE SMOOTH",
"77 419 OFFCURVE",
"137 487 OFFCURVE",
"226 487 CURVE SMOOTH",
"316 487 OFFCURVE",
"376 419 OFFCURVE",
"376 318 CURVE SMOOTH",
"376 267 LINE",
"67 267 LINE",
"67 246 LINE",
"398 246 LINE",
"398 316 LINE SMOOTH",
"398 431 OFFCURVE",
"329 508 OFFCURVE",
"226 508 CURVE SMOOTH",
"123 508 OFFCURVE",
"55 432 OFFCURVE",
"55 317 CURVE SMOOTH",
"55 183 LINE SMOOTH",
"55 68 OFFCURVE",
"124 -8 OFFCURVE",
"227 -8 CURVE SMOOTH"
);
}
);
width = 453;
},
{
anchors = (
{
name = top;
position = "{252, 528}";
}
);
associatedMasterId = "FFFA8D72-12AC-4CE0-B2CA-57A29829F4DA";
layerId = "FDC1E1ED-A095-4F4A-B02A-1ACC860B025E";
name = "Feb 24 17, 00:13";
paths = (
{
closed = 1;
nodes = (
"390 -7 OFFCURVE",
"474 57 OFFCURVE",
"501 173 CURVE",
"313 194 LINE",
"304 168 OFFCURVE",
"287 154 OFFCURVE",
"260 154 CURVE SMOOTH",
"216 154 OFFCURVE",
"198 193 OFFCURVE",
"198 263 CURVE SMOOTH",
"198 263 LINE SMOOTH",
"198 328 OFFCURVE",
"216 367 OFFCURVE",
"260 367 CURVE SMOOTH",
"303 367 OFFCURVE",
"321 330 OFFCURVE",
"322 269 CURVE",
"322 306 LINE",
"162 306 LINE",
"162 219 LINE",
"510 219 LINE",
"510 263 LINE SMOOTH",
"510 435 OFFCURVE",
"420 528 OFFCURVE",
"260 528 CURVE SMOOTH",
"100 528 OFFCURVE",
"10 435 OFFCURVE",
"10 263 CURVE SMOOTH",
"10 263 LINE SMOOTH",
"10 90 OFFCURVE",
"100 -7 OFFCURVE",
"260 -7 CURVE SMOOTH"
);
}
);
width = 520;
},
{
anchors = (
{
name = top;
position = "{260, 528}";
}
);
associatedMasterId = "FFFA8D72-12AC-4CE0-B2CA-57A29829F4DA";
layerId = "5A86ED49-1A07-4A08-ACBE-BDE77E6ADA45";
name = "Feb 24 17, 00:19";
paths = (
{
closed = 1;
nodes = (
"510 219 LINE",
"510 284 OFFCURVE",
"510 327 OFFCURVE",
"490 381 CURVE SMOOTH",
"454 476 OFFCURVE",
"372 528 OFFCURVE",
"260 528 CURVE SMOOTH",
"148 528 OFFCURVE",
"66 476 OFFCURVE",
"30 381 CURVE SMOOTH",
"17 346 OFFCURVE",
"10 307 OFFCURVE",
"10 263 CURVE SMOOTH",
"10 219 OFFCURVE",
"17 179 OFFCURVE",
"30 144 CURVE SMOOTH",
"66 49 OFFCURVE",
"148 -8 OFFCURVE",
"260 -8 CURVE SMOOTH",
"384 -8 OFFCURVE",
"454 48 OFFCURVE",
"499 172 CURVE",
"313 193 LINE",
"302 168 OFFCURVE",
"289 154 OFFCURVE",
"260 154 CURVE SMOOTH",
"235 154 OFFCURVE",
"219 166 OFFCURVE",
"210 186 CURVE SMOOTH",
"201 206 OFFCURVE",
"198 233 OFFCURVE",
"198 263 CURVE SMOOTH",
"198 302 OFFCURVE",
"200 320 OFFCURVE",
"210 340 CURVE SMOOTH",
"220 359 OFFCURVE",
"235 371 OFFCURVE",
"260 371 CURVE SMOOTH",
"285 371 OFFCURVE",
"300 359 OFFCURVE",
"310 340 CURVE SMOOTH",
"316 328 OFFCURVE",
"319 313 OFFCURVE",
"321 296 CURVE",
"194 296 LINE",
"194 219 LINE"
);
}
);
width = 520;
},
{
anchors = (
{
name = top;
position = "{223, 528}";
}
);
associatedMasterId = "4E2227F3-52E4-4048-A8EE-327B486EF0A4";
layerId = "1607DCD5-9BA9-4F8D-B5DF-80154018F12C";
name = "Feb 24 17, 00:20";
paths = (
{
closed = 1;
nodes = (
"358 -7 OFFCURVE",
"429 67 OFFCURVE",
"428 181 CURVE",
"247 193 LINE",
"246 168 OFFCURVE",
"238 154 OFFCURVE",
"224 154 CURVE SMOOTH",
"207 154 OFFCURVE",
"198 168 OFFCURVE",
"198 193 CURVE SMOOTH",
"198 332 LINE SMOOTH",
"198 354 OFFCURVE",
"207 367 OFFCURVE",
"223 367 CURVE SMOOTH",
"238 367 OFFCURVE",
"247 354 OFFCURVE",
"247 332 CURVE SMOOTH",
"247 303 LINE",
"126 303 LINE",
"126 215 LINE",
"435 215 LINE",
"435 331 LINE SMOOTH",
"435 457 OFFCURVE",
"359 528 OFFCURVE",
"223 528 CURVE SMOOTH",
"87 528 OFFCURVE",
"10 457 OFFCURVE",
"10 331 CURVE SMOOTH",
"10 189 LINE SMOOTH",
"10 64 OFFCURVE",
"87 -7 OFFCURVE",
"223 -7 CURVE SMOOTH"
);
}
);
width = 445;
},
{
anchors = (
{
name = top;
position = "{203, 517}";
}
);
associatedMasterId = "4E2227F3-52E4-4048-A8EE-327B486EF0A4";
layerId = "A53D93E6-92CC-45B1-8880-653E9256B646";
name = "100,3} Feb 24 17, 00:22";
paths = (
{
closed = 1;
nodes = (
"303 -8 OFFCURVE",
"372 48 OFFCURVE",
"379 141 CURVE",
"280 143 LINE",
"272 102 OFFCURVE",
"241 79 OFFCURVE",
"204 79 CURVE SMOOTH",
"156 79 OFFCURVE",
"125 115 OFFCURVE",
"125 173 CURVE SMOOTH",
"125 339 LINE SMOOTH",
"125 395 OFFCURVE",
"156 431 OFFCURVE",
"203 431 CURVE SMOOTH",
"251 431 OFFCURVE",
"281 395 OFFCURVE",
"281 339 CURVE SMOOTH",
"281 298 LINE",
"86 298 LINE",
"86 215 LINE",
"381 215 LINE",
"381 337 LINE SMOOTH",
"381 449 OFFCURVE",
"314 517 OFFCURVE",
"203 517 CURVE SMOOTH",
"94 517 OFFCURVE",
"26 449 OFFCURVE",
"26 338 CURVE SMOOTH",
"26 171 LINE SMOOTH",
"26 61 OFFCURVE",
"93 -8 OFFCURVE",
"204 -8 CURVE SMOOTH"
);
}
);
width = 409;
},
{
anchors = (
{
name = top;
position = "{235, 517}";
}
);
associatedMasterId = "4E2227F3-52E4-4048-A8EE-327B486EF0A4";
layerId = "A47C68F1-3740-4053-814E-50DA5F989A02";
name = "100,5} Feb 24 17, 00:22";
paths = (
{
closed = 1;
nodes = (
"345 -8 OFFCURVE",
"415 47 OFFCURVE",
"436 143 CURVE",
"338 152 LINE",
"324 106 OFFCURVE",
"289 79 OFFCURVE",
"240 79 CURVE SMOOTH",
"169 79 OFFCURVE",
"131 134 OFFCURVE",
"131 230 CURVE SMOOTH",
"131 282 LINE SMOOTH",
"131 377 OFFCURVE",
"169 433 OFFCURVE",
"239 433 CURVE SMOOTH",
"309 433 OFFCURVE",
"348 378 OFFCURVE",
"348 284 CURVE",
"348 296 LINE",
"109 296 LINE",
"109 211 LINE",
"448 211 LINE",
"448 281 LINE SMOOTH",
"448 432 OFFCURVE",
"371 519 OFFCURVE",
"239 519 CURVE SMOOTH",
"107 519 OFFCURVE",
"31 432 OFFCURVE",
"31 281 CURVE SMOOTH",
"31 231 LINE SMOOTH",
"31 79 OFFCURVE",
"107 -8 OFFCURVE",
"240 -8 CURVE SMOOTH"
);
}
);
width = 479;
},
{
anchors = (
{
name = top;
position = "{243, 522}";
}
);
associatedMasterId = "4E2227F3-52E4-4048-A8EE-327B486EF0A4";
layerId = "5954086A-CF98-4407-B6DE-F8A05521AEBF";
name = "140,5} Feb 24 17, 00:22";
paths = (
{
closed = 1;
nodes = (
"365 -8 OFFCURVE",
"442 52 OFFCURVE",
"466 157 CURVE",
"327 171 LINE",
"315 134 OFFCURVE",
"288 113 OFFCURVE",
"249 113 CURVE SMOOTH",
"190 113 OFFCURVE",
"161 161 OFFCURVE",
"161 245 CURVE SMOOTH",
"161 273 LINE SMOOTH",
"161 357 OFFCURVE",
"190 405 OFFCURVE",
"249 405 CURVE SMOOTH",
"306 405 OFFCURVE",
"336 358 OFFCURVE",
"336 277 CURVE",
"336 308 LINE",
"133 308 LINE",
"133 213 LINE",
"476 213 LINE",
"476 273 LINE SMOOTH",
"476 433 OFFCURVE",
"393 525 OFFCURVE",
"249 525 CURVE SMOOTH",
"104 525 OFFCURVE",
"21 433 OFFCURVE",
"21 273 CURVE SMOOTH",
"21 246 LINE SMOOTH",
"21 84 OFFCURVE",
"104 -8 OFFCURVE",
"249 -8 CURVE SMOOTH"
);
}
);
width = 498;
},
{
anchors = (
{
name = top;
position = "{221, 525}";
}
);
associatedMasterId = "4E2227F3-52E4-4048-A8EE-327B486EF0A4";
layerId = "6A71C6C0-6498-4E03-A0EC-57F8322562B8";
name = "{166,3}";
paths = (
{
closed = 1;
nodes = (
"352 -8 OFFCURVE",
"416 57 OFFCURVE",
"419 171 CURVE",
"257 181 LINE",
"256 159 OFFCURVE",
"245 134 OFFCURVE",
"221 134 CURVE SMOOTH",
"200 134 OFFCURVE",
"186 152 OFFCURVE",
"186 178 CURVE SMOOTH",
"186 205 OFFCURVE",
"186 232 OFFCURVE",
"186 259 CURVE SMOOTH",
"186 285 OFFCURVE",
"186 312 OFFCURVE",
"186 339 CURVE SMOOTH",
"186 365 OFFCURVE",
"200 383 OFFCURVE",
"221 383 CURVE SMOOTH",
"241 383 OFFCURVE",
"255 365 OFFCURVE",
"255 339 CURVE SMOOTH",
"255 317 OFFCURVE",
"255 297 OFFCURVE",
"255 277 CURVE",
"311 310 LINE",
"142 310 LINE",
"142 210 LINE",
"421 210 LINE",
"421 223 OFFCURVE",
"421 296 OFFCURVE",
"421 352 CURVE SMOOTH",
"421 455 OFFCURVE",
"348 525 OFFCURVE",
"221 525 CURVE SMOOTH",
"94 525 OFFCURVE",
"20 455 OFFCURVE",
"20 352 CURVE SMOOTH",
"20 327 OFFCURVE",
"20 284 OFFCURVE",
"20 259 CURVE SMOOTH",
"20 228 OFFCURVE",
"20 196 OFFCURVE",
"20 165 CURVE SMOOTH",
"20 56 OFFCURVE",
"94 -8 OFFCURVE",
"221 -8 CURVE SMOOTH"
);
}
);
width = 440;
visible = 1;
},
{
anchors = (
{
name = top;
position = "{271, 525}";
}
);
associatedMasterId = "4E2227F3-52E4-4048-A8EE-327B486EF0A4";
hints = (
{
origin = "{0, 40}";
target = "{0, 9}";
},
{
origin = "{0, 24}";
target = "{0, 28}";
},
{
horizontal = 1;
origin = "{0, 28}";
target = "{0, 24}";
},
{
horizontal = 1;
origin = "{0, 34}";
target = "{0, 18}";
},
{
horizontal = 1;
origin = "{0, 46}";
target = "{0, 6}";
},
{
origin = "{0, 25}";
target = "{0, 28}";
}
);
layerId = "E8CA071A-13DC-4AE8-9510-CE5451652C21";
name = "{166,5}";
paths = (
{
closed = 1;
nodes = (
"376 -8 OFFCURVE",
"447 26 OFFCURVE",
"497 87 CURVE",
"413 178 LINE",
"393 148 OFFCURVE",
"353 131 OFFCURVE",
"305 131 CURVE SMOOTH",
"247 131 OFFCURVE",
"215 154 OFFCURVE",
"204 186 CURVE SMOOTH",
"197 205 OFFCURVE",
"194 234 OFFCURVE",
"194 260 CURVE SMOOTH",
"194 287 OFFCURVE",
"197 312 OFFCURVE",
"204 332 CURVE SMOOTH",
"214 363 OFFCURVE",
"241 383 OFFCURVE",
"273 383 CURVE SMOOTH",
"306 383 OFFCURVE",
"331 363 OFFCURVE",
"341 332 CURVE SMOOTH",
"347 315 OFFCURVE",
"350 290 OFFCURVE",
"350 262 CURVE",
"413 310 LINE",
"147 310 LINE",
"147 202 LINE",
"517 202 LINE",
"517 303 OFFCURVE",
"509 345 OFFCURVE",
"499 374 CURVE SMOOTH",
"469 462 OFFCURVE",
"383 525 OFFCURVE",
"271 525 CURVE SMOOTH",
"167 525 OFFCURVE",
"81 470 OFFCURVE",
"47 375 CURVE SMOOTH",
"33 340 OFFCURVE",
"27 300 OFFCURVE",
"27 261 CURVE SMOOTH",
"27 218 OFFCURVE",
"35 178 OFFCURVE",
"47 146 CURVE SMOOTH",
"82 47 OFFCURVE",
"164 -8 OFFCURVE",
"284 -8 CURVE SMOOTH"
);
}
);
width = 543;
visible = 1;
},
{
anchors = (
{
name = top;
position = "{260, 528}";
}
);
associatedMasterId = "FFFA8D72-12AC-4CE0-B2CA-57A29829F4DA";
layerId = "76D52448-D1B4-4691-A635-AFF5EA335E05";
name = "Feb 24 17, 16:07";
paths = (
{
closed = 1;
nodes = (
"382 -8 OFFCURVE",
"466 49 OFFCURVE",
"501 172 CURVE",
"317 192 LINE",
"306 167 OFFCURVE",
"291 153 OFFCURVE",
"261 153 CURVE SMOOTH",
"235 153 OFFCURVE",
"217 165 OFFCURVE",
"209 185 CURVE SMOOTH",
"201 205 OFFCURVE",
"198 232 OFFCURVE",
"198 262 CURVE SMOOTH",
"198 305 OFFCURVE",
"200 318 OFFCURVE",
"209 336 CURVE SMOOTH",
"219 355 OFFCURVE",
"235 367 OFFCURVE",
"260 367 CURVE SMOOTH",
"285 367 OFFCURVE",
"301 355 OFFCURVE",
"311 336 CURVE SMOOTH",
"317 324 OFFCURVE",
"320 312 OFFCURVE",
"321 305 CURVE",
"194 305 LINE",
"194 221 LINE",
"510 221 LINE",
"510 279 OFFCURVE",
"510 327 OFFCURVE",
"490 381 CURVE SMOOTH",
"454 476 OFFCURVE",
"372 528 OFFCURVE",
"260 528 CURVE SMOOTH",
"148 528 OFFCURVE",
"66 476 OFFCURVE",
"30 381 CURVE SMOOTH",
"17 346 OFFCURVE",
"10 307 OFFCURVE",
"10 263 CURVE SMOOTH",
"10 219 OFFCURVE",
"17 179 OFFCURVE",
"30 144 CURVE SMOOTH",
"66 49 OFFCURVE",
"146 -8 OFFCURVE",
"264 -8 CURVE SMOOTH"
);
}
);
width = 520;
},
{
anchors = (
{
name = top;
position = "{260, 528}";
}
);
associatedMasterId = "FFFA8D72-12AC-4CE0-B2CA-57A29829F4DA";
layerId = "FB4BB15E-EC4F-4C4F-8BD5-8A571EB496CE";
name = "Feb 24 17, 16:07";
paths = (
{
closed = 1;
nodes = (
"382 -8 OFFCURVE",
"466 49 OFFCURVE",
"501 172 CURVE",
"317 192 LINE",
"306 167 OFFCURVE",
"291 153 OFFCURVE",
"261 153 CURVE SMOOTH",
"235 153 OFFCURVE",
"217 165 OFFCURVE",
"209 185 CURVE SMOOTH",
"201 205 OFFCURVE",
"198 232 OFFCURVE",
"198 262 CURVE SMOOTH",
"198 305 OFFCURVE",
"200 318 OFFCURVE",
"209 336 CURVE SMOOTH",
"219 355 OFFCURVE",
"235 367 OFFCURVE",
"260 367 CURVE SMOOTH",
"285 367 OFFCURVE",
"301 355 OFFCURVE",
"311 336 CURVE SMOOTH",
"317 324 OFFCURVE",
"320 312 OFFCURVE",
"321 305 CURVE",
"194 305 LINE",
"194 221 LINE",
"510 221 LINE",
"510 279 OFFCURVE",
"510 327 OFFCURVE",
"490 381 CURVE SMOOTH",
"454 476 OFFCURVE",
"372 528 OFFCURVE",
"260 528 CURVE SMOOTH",
"148 528 OFFCURVE",
"66 476 OFFCURVE",
"30 381 CURVE SMOOTH",
"17 346 OFFCURVE",
"10 307 OFFCURVE",
"10 263 CURVE SMOOTH",
"10 219 OFFCURVE",
"17 179 OFFCURVE",
"30 144 CURVE SMOOTH",
"66 49 OFFCURVE",
"146 -8 OFFCURVE",
"264 -8 CURVE SMOOTH"
);
}
);
width = 520;
},
{
anchors = (
{
name = top;
position = "{260, 528}";
}
);
associatedMasterId = "FFFA8D72-12AC-4CE0-B2CA-57A29829F4DA";
layerId = "508D10E2-9AA1-4CA2-8633-0B44D5E80ED3";
name = "Feb 24 17, 16:07";
paths = (
{
closed = 1;
nodes = (
"382 -8 OFFCURVE",
"466 49 OFFCURVE",
"501 172 CURVE",
"317 192 LINE",
"306 167 OFFCURVE",
"291 153 OFFCURVE",
"261 153 CURVE SMOOTH",
"235 153 OFFCURVE",
"217 165 OFFCURVE",
"209 185 CURVE SMOOTH",
"201 205 OFFCURVE",
"198 232 OFFCURVE",
"198 262 CURVE SMOOTH",
"198 305 OFFCURVE",
"200 318 OFFCURVE",
"209 336 CURVE SMOOTH",
"219 355 OFFCURVE",
"235 367 OFFCURVE",
"260 367 CURVE SMOOTH",
"285 367 OFFCURVE",
"301 355 OFFCURVE",
"311 336 CURVE SMOOTH",
"317 324 OFFCURVE",
"320 312 OFFCURVE",
"321 305 CURVE",
"194 305 LINE",
"194 221 LINE",
"510 221 LINE",
"510 279 OFFCURVE",
"510 327 OFFCURVE",
"490 381 CURVE SMOOTH",
"454 476 OFFCURVE",
"372 528 OFFCURVE",
"260 528 CURVE SMOOTH",
"148 528 OFFCURVE",
"66 476 OFFCURVE",
"30 381 CURVE SMOOTH",
"17 346 OFFCURVE",
"10 307 OFFCURVE",
"10 263 CURVE SMOOTH",
"10 219 OFFCURVE",
"17 179 OFFCURVE",
"30 144 CURVE SMOOTH",
"66 49 OFFCURVE",
"146 -8 OFFCURVE",
"264 -8 CURVE SMOOTH"
);
}
);
width = 520;
},
{
anchors = (
{
name = top;
position = "{260, 528}";
}
);
associatedMasterId = "FFFA8D72-12AC-4CE0-B2CA-57A29829F4DA";
layerId = "597A1CD8-EC27-4335-B9E3-3E535B12BDCF";
name = "Feb 24 17, 16:07";
paths = (
{
closed = 1;
nodes = (
"382 -8 OFFCURVE",
"466 49 OFFCURVE",
"501 172 CURVE",
"317 192 LINE",
"306 167 OFFCURVE",
"291 153 OFFCURVE",
"261 153 CURVE SMOOTH",
"235 153 OFFCURVE",
"217 165 OFFCURVE",
"209 185 CURVE SMOOTH",
"201 205 OFFCURVE",
"198 232 OFFCURVE",
"198 262 CURVE SMOOTH",
"198 305 OFFCURVE",
"200 318 OFFCURVE",
"209 336 CURVE SMOOTH",
"219 355 OFFCURVE",
"235 367 OFFCURVE",
"260 367 CURVE SMOOTH",
"285 367 OFFCURVE",
"301 355 OFFCURVE",
"311 336 CURVE SMOOTH",
"317 324 OFFCURVE",
"320 312 OFFCURVE",
"321 305 CURVE",
"194 305 LINE",
"194 221 LINE",
"510 221 LINE",
"510 279 OFFCURVE",
"510 327 OFFCURVE",
"490 381 CURVE SMOOTH",
"454 476 OFFCURVE",
"372 528 OFFCURVE",
"260 528 CURVE SMOOTH",
"148 528 OFFCURVE",
"66 476 OFFCURVE",
"30 381 CURVE SMOOTH",
"17 346 OFFCURVE",
"10 307 OFFCURVE",
"10 263 CURVE SMOOTH",
"10 219 OFFCURVE",
"17 179 OFFCURVE",
"30 144 CURVE SMOOTH",
"66 49 OFFCURVE",
"146 -8 OFFCURVE",
"264 -8 CURVE SMOOTH"
);
}
);
width = 520;
},
{
anchors = (
{
name = top;
position = "{223, 532}";
}
);
associatedMasterId = "4E2227F3-52E4-4048-A8EE-327B486EF0A4";
layerId = "A2BBABA4-A182-4348-8C30-8AD760BED60C";
name = "Mar 6 17, 05:03";
paths = (
{
closed = 1;
nodes = (
"357 -8 OFFCURVE",
"435 54 OFFCURVE",
"435 175 CURVE",
"247 192 LINE",
"246 172 OFFCURVE",
"244 153 OFFCURVE",
"223 153 CURVE SMOOTH",
"215 153 OFFCURVE",
"207 157 OFFCURVE",
"204 163 CURVE",
"198 174 OFFCURVE",
"198 325 OFFCURVE",
"198 260 CURVE SMOOTH",
"198 236 OFFCURVE",
"197 348 OFFCURVE",
"204 360 CURVE",
"208 366 OFFCURVE",
"214 371 OFFCURVE",
"223 371 CURVE SMOOTH",
"231 371 OFFCURVE",
"239 366 OFFCURVE",
"242 360 CURVE",
"249 348 OFFCURVE",
"247 332 OFFCURVE",
"247 260 CURVE",
"323 303 LINE",
"162 303 LINE",
"162 215 LINE",
"435 215 LINE",
"435 270 OFFCURVE",
"435 294 OFFCURVE",
"435 350 CURVE SMOOTH",
"435 456 OFFCURVE",
"359 532 OFFCURVE",
"223 532 CURVE SMOOTH",
"87 532 OFFCURVE",
"10 456 OFFCURVE",
"10 350 CURVE SMOOTH",
"10 327 OFFCURVE",
"10 283 OFFCURVE",
"10 260 CURVE SMOOTH",
"10 230 OFFCURVE",
"10 200 OFFCURVE",
"10 170 CURVE SMOOTH",
"10 57 OFFCURVE",
"87 -8 OFFCURVE",
"223 -8 CURVE SMOOTH"
);
}
);
width = 445;
visible = 1;
},
{
anchors = (
{
name = top;
position = "{255, 517}";
}
);
associatedMasterId = "4E2227F3-52E4-4048-A8EE-327B486EF0A4";
hints = (
{
origin = "{0, 40}";
target = "{0, 9}";
},
{
origin = "{0, 24}";
target = "{0, 28}";
},
{
horizontal = 1;
origin = "{0, 28}";
target = "{0, 24}";
},
{
horizontal = 1;
origin = "{0, 34}";
target = "{0, 18}";
},
{
horizontal = 1;
origin = "{0, 46}";
target = "{0, 6}";
},
{
origin = "{0, 25}";
target = "{0, 28}";
}
);
layerId = "2A2B9E74-0281-441B-9A83-648CC11D66AE";
name = "{100,5}";
paths = (
{
closed = 1;
nodes = (
"352 -8 OFFCURVE",
"426 33 OFFCURVE",
"459 103 CURVE",
"386 151 LINE",
"367 105 OFFCURVE",
"324 78 OFFCURVE",
"270 78 CURVE SMOOTH",
"208 78 OFFCURVE",
"164 109 OFFCURVE",
"151 163 CURVE SMOOTH",
"144 189 OFFCURVE",
"140 223 OFFCURVE",
"140 255 CURVE SMOOTH",
"140 285 OFFCURVE",
"144 319 OFFCURVE",
"151 347 CURVE SMOOTH",
"163 400 OFFCURVE",
"202 431 OFFCURVE",
"256 431 CURVE SMOOTH",
"310 431 OFFCURVE",
"349 400 OFFCURVE",
"362 347 CURVE SMOOTH",
"366 333 OFFCURVE",
"368 300 OFFCURVE",
"368 260 CURVE",
"407 297 LINE",
"114 297 LINE",
"114 212 LINE",
"469 212 LINE",
"469 278 OFFCURVE",
"465 349 OFFCURVE",
"457 375 CURVE SMOOTH",
"430 464 OFFCURVE",
"355 517 OFFCURVE",
"255 517 CURVE SMOOTH",
"157 517 OFFCURVE",
"84 465 OFFCURVE",
"57 376 CURVE SMOOTH",
"46 343 OFFCURVE",
"40 298 OFFCURVE",
"40 256 CURVE SMOOTH",
"40 215 OFFCURVE",
"46 170 OFFCURVE",
"57 135 CURVE SMOOTH",
"85 45 OFFCURVE",
"160 -8 OFFCURVE",
"261 -8 CURVE SMOOTH"
);
}
);
width = 508;
},
{
anchors = (
{
name = top;
position = "{203, 517}";
}
);
associatedMasterId = "4E2227F3-52E4-4048-A8EE-327B486EF0A4";
layerId = "08201EB5-B49F-440A-802B-CA47CCD12539";
name = "{100,3}";
paths = (
{
closed = 1;
nodes = (
"307 -8 OFFCURVE",
"365 49 OFFCURVE",
"371 142 CURVE",
"274 147 LINE",
"269 109 OFFCURVE",
"243 78 OFFCURVE",
"203 78 CURVE SMOOTH",
"162 78 OFFCURVE",
"133 111 OFFCURVE",
"133 158 CURVE SMOOTH",
"133 190 OFFCURVE",
"133 223 OFFCURVE",
"133 255 CURVE SMOOTH",
"133 286 OFFCURVE",
"133 319 OFFCURVE",
"133 351 CURVE SMOOTH",
"133 398 OFFCURVE",
"162 431 OFFCURVE",
"203 431 CURVE SMOOTH",
"245 431 OFFCURVE",
"274 398 OFFCURVE",
"274 351 CURVE SMOOTH",
"274 322 OFFCURVE",
"274 293 OFFCURVE",
"274 270 CURVE",
"308 296 LINE",
"105 296 LINE",
"105 213 LINE",
"373 213 LINE",
"373 238 OFFCURVE",
"373 310 OFFCURVE",
"373 358 CURVE SMOOTH",
"373 452 OFFCURVE",
"309 517 OFFCURVE",
"203 517 CURVE SMOOTH",
"98 517 OFFCURVE",
"33 452 OFFCURVE",
"33 358 CURVE SMOOTH",
"33 327 OFFCURVE",
"33 286 OFFCURVE",
"33 255 CURVE SMOOTH",
"33 221 OFFCURVE",
"33 185 OFFCURVE",
"33 151 CURVE SMOOTH",
"33 54 OFFCURVE",
"98 -8 OFFCURVE",
"203 -8 CURVE SMOOTH"
);
}
);
width = 406;
},
{
anchors = (
{
name = top;
position = "{246, 525}";
}
);
associatedMasterId = "DCBE1F7B-116A-43E0-B7B4-8657BA77D8B5";
hints = (
{
origin = "{0, 40}";
target = "{0, 9}";
},
{
origin = "{0, 24}";
target = "{0, 28}";
},
{
horizontal = 1;
origin = "{0, 28}";
target = "{0, 24}";
},
{
horizontal = 1;
origin = "{0, 34}";
target = "{0, 18}";
},
{
horizontal = 1;
origin = "{0, 46}";
target = "{0, 6}";
},
{
origin = "{0, 25}";
target = "{0, 28}";
}
);
layerId = "DFA1BEED-08E5-4328-AC15-805F6F7DFFB0";
name = "{166,4}";
paths = (
{
closed = 1;
nodes = (
"364 -8 OFFCURVE",
"432 42 OFFCURVE",
"458 129 CURVE",
"335 180 LINE",
"325 154 OFFCURVE",
"299 133 OFFCURVE",
"263 133 CURVE SMOOTH",
"224 133 OFFCURVE",
"201 143 OFFCURVE",
"195 182 CURVE SMOOTH",
"191 205 OFFCURVE",
"190 233 OFFCURVE",
"190 260 CURVE SMOOTH",
"190 286 OFFCURVE",
"191 312 OFFCURVE",
"195 336 CURVE SMOOTH",
"200 367 OFFCURVE",
"221 383 OFFCURVE",
"247 383 CURVE SMOOTH",
"274 383 OFFCURVE",
"293 367 OFFCURVE",
"298 336 CURVE SMOOTH",
"301 316 OFFCURVE",
"303 294 OFFCURVE",
"303 270 CURVE",
"362 310 LINE",
"145 310 LINE",
"145 206 LINE",
"469 206 LINE",
"469 263 OFFCURVE",
"465 321 OFFCURVE",
"460 363 CURVE SMOOTH",
"445 459 OFFCURVE",
"366 525 OFFCURVE",
"246 525 CURVE SMOOTH",
"131 525 OFFCURVE",
"51 463 OFFCURVE",
"34 364 CURVE SMOOTH",
"27 334 OFFCURVE",
"24 292 OFFCURVE",
"24 260 CURVE SMOOTH",
"24 223 OFFCURVE",
"28 187 OFFCURVE",
"34 156 CURVE SMOOTH",
"51 52 OFFCURVE",
"129 -8 OFFCURVE",
"253 -8 CURVE SMOOTH"
);
}
);
width = 492;
}
);
leftKerningGroup = o;
rightKerningGroup = e;
unicode = 0065;
},
{
color = 3;
glyphname = f;
lastChange = "2017-03-31 05:06:31 +0000";
layers = (
{
hints = (
{
horizontal = 1;
origin = "{1, 1}";
target = "{1, 0}";
},
{
horizontal = 1;
origin = "{0, 5}";
target = "{0, 6}";
},
{
origin = "{0, 10}";
target = "{0, 1}";
}
);
layerId = "262880E7-CFE1-4BDA-902E-E24798F3240A";
paths = (
{
closed = 1;
nodes = (
"148 0 LINE",
"148 540 LINE SMOOTH",
"148 627 OFFCURVE",
"167 679 OFFCURVE",
"262 679 CURVE SMOOTH",
"293 679 LINE",
"293 700 LINE",
"262 700 LINE SMOOTH",
"154 700 OFFCURVE",
"127 640 OFFCURVE",
"127 540 CURVE SMOOTH",
"127 0 LINE"
);
},
{
closed = 1;
nodes = (
"288 479 LINE",
"288 500 LINE",
"48 500 LINE",
"48 479 LINE"
);
}
);
width = 336;
},
{
layerId = "4E2227F3-52E4-4048-A8EE-327B486EF0A4";
paths = (
{
closed = 1;
nodes = (
"241 0 LINE",
"241 539 LINE SMOOTH",
"241 557 OFFCURVE",
"254 572 OFFCURVE",
"278 575 CURVE",
"285 575 LINE",
"285 700 LINE",
"278 700 LINE",
"136 707 OFFCURVE",
"53 683 OFFCURVE",
"53 556 CURVE SMOOTH",
"53 0 LINE"
);
},
{
closed = 1;
nodes = (
"299 390 LINE",
"299 520 LINE",
"12 520 LINE",
"12 390 LINE"
);
}
);
width = 311;
},
{
layerId = "FFFA8D72-12AC-4CE0-B2CA-57A29829F4DA";
paths = (
{
closed = 1;
nodes = (
"277 0 LINE",
"277 539 LINE SMOOTH",
"277 562 OFFCURVE",
"287 572 OFFCURVE",
"314 575 CURVE",
"371 575 LINE",
"371 700 LINE",
"314 700 LINE",
"152 708 OFFCURVE",
"89 668 OFFCURVE",
"89 556 CURVE SMOOTH",
"89 0 LINE"
);
},
{
closed = 1;
nodes = (
"385 370 LINE",
"385 520 LINE",
"18 520 LINE",
"18 370 LINE"
);
}
);
width = 403;
},
{
layerId = "DCBE1F7B-116A-43E0-B7B4-8657BA77D8B5";
paths = (
{
closed = 1;
nodes = (
"124 0 LINE",
"124 550 LINE SMOOTH",
"124 637 OFFCURVE",
"137 689 OFFCURVE",
"207 689 CURVE SMOOTH",
"232 689 LINE",
"232 710 LINE",
"206 710 LINE SMOOTH",
"124 710 OFFCURVE",
"102 650 OFFCURVE",
"102 550 CURVE SMOOTH",
"102 0 LINE"
);
},
{
closed = 1;
nodes = (
"228 479 LINE",
"228 500 LINE",
"42 500 LINE",
"42 479 LINE"
);
}
);
width = 270;
},
{
associatedMasterId = "FFFA8D72-12AC-4CE0-B2CA-57A29829F4DA";
layerId = "2C93A357-82AB-483E-BCC8-F28359C8C182";
name = "{100,5}";
paths = (
{
closed = 1;
nodes = (
"215 0 LINE",
"215 524 LINE",
"215 593 OFFCURVE",
"234 613 OFFCURVE",
"299 613 CURVE SMOOTH",
"333 613 LINE",
"333 700 LINE",
"289 700 LINE SMOOTH",
"155 700 OFFCURVE",
"115 661 OFFCURVE",
"115 530 CURVE",
"115 0 LINE"
);
},
{
closed = 1;
nodes = (
"333 418 LINE",
"333 510 LINE",
"34 510 LINE",
"34 418 LINE"
);
}
);
width = 362;
}
);
leftKerningGroup = t;
unicode = 0066;
},
{
glyphname = g;
lastChange = "2017-03-31 05:06:09 +0000";
layers = (
{
components = (
{
name = b.bowl;
transform = "{-1, 0, 0, 1, 421, 0}";
}
);
hints = (
{
origin = "{0, 4}";
target = "{0, 3}";
},
{
horizontal = 1;
origin = "{0, 9}";
target = "{0, 8}";
}
);
layerId = "262880E7-CFE1-4BDA-902E-E24798F3240A";
paths = (
{
closed = 1;
nodes = (
"349 -206 OFFCURVE",
"423 -132 OFFCURVE",
"423 0 CURVE SMOOTH",
"423 500 LINE",
"401 500 LINE",
"401 0 LINE SMOOTH",
"401 -118 OFFCURVE",
"335 -184 OFFCURVE",
"222 -179 CURVE",
"222 -200 LINE"
);
}
);
width = 519;
},
{
components = (
{
name = b.bowl;
transform = "{-1, 0, 0, 1, 285, 0}";
}
);
layerId = "4E2227F3-52E4-4048-A8EE-327B486EF0A4";
paths = (
{
closed = 1;
nodes = (
"385 -233 OFFCURVE",
"438 -115 OFFCURVE",
"438 34 CURVE SMOOTH",
"438 520 LINE",
"250 520 LINE",
"250 54 LINE SMOOTH",
"250 -14 OFFCURVE",
"243 -56 OFFCURVE",
"98 -45 CURVE",
"98 -207 LINE"
);
}
);
width = 462;
},
{
components = (
{
name = b.bowl;
transform = "{-1, 0, 0, 1, 387, 0}";
}
);
layerId = "FFFA8D72-12AC-4CE0-B2CA-57A29829F4DA";
paths = (
{
closed = 1;
nodes = (
"380 -231 OFFCURVE",
"516 -152 OFFCURVE",
"516 34 CURVE SMOOTH",
"516 520 LINE",
"328 520 LINE",
"328 21 LINE SMOOTH",
"328 -41 OFFCURVE",
"256 -62 OFFCURVE",
"116 -44 CURVE",
"116 -200 LINE"
);
}
);
width = 552;
},
{
components = (
{
name = b.bowl;
transform = "{-1, 0, 0, 1, 323, 0}";
}
);
layerId = "DCBE1F7B-116A-43E0-B7B4-8657BA77D8B5";
paths = (
{
closed = 1;
nodes = (
"275 -204 OFFCURVE",
"330 -130 OFFCURVE",
"330 0 CURVE SMOOTH",
"330 500 LINE",
"307 500 LINE",
"307 0 LINE SMOOTH",
"307 -117 OFFCURVE",
"261 -183 OFFCURVE",
"182 -179 CURVE",
"182 -200 LINE"
);
}
);
width = 414;
}
);
leftKerningGroup = d;
rightKerningGroup = g;
unicode = 0067;
},
{
glyphname = h;
lastChange = "2017-03-31 05:06:09 +0000";
layers = (
{
components = (
{
name = n.curve;
transform = "{1, 0, 0, 1, 100, 0}";
}
);
hints = (
{
origin = "{0, 2}";
target = "{0, 1}";
}
);
layerId = "262880E7-CFE1-4BDA-902E-E24798F3240A";
paths = (
{
closed = 1;
nodes = (
"118 0 LINE",
"118 700 LINE",
"96 700 LINE",
"96 0 LINE"
);
}
);
width = 521;
},
{
components = (
{
name = n.curve;
transform = "{1, 0, 0, 1, 176, 0}";
}
);
layerId = "4E2227F3-52E4-4048-A8EE-327B486EF0A4";
paths = (
{
closed = 1;
nodes = (
"212 0 LINE",
"212 700 LINE",
"24 700 LINE",
"24 0 LINE"
);
}
);
width = 464;
},
{
components = (
{
name = n.curve;
transform = "{1, 0, 0, 1, 185, 0}";
}
);
layerId = "FFFA8D72-12AC-4CE0-B2CA-57A29829F4DA";
paths = (
{
closed = 1;
nodes = (
"224 0 LINE",
"224 700 LINE",
"36 700 LINE",
"36 0 LINE"
);
}
);
width = 555;
},
{
components = (
{
name = n.curve;
transform = "{1, 0, 0, 1, 91, 0}";
}
);
layerId = "DCBE1F7B-116A-43E0-B7B4-8657BA77D8B5";
paths = (
{
closed = 1;
nodes = (
"106 0 LINE",
"106 700 LINE",
"84 700 LINE",
"84 0 LINE"
);
}
);
width = 415;
}
);
leftKerningGroup = b;
rightKerningGroup = n;
unicode = 0068;
},
{
glyphname = i;
lastChange = "2017-03-31 05:06:09 +0000";
layers = (
{
hints = (
{
origin = "{0, 2}";
target = "{0, 1}";
}
);
layerId = "262880E7-CFE1-4BDA-902E-E24798F3240A";
paths = (
{
closed = 1;
nodes = (
"115 0 LINE",
"115 500 LINE",
"93 500 LINE",
"93 0 LINE"
);
},
{
closed = 1;
nodes = (
"122 620 OFFCURVE",
"135 633 OFFCURVE",
"135 650 CURVE SMOOTH",
"135 666 OFFCURVE",
"122 679 OFFCURVE",
"104 679 CURVE SMOOTH",
"86 679 OFFCURVE",
"72 666 OFFCURVE",
"72 650 CURVE SMOOTH",
"72 633 OFFCURVE",
"86 620 OFFCURVE",
"104 620 CURVE SMOOTH"
);
}
);
width = 215;
},
{
layerId = "4E2227F3-52E4-4048-A8EE-327B486EF0A4";
paths = (
{
closed = 1;
nodes = (
"216 0 LINE",
"216 520 LINE",
"28 520 LINE",
"28 0 LINE"
);
},
{
closed = 1;
nodes = (
"185 542 OFFCURVE",
"226 584 OFFCURVE",
"226 647 CURVE SMOOTH",
"226 710 OFFCURVE",
"185 752 OFFCURVE",
"122 752 CURVE SMOOTH",
"60 752 OFFCURVE",
"18 710 OFFCURVE",
"18 647 CURVE SMOOTH",
"18 584 OFFCURVE",
"60 542 OFFCURVE",
"122 542 CURVE SMOOTH"
);
}
);
width = 246;
},
{
layerId = "FFFA8D72-12AC-4CE0-B2CA-57A29829F4DA";
paths = (
{
closed = 1;
nodes = (
"229 0 LINE",
"229 520 LINE",
"41 520 LINE",
"41 0 LINE"
);
},
{
closed = 1;
nodes = (
"200 536 OFFCURVE",
"243 578 OFFCURVE",
"243 641 CURVE SMOOTH",
"243 704 OFFCURVE",
"200 746 OFFCURVE",
"135 746 CURVE SMOOTH",
"71 746 OFFCURVE",
"27 704 OFFCURVE",
"27 641 CURVE SMOOTH",
"27 578 OFFCURVE",
"71 536 OFFCURVE",
"135 536 CURVE SMOOTH"
);
}
);
width = 273;
},
{
layerId = "DCBE1F7B-116A-43E0-B7B4-8657BA77D8B5";
paths = (
{
closed = 1;
nodes = (
"101 0 LINE",
"101 500 LINE",
"79 500 LINE",
"79 0 LINE"
);
},
{
closed = 1;
nodes = (
"104 620 OFFCURVE",
"115 633 OFFCURVE",
"115 650 CURVE SMOOTH",
"115 666 OFFCURVE",
"104 679 OFFCURVE",
"90 679 CURVE SMOOTH",
"75 679 OFFCURVE",
"63 666 OFFCURVE",
"63 650 CURVE SMOOTH",
"63 633 OFFCURVE",
"75 620 OFFCURVE",
"90 620 CURVE SMOOTH"
);
}
);
width = 185;
}
);
leftKerningGroup = i;
unicode = 0069;
},
{
glyphname = idotless;
lastChange = "2017-03-30 08:30:13 +0000";
layers = (
{
anchors = (
{
name = top;
position = "{104, 509}";
}
);
hints = (
{
origin = "{0, 2}";
target = "{0, 1}";
}
);
layerId = "262880E7-CFE1-4BDA-902E-E24798F3240A";
paths = (
{
closed = 1;
nodes = (
"115 0 LINE",
"115 500 LINE",
"93 500 LINE",
"93 0 LINE"
);
}
);
width = 211;
},
{
anchors = (
{
name = top;
position = "{128, 532}";
}
);
layerId = "FFFA8D72-12AC-4CE0-B2CA-57A29829F4DA";
paths = (
{
closed = 1;
nodes = (
"226 0 LINE",
"226 520 LINE",
"38 520 LINE",
"38 0 LINE"
);
}
);
width = 267;
},
{
anchors = (
{
name = top;
position = "{93, 509}";
}
);
layerId = "DCBE1F7B-116A-43E0-B7B4-8657BA77D8B5";
paths = (
{
closed = 1;
nodes = (
"104 0 LINE",
"104 500 LINE",
"82 500 LINE",
"82 0 LINE"
);
}
);
width = 189;
},
{
anchors = (
{
name = top;
position = "{121, 533}";
}
);
layerId = "4E2227F3-52E4-4048-A8EE-327B486EF0A4";
paths = (
{
closed = 1;
nodes = (
"215 0 LINE",
"215 520 LINE",
"27 520 LINE",
"27 0 LINE"
);
}
);
width = 245;
}
);
leftMetricsKey = "=i+5";
rightMetricsKey = "=i+8";
unicode = 0131;
},
{
glyphname = j;
lastChange = "2017-03-31 05:06:09 +0000";
layers = (
{
hints = (
{
origin = "{0, 4}";
target = "{0, 3}";
},
{
horizontal = 1;
origin = "{0, 9}";
target = "{0, 8}";
}
);
layerId = "262880E7-CFE1-4BDA-902E-E24798F3240A";
paths = (
{
closed = 1;
nodes = (
"57 -211 OFFCURVE",
"110 -159 OFFCURVE",
"110 -74 CURVE SMOOTH",
"110 500 LINE",
"88 500 LINE",
"88 -74 LINE SMOOTH",
"88 -146 OFFCURVE",
"44 -190 OFFCURVE",
"-29 -190 CURVE",
"-29 -211 LINE"
);
},
{
closed = 1;
nodes = (
"120 620 OFFCURVE",
"132 631 OFFCURVE",
"132 650 CURVE SMOOTH",
"132 669 OFFCURVE",
"120 679 OFFCURVE",
"99 679 CURVE SMOOTH",
"81 679 OFFCURVE",
"68 669 OFFCURVE",
"68 650 CURVE SMOOTH",
"68 631 OFFCURVE",
"81 620 OFFCURVE",
"99 620 CURVE SMOOTH"
);
}
);
width = 206;
},
{
layerId = "4E2227F3-52E4-4048-A8EE-327B486EF0A4";
paths = (
{
closed = 1;
nodes = (
"205 -210 OFFCURVE",
"210 -120 OFFCURVE",
"210 29 CURVE SMOOTH",
"210 520 LINE",
"22 520 LINE",
"22 29 LINE SMOOTH",
"22 -19 OFFCURVE",
"7 -49 OFFCURVE",
"-74 -41 CURVE",
"-74 -201 LINE"
);
},
{
closed = 1;
nodes = (
"177 542 OFFCURVE",
"220 589 OFFCURVE",
"220 647 CURVE SMOOTH",
"220 705 OFFCURVE",
"168 752 OFFCURVE",
"116 752 CURVE SMOOTH",
"63 752 OFFCURVE",
"12 705 OFFCURVE",
"12 647 CURVE SMOOTH",
"12 589 OFFCURVE",
"54 542 OFFCURVE",
"116 542 CURVE SMOOTH"
);
}
);
width = 234;
},
{
layerId = "FFFA8D72-12AC-4CE0-B2CA-57A29829F4DA";
paths = (
{
closed = 1;
nodes = (
"160 -209 OFFCURVE",
"221 -163 OFFCURVE",
"221 29 CURVE SMOOTH",
"221 520 LINE",
"33 520 LINE",
"33 26 LINE SMOOTH",
"33 -38 OFFCURVE",
"9 -52 OFFCURVE",
"-86 -44 CURVE",
"-86 -201 LINE"
);
},
{
closed = 1;
nodes = (
"190 536 OFFCURVE",
"235 583 OFFCURVE",
"235 641 CURVE SMOOTH",
"235 699 OFFCURVE",
"182 746 OFFCURVE",
"127 746 CURVE SMOOTH",
"71 746 OFFCURVE",
"19 699 OFFCURVE",
"19 641 CURVE SMOOTH",
"19 583 OFFCURVE",
"62 536 OFFCURVE",
"127 536 CURVE SMOOTH"
);
}
);
width = 257;
},
{
layerId = "DCBE1F7B-116A-43E0-B7B4-8657BA77D8B5";
paths = (
{
closed = 1;
nodes = (
"60 -211 OFFCURVE",
"99 -159 OFFCURVE",
"99 -74 CURVE SMOOTH",
"99 500 LINE",
"77 500 LINE",
"77 -74 LINE SMOOTH",
"77 -146 OFFCURVE",
"45 -190 OFFCURVE",
"-11 -190 CURVE",
"-11 -211 LINE"
);
},
{
closed = 1;
nodes = (
"104 620 OFFCURVE",
"115 631 OFFCURVE",
"115 650 CURVE SMOOTH",
"115 669 OFFCURVE",
"104 679 OFFCURVE",
"88 679 CURVE SMOOTH",
"73 679 OFFCURVE",
"62 669 OFFCURVE",
"62 650 CURVE SMOOTH",
"62 631 OFFCURVE",
"73 620 OFFCURVE",
"88 620 CURVE SMOOTH"
);
}
);
width = 183;
}
);
leftKerningGroup = j;
unicode = 006A;
},
{
glyphname = k;
lastChange = "2017-03-31 04:55:46 +0000";
layers = (
{
guideLines = (
{
angle = 180;
position = "{270, 0}";
showMeasurement = 1;
}
);
hints = (
{
origin = "{0, 11}";
target = "{0, 0}";
},
{
origin = "{0, 3}";
target = "{0, 4}";
},
{
origin = "{0, 7}";
target = "{0, 6}";
}
);
layerId = "262880E7-CFE1-4BDA-902E-E24798F3240A";
paths = (
{
closed = 1;
nodes = (
"110 0 LINE",
"110 198 LINE",
"258 345 LINE",
"410 0 LINE",
"434 0 LINE",
"274 361 LINE",
"414 500 LINE",
"384 500 LINE",
"110 226 LINE",
"110 700 LINE",
"88 700 LINE",
"88 0 LINE"
);
}
);
width = 474;
},
{
layerId = "4E2227F3-52E4-4048-A8EE-327B486EF0A4";
paths = (
{
closed = 1;
nodes = (
"210 0 LINE",
"210 136 LINE",
"222 165 LINE",
"275 0 LINE",
"469 0 LINE",
"338 315 LINE",
"463 520 LINE",
"268 520 LINE",
"210 390 LINE",
"210 700 LINE",
"22 700 LINE",
"22 0 LINE"
);
}
);
width = 479;
},
{
layerId = "FFFA8D72-12AC-4CE0-B2CA-57A29829F4DA";
paths = (
{
closed = 1;
nodes = (
"221 0 LINE",
"221 149 LINE",
"261 205 LINE",
"349 0 LINE",
"543 0 LINE",
"389 325 LINE",
"533 520 LINE",
"319 520 LINE",
"221 378 LINE",
"221 700 LINE",
"33 700 LINE",
"33 0 LINE"
);
}
);
width = 558;
},
{
guideLines = (
{
angle = 180;
position = "{283, 0}";
showMeasurement = 1;
}
);
layerId = "DCBE1F7B-116A-43E0-B7B4-8657BA77D8B5";
paths = (
{
closed = 1;
nodes = (
"99 0 LINE",
"99 200 LINE",
"207 345 LINE",
"318 0 LINE",
"342 0 LINE",
"222 363 LINE",
"326 500 LINE",
"300 500 LINE",
"99 232 LINE",
"99 700 LINE",
"77 700 LINE",
"77 0 LINE"
);
}
);
width = 377;
}
);
leftKerningGroup = b;
rightKerningGroup = k;
unicode = 006B;
},
{
glyphname = l;
lastChange = "2017-03-31 05:06:09 +0000";
layers = (
{
hints = (
{
origin = "{0, 3}";
target = "{0, 0}";
}
);
layerId = "262880E7-CFE1-4BDA-902E-E24798F3240A";
paths = (
{
closed = 1;
nodes = (
"110 0 LINE",
"110 700 LINE",
"88 700 LINE",
"88 0 LINE"
);
}
);
width = 206;
},
{
layerId = "4E2227F3-52E4-4048-A8EE-327B486EF0A4";
paths = (
{
closed = 1;
nodes = (
"210 0 LINE",
"210 700 LINE",
"22 700 LINE",
"22 0 LINE"
);
}
);
width = 234;
},
{
layerId = "FFFA8D72-12AC-4CE0-B2CA-57A29829F4DA";
paths = (
{
closed = 1;
nodes = (
"221 0 LINE",
"221 700 LINE",
"33 700 LINE",
"33 0 LINE"
);
}
);
width = 257;
},
{
layerId = "DCBE1F7B-116A-43E0-B7B4-8657BA77D8B5";
paths = (
{
closed = 1;
nodes = (
"99 0 LINE",
"99 700 LINE",
"77 700 LINE",
"77 0 LINE"
);
}
);
width = 183;
}
);
leftKerningGroup = l;
rightKerningGroup = l;
unicode = 006C;
},
{
glyphname = m;
lastChange = "2017-03-31 04:57:39 +0000";
layers = (
{
hints = (
{
origin = "{0, 3}";
target = "{0, 0}";
},
{
origin = "{1, 15}";
target = "{1, 0}";
},
{
origin = "{2, 15}";
target = "{2, 0}";
},
{
horizontal = 1;
origin = "{1, 4}";
target = "{1, 11}";
}
);
layerId = "262880E7-CFE1-4BDA-902E-E24798F3240A";
paths = (
{
closed = 1;
nodes = (
"110 0 LINE",
"110 500 LINE",
"88 500 LINE",
"88 0 LINE"
);
},
{
closed = 1;
nodes = (
"418 0 LINE",
"418 347 LINE SMOOTH",
"418 446 OFFCURVE",
"353 507 OFFCURVE",
"259 507 CURVE SMOOTH",
"158 507 OFFCURVE",
"93 448 OFFCURVE",
"93 346 CURVE",
"110 346 LINE",
"110 433 OFFCURVE",
"167 486 OFFCURVE",
"257 486 CURVE SMOOTH",
"339 486 OFFCURVE",
"396 432 OFFCURVE",
"396 344 CURVE SMOOTH",
"396 0 LINE"
);
},
{
closed = 1;
nodes = (
"727 0 LINE",
"727 347 LINE SMOOTH",
"727 446 OFFCURVE",
"661 507 OFFCURVE",
"567 507 CURVE SMOOTH",
"467 507 OFFCURVE",
"401 448 OFFCURVE",
"401 346 CURVE",
"418 346 LINE",
"418 433 OFFCURVE",
"476 486 OFFCURVE",
"565 486 CURVE SMOOTH",
"647 486 OFFCURVE",
"705 432 OFFCURVE",
"705 344 CURVE SMOOTH",
"705 0 LINE"
);
}
);
width = 815;
},
{
layerId = "4E2227F3-52E4-4048-A8EE-327B486EF0A4";
paths = (
{
closed = 1;
nodes = (
"210 0 LINE",
"210 520 LINE",
"22 520 LINE",
"22 0 LINE"
);
},
{
closed = 1;
nodes = (
"442 0 LINE",
"442 348 LINE SMOOTH",
"442 459 OFFCURVE",
"401 528 OFFCURVE",
"300 528 CURVE SMOOTH",
"263 528 OFFCURVE",
"163 515 OFFCURVE",
"164 335 CURVE",
"210 335 LINE",
"210 356 OFFCURVE",
"218 367 OFFCURVE",
"233 367 CURVE SMOOTH",
"247 367 OFFCURVE",
"254 356 OFFCURVE",
"254 335 CURVE SMOOTH",
"254 0 LINE"
);
},
{
closed = 1;
nodes = (
"674 0 LINE",
"674 348 LINE SMOOTH",
"674 459 OFFCURVE",
"633 528 OFFCURVE",
"532 528 CURVE SMOOTH",
"491 528 OFFCURVE",
"391 515 OFFCURVE",
"392 335 CURVE",
"442 335 LINE",
"442 356 OFFCURVE",
"450 367 OFFCURVE",
"465 367 CURVE SMOOTH",
"479 367 OFFCURVE",
"486 356 OFFCURVE",
"486 335 CURVE SMOOTH",
"486 0 LINE"
);
}
);
width = 696;
},
{
layerId = "FFFA8D72-12AC-4CE0-B2CA-57A29829F4DA";
paths = (
{
closed = 1;
nodes = (
"221 0 LINE",
"221 520 LINE",
"33 520 LINE",
"33 0 LINE"
);
},
{
closed = 1;
nodes = (
"514 0 LINE",
"514 341 LINE SMOOTH",
"514 460 OFFCURVE",
"453 528 OFFCURVE",
"347 528 CURVE SMOOTH",
"252 528 OFFCURVE",
"184 460 OFFCURVE",
"184 300 CURVE",
"221 300 LINE",
"221 340 OFFCURVE",
"242 367 OFFCURVE",
"274 367 CURVE SMOOTH",
"305 367 OFFCURVE",
"326 340 OFFCURVE",
"326 300 CURVE SMOOTH",
"326 0 LINE"
);
},
{
closed = 1;
nodes = (
"808 0 LINE",
"808 341 LINE SMOOTH",
"808 460 OFFCURVE",
"746 528 OFFCURVE",
"641 528 CURVE SMOOTH",
"546 528 OFFCURVE",
"458 460 OFFCURVE",
"458 300 CURVE",
"514 300 LINE",
"514 340 OFFCURVE",
"536 367 OFFCURVE",
"568 367 CURVE SMOOTH",
"599 367 OFFCURVE",
"620 340 OFFCURVE",
"620 300 CURVE SMOOTH",
"620 0 LINE"
);
}
);
width = 841;
},
{
layerId = "DCBE1F7B-116A-43E0-B7B4-8657BA77D8B5";
paths = (
{
closed = 1;
nodes = (
"99 0 LINE",
"99 500 LINE",
"77 500 LINE",
"77 0 LINE"
);
},
{
closed = 1;
nodes = (
"329 0 LINE",
"329 347 LINE SMOOTH",
"329 446 OFFCURVE",
"281 507 OFFCURVE",
"210 507 CURVE SMOOTH",
"136 507 OFFCURVE",
"83 448 OFFCURVE",
"83 346 CURVE",
"99 346 LINE",
"99 433 OFFCURVE",
"141 486 OFFCURVE",
"206 486 CURVE SMOOTH",
"265 486 OFFCURVE",
"307 432 OFFCURVE",
"307 344 CURVE SMOOTH",
"307 0 LINE"
);
},
{
closed = 1;
nodes = (
"559 0 LINE",
"559 347 LINE SMOOTH",
"559 446 OFFCURVE",
"510 507 OFFCURVE",
"440 507 CURVE SMOOTH",
"366 507 OFFCURVE",
"312 451 OFFCURVE",
"312 346 CURVE",
"329 346 LINE",
"329 433 OFFCURVE",
"371 486 OFFCURVE",
"435 486 CURVE SMOOTH",
"495 486 OFFCURVE",
"537 432 OFFCURVE",
"537 344 CURVE SMOOTH",
"537 0 LINE"
);
}
);
width = 636;
},
{
associatedMasterId = "262880E7-CFE1-4BDA-902E-E24798F3240A";
hints = (
{
origin = "{0, 3}";
target = "{0, 0}";
},
{
origin = "{1, 15}";
target = "{1, 0}";
},
{
origin = "{2, 15}";
target = "{2, 0}";
},
{
horizontal = 1;
origin = "{1, 4}";
target = "{1, 11}";
}
);
layerId = "3D363A3E-CBEB-46DD-BDC0-952664622760";
name = "{100,5}";
paths = (
{
closed = 1;
nodes = (
"162 0 LINE",
"162 509 LINE",
"62 509 LINE",
"62 0 LINE"
);
},
{
closed = 1;
nodes = (
"459 0 LINE",
"459 344 LINE SMOOTH",
"459 453 OFFCURVE",
"398 517 OFFCURVE",
"295 517 CURVE SMOOTH",
"202 517 OFFCURVE",
"125 464 OFFCURVE",
"125 325 CURVE",
"162 325 LINE",
"162 390 OFFCURVE",
"202 430 OFFCURVE",
"261 430 CURVE SMOOTH",
"321 430 OFFCURVE",
"360 389 OFFCURVE",
"360 323 CURVE SMOOTH",
"360 0 LINE"
);
},
{
closed = 1;
nodes = (
"758 0 LINE",
"758 344 LINE SMOOTH",
"758 453 OFFCURVE",
"696 517 OFFCURVE",
"594 517 CURVE SMOOTH",
"501 517 OFFCURVE",
"414 464 OFFCURVE",
"414 325 CURVE",
"459 325 LINE",
"459 390 OFFCURVE",
"501 430 OFFCURVE",
"560 430 CURVE SMOOTH",
"620 430 OFFCURVE",
"659 389 OFFCURVE",
"659 323 CURVE SMOOTH",
"659 0 LINE"
);
}
);
width = 820;
},
{
associatedMasterId = "262880E7-CFE1-4BDA-902E-E24798F3240A";
layerId = "FD7B5D9B-CA7D-42C3-93E7-F3C4034798D2";
name = "{100,3}";
paths = (
{
closed = 1;
nodes = (
"150 0 LINE",
"150 509 LINE",
"51 509 LINE",
"51 0 LINE"
);
},
{
closed = 1;
nodes = (
"381 0 LINE",
"381 347 LINE SMOOTH",
"381 452 OFFCURVE",
"337 517 OFFCURVE",
"252 517 CURVE SMOOTH",
"195 517 OFFCURVE",
"112 479 OFFCURVE",
"112 341 CURVE",
"150 341 LINE",
"150 397 OFFCURVE",
"176 430 OFFCURVE",
"218 430 CURVE SMOOTH",
"256 430 OFFCURVE",
"282 397 OFFCURVE",
"282 340 CURVE SMOOTH",
"282 0 LINE"
);
},
{
closed = 1;
nodes = (
"612 0 LINE",
"612 347 LINE SMOOTH",
"612 452 OFFCURVE",
"567 517 OFFCURVE",
"482 517 CURVE SMOOTH",
"424 517 OFFCURVE",
"340 481 OFFCURVE",
"341 341 CURVE",
"381 341 LINE",
"381 397 OFFCURVE",
"407 430 OFFCURVE",
"449 430 CURVE SMOOTH",
"487 430 OFFCURVE",
"513 397 OFFCURVE",
"513 340 CURVE SMOOTH",
"513 0 LINE"
);
}
);
width = 663;
}
);
leftKerningGroup = n;
rightKerningGroup = h;
unicode = 006D;
},
{
glyphname = n;
lastChange = "2017-03-31 05:04:46 +0000";
layers = (
{
anchors = (
{
name = top;
position = "{255, 500}";
}
);
components = (
{
name = n.curve;
transform = "{1, 0, 0, 1, 92, 0}";
}
);
hints = (
{
origin = "{0, 2}";
target = "{0, 2}";
}
);
layerId = "262880E7-CFE1-4BDA-902E-E24798F3240A";
paths = (
{
closed = 1;
nodes = (
"110 0 LINE",
"110 500 LINE",
"88 500 LINE",
"88 0 LINE"
);
}
);
width = 521;
},
{
anchors = (
{
name = top;
position = "{238, 520}";
}
);
components = (
{
name = n.curve;
transform = "{1, 0, 0, 1, 174, 0}";
}
);
layerId = "4E2227F3-52E4-4048-A8EE-327B486EF0A4";
paths = (
{
closed = 1;
nodes = (
"210 0 LINE",
"210 520 LINE",
"22 520 LINE",
"22 0 LINE"
);
}
);
width = 464;
},
{
anchors = (
{
name = top;
position = "{289, 520}";
}
);
components = (
{
name = n.curve;
transform = "{1, 0, 0, 1, 182, 0}";
}
);
layerId = "FFFA8D72-12AC-4CE0-B2CA-57A29829F4DA";
paths = (
{
closed = 1;
nodes = (
"221 0 LINE",
"221 520 LINE",
"33 520 LINE",
"33 0 LINE"
);
}
);
width = 555;
},
{
anchors = (
{
name = top;
position = "{209, 507}";
}
);
components = (
{
name = n.curve;
transform = "{1, 0, 0, 1, 84, 0}";
}
);
layerId = "DCBE1F7B-116A-43E0-B7B4-8657BA77D8B5";
paths = (
{
closed = 1;
nodes = (
"99 0 LINE",
"99 500 LINE",
"77 500 LINE",
"77 0 LINE"
);
}
);
width = 415;
}
);
leftKerningGroup = n;
rightKerningGroup = n;
unicode = 006E;
},
{
color = 3;
glyphname = o;
lastChange = "2017-03-31 05:06:09 +0000";
layers = (
{
anchors = (
{
name = top;
position = "{249, 508}";
}
);
guideLines = (
{
position = "{247, 135}";
}
);
hints = (
{
horizontal = 1;
origin = "{0, 11}";
target = "{1, 11}";
},
{
origin = "{0, 17}";
target = "{1, 5}";
},
{
origin = "{1, 17}";
target = "{0, 5}";
},
{
horizontal = 1;
origin = "{0, 23}";
target = "{1, 23}";
}
);
layerId = "262880E7-CFE1-4BDA-902E-E24798F3240A";
paths = (
{
closed = 1;
nodes = (
"339 -8 OFFCURVE",
"405 46 OFFCURVE",
"422 123 CURVE SMOOTH",
"429 155 OFFCURVE",
"427 191 OFFCURVE",
"427 250 CURVE SMOOTH",
"427 305 OFFCURVE",
"429 344 OFFCURVE",
"422 377 CURVE SMOOTH",
"405 454 OFFCURVE",
"339 508 OFFCURVE",
"249 508 CURVE SMOOTH",
"160 508 OFFCURVE",
"96 454 OFFCURVE",
"79 377 CURVE SMOOTH",
"71 345 OFFCURVE",
"72 310 OFFCURVE",
"72 251 CURVE SMOOTH",
"72 195 OFFCURVE",
"71 156 OFFCURVE",
"79 123 CURVE SMOOTH",
"97 46 OFFCURVE",
"159 -8 OFFCURVE",
"249 -8 CURVE SMOOTH"
);
},
{
closed = 1;
nodes = (
"167 13 OFFCURVE",
"111 63 OFFCURVE",
"98 135 CURVE SMOOTH",
"94 156 OFFCURVE",
"94 193 OFFCURVE",
"94 250 CURVE SMOOTH",
"94 302 OFFCURVE",
"94 343 OFFCURVE",
"98 365 CURVE SMOOTH",
"111 436 OFFCURVE",
"167 487 OFFCURVE",
"249 487 CURVE SMOOTH",
"331 487 OFFCURVE",
"389 436 OFFCURVE",
"402 365 CURVE SMOOTH",
"406 344 OFFCURVE",
"405 307 OFFCURVE",
"405 250 CURVE SMOOTH",
"405 198 OFFCURVE",
"406 157 OFFCURVE",
"402 135 CURVE SMOOTH",
"389 64 OFFCURVE",
"331 13 OFFCURVE",
"249 13 CURVE SMOOTH"
);
}
);
width = 499;
},
{
anchors = (
{
name = top;
position = "{231, 528}";
}
);
guideLines = (
{
angle = 39.959;
position = "{297, 232}";
showMeasurement = 1;
},
{
angle = -39.959;
position = "{164, 232}";
showMeasurement = 1;
},
{
angle = 39.959;
position = "{297, 404}";
showMeasurement = 1;
},
{
angle = -180;
position = "{232, 260}";
showMeasurement = 1;
},
{
angle = -39.959;
position = "{163, 404}";
showMeasurement = 1;
},
{
position = "{269, 170}";
},
{
position = "{268, 350}";
},
{
position = "{270, 260}";
}
);
layerId = "4E2227F3-52E4-4048-A8EE-327B486EF0A4";
paths = (
{
closed = 1;
nodes = (
"367 -8 OFFCURVE",
"443 57 OFFCURVE",
"443 170 CURVE SMOOTH",
"443 193 OFFCURVE",
"443 237 OFFCURVE",
"443 260 CURVE SMOOTH",
"443 283 OFFCURVE",
"443 327 OFFCURVE",
"443 350 CURVE SMOOTH",
"443 456 OFFCURVE",
"367 528 OFFCURVE",
"231 528 CURVE SMOOTH",
"95 528 OFFCURVE",
"18 456 OFFCURVE",
"18 350 CURVE SMOOTH",
"18 327 OFFCURVE",
"18 283 OFFCURVE",
"18 260 CURVE SMOOTH",
"18 237 OFFCURVE",
"18 193 OFFCURVE",
"18 170 CURVE SMOOTH",
"18 57 OFFCURVE",
"95 -8 OFFCURVE",
"231 -8 CURVE SMOOTH"
);
},
{
closed = 1;
nodes = (
"216 153 OFFCURVE",
"206 166 OFFCURVE",
"206 185 CURVE SMOOTH",
"206 210 OFFCURVE",
"206 235 OFFCURVE",
"206 260 CURVE",
"206 285 OFFCURVE",
"206 310 OFFCURVE",
"206 335 CURVE SMOOTH",
"206 354 OFFCURVE",
"216 367 OFFCURVE",
"231 367 CURVE SMOOTH",
"245 367 OFFCURVE",
"255 354 OFFCURVE",
"255 335 CURVE SMOOTH",
"255 310 OFFCURVE",
"255 285 OFFCURVE",
"255 260 CURVE SMOOTH",
"255 235 OFFCURVE",
"255 210 OFFCURVE",
"255 185 CURVE SMOOTH",
"255 166 OFFCURVE",
"245 153 OFFCURVE",
"231 153 CURVE SMOOTH"
);
}
);
width = 461;
},
{
anchors = (
{
name = top;
position = "{281, 528}";
}
);
guideLines = (
{
position = "{283, 149}";
},
{
position = "{281, 327}";
},
{
position = "{283, 263}";
},
{
position = "{274, 376}";
},
{
position = "{281, 193}";
}
);
layerId = "FFFA8D72-12AC-4CE0-B2CA-57A29829F4DA";
paths = (
{
closed = 1;
nodes = (
"391 -8 OFFCURVE",
"479 55 OFFCURVE",
"515 149 CURVE SMOOTH",
"527 180 OFFCURVE",
"535 218 OFFCURVE",
"535 263 CURVE SMOOTH",
"535 304 OFFCURVE",
"528 343 OFFCURVE",
"515 376 CURVE SMOOTH",
"475 477 OFFCURVE",
"384 528 OFFCURVE",
"282 528 CURVE SMOOTH",
"173 528 OFFCURVE",
"84 470 OFFCURVE",
"47 376 CURVE SMOOTH",
"34 343 OFFCURVE",
"27 304 OFFCURVE",
"27 262 CURVE SMOOTH",
"27 223 OFFCURVE",
"33 185 OFFCURVE",
"47 149 CURVE SMOOTH",
"85 52 OFFCURVE",
"173 -8 OFFCURVE",
"281 -8 CURVE SMOOTH"
);
},
{
closed = 1;
nodes = (
"259 153 OFFCURVE",
"241 168 OFFCURVE",
"230 193 CURVE SMOOTH",
"222 212 OFFCURVE",
"217 235 OFFCURVE",
"217 262 CURVE SMOOTH",
"217 288 OFFCURVE",
"221 310 OFFCURVE",
"229 328 CURVE SMOOTH",
"241 352 OFFCURVE",
"259 367 OFFCURVE",
"281 367 CURVE SMOOTH",
"303 367 OFFCURVE",
"321 353 OFFCURVE",
"332 328 CURVE SMOOTH",
"340 311 OFFCURVE",
"345 288 OFFCURVE",
"345 262 CURVE SMOOTH",
"345 235 OFFCURVE",
"340 211 OFFCURVE",
"332 193 CURVE SMOOTH",
"321 168 OFFCURVE",
"303 153 OFFCURVE",
"281 153 CURVE SMOOTH"
);
}
);
width = 562;
},
{
anchors = (
{
name = top;
position = "{197, 508}";
}
);
guideLines = (
{
angle = 66;
position = "{198, 250}";
showMeasurement = 1;
},
{
angle = 112;
position = "{197, 250}";
showMeasurement = 1;
},
{
angle = -180;
position = "{197, 250}";
showMeasurement = 1;
}
);
layerId = "DCBE1F7B-116A-43E0-B7B4-8657BA77D8B5";
paths = (
{
closed = 1;
nodes = (
"277 -8 OFFCURVE",
"332 52 OFFCURVE",
"332 135 CURVE SMOOTH",
"332 173 OFFCURVE",
"332 212 OFFCURVE",
"332 250 CURVE SMOOTH",
"332 288 OFFCURVE",
"332 327 OFFCURVE",
"332 365 CURVE SMOOTH",
"332 448 OFFCURVE",
"277 508 OFFCURVE",
"197 508 CURVE SMOOTH",
"118 508 OFFCURVE",
"63 448 OFFCURVE",
"63 365 CURVE SMOOTH",
"63 327 OFFCURVE",
"63 288 OFFCURVE",
"63 250 CURVE SMOOTH",
"63 212 OFFCURVE",
"63 173 OFFCURVE",
"63 135 CURVE SMOOTH",
"63 52 OFFCURVE",
"118 -8 OFFCURVE",
"197 -8 CURVE SMOOTH"
);
},
{
closed = 1;
nodes = (
"131 13 OFFCURVE",
"85 63 OFFCURVE",
"85 135 CURVE SMOOTH",
"85 173 OFFCURVE",
"85 212 OFFCURVE",
"85 250 CURVE SMOOTH",
"85 288 OFFCURVE",
"85 327 OFFCURVE",
"85 365 CURVE SMOOTH",
"85 437 OFFCURVE",
"131 487 OFFCURVE",
"197 487 CURVE SMOOTH",
"264 487 OFFCURVE",
"310 437 OFFCURVE",
"310 365 CURVE SMOOTH",
"310 327 OFFCURVE",
"310 288 OFFCURVE",
"310 250 CURVE SMOOTH",
"310 212 OFFCURVE",
"310 173 OFFCURVE",
"310 135 CURVE SMOOTH",
"310 63 OFFCURVE",
"264 13 OFFCURVE",
"197 13 CURVE SMOOTH"
);
}
);
width = 395;
},
{
anchors = (
{
name = top;
position = "{252, 532}";
}
);
associatedMasterId = "FFFA8D72-12AC-4CE0-B2CA-57A29829F4DA";
layerId = "E170A48F-3AE5-4D63-9FF6-9C732EC5D514";
name = "Feb 19 17, 03:14";
paths = (
{
closed = 1;
nodes = (
"416 -8 OFFCURVE",
"514 98 OFFCURVE",
"514 263 CURVE SMOOTH",
"514 424 OFFCURVE",
"421 528 OFFCURVE",
"262 528 CURVE SMOOTH",
"106 528 OFFCURVE",
"10 427 OFFCURVE",
"10 263 CURVE SMOOTH",
"10 101 OFFCURVE",
"105 -8 OFFCURVE",
"262 -8 CURVE SMOOTH"
);
}
);
width = 510;
},
{
anchors = (
{
name = top;
position = "{252, 532}";
}
);
associatedMasterId = "FFFA8D72-12AC-4CE0-B2CA-57A29829F4DA";
layerId = "729CD020-0260-4A10-AF2C-A7559C6B0093";
name = "Feb 19 17, 03:05";
paths = (
{
closed = 1;
nodes = (
"403 -7 OFFCURVE",
"500 93 OFFCURVE",
"500 243 CURVE SMOOTH",
"500 262 LINE",
"500 281 LINE SMOOTH",
"500 432 OFFCURVE",
"401 532 OFFCURVE",
"252 532 CURVE SMOOTH",
"107 532 OFFCURVE",
"10 432 OFFCURVE",
"10 281 CURVE SMOOTH",
"10 275 OFFCURVE",
"10 268 OFFCURVE",
"10 262 CURVE SMOOTH",
"10 255 OFFCURVE",
"10 250 OFFCURVE",
"10 243 CURVE",
"10 92 OFFCURVE",
"109 -7 OFFCURVE",
"258 -7 CURVE SMOOTH"
);
},
{
closed = 1;
nodes = (
"221 154 OFFCURVE",
"198 186 OFFCURVE",
"198 235 CURVE SMOOTH",
"198 290 LINE SMOOTH",
"198 339 OFFCURVE",
"221 371 OFFCURVE",
"255 371 CURVE SMOOTH",
"289 371 OFFCURVE",
"312 339 OFFCURVE",
"312 290 CURVE SMOOTH",
"312 235 LINE SMOOTH",
"312 186 OFFCURVE",
"289 154 OFFCURVE",
"255 154 CURVE SMOOTH"
);
}
);
width = 510;
},
{
anchors = (
{
name = top;
position = "{224, 508}";
}
);
associatedMasterId = "262880E7-CFE1-4BDA-902E-E24798F3240A";
guideLines = (
{
angle = 60;
position = "{224, 250}";
showMeasurement = 1;
},
{
angle = -180;
position = "{224, 250}";
showMeasurement = 1;
},
{
angle = -60;
position = "{224, 250}";
showMeasurement = 1;
}
);
layerId = "B0138EC5-030B-498C-B0B8-CB1265BD0ED1";
name = "old light";
paths = (
{
closed = 1;
nodes = (
"327 -8 OFFCURVE",
"397 67 OFFCURVE",
"397 168 CURVE SMOOTH",
"397 332 LINE SMOOTH",
"397 433 OFFCURVE",
"327 508 OFFCURVE",
"223 508 CURVE SMOOTH",
"119 508 OFFCURVE",
"50 433 OFFCURVE",
"50 332 CURVE SMOOTH",
"50 168 LINE SMOOTH",
"50 67 OFFCURVE",
"119 -8 OFFCURVE",
"223 -8 CURVE SMOOTH"
);
},
{
closed = 1;
nodes = (
"132 13 OFFCURVE",
"72 79 OFFCURVE",
"72 167 CURVE SMOOTH",
"72 333 LINE SMOOTH",
"72 421 OFFCURVE",
"132 487 OFFCURVE",
"223 487 CURVE SMOOTH",
"314 487 OFFCURVE",
"375 421 OFFCURVE",
"375 333 CURVE SMOOTH",
"375 167 LINE SMOOTH",
"375 79 OFFCURVE",
"314 13 OFFCURVE",
"223 13 CURVE SMOOTH"
);
}
);
width = 449;
},
{
anchors = (
{
name = top;
position = "{224, 508}";
}
);
associatedMasterId = "262880E7-CFE1-4BDA-902E-E24798F3240A";
guideLines = (
{
angle = 60;
position = "{224, 250}";
showMeasurement = 1;
},
{
angle = -180;
position = "{224, 250}";
showMeasurement = 1;
},
{
angle = -60;
position = "{224, 250}";
showMeasurement = 1;
}
);
layerId = "1ABF4078-FE11-4FD4-BA40-BAADFE713524";
name = "cond light";
paths = (
{
closed = 1;
nodes = (
"254 -8 OFFCURVE",
"309 51 OFFCURVE",
"309 136 CURVE SMOOTH",
"309 364 LINE SMOOTH",
"309 449 OFFCURVE",
"254 508 OFFCURVE",
"174 508 CURVE SMOOTH",
"95 508 OFFCURVE",
"40 449 OFFCURVE",
"40 364 CURVE SMOOTH",
"40 136 LINE SMOOTH",
"40 51 OFFCURVE",
"95 -8 OFFCURVE",
"174 -8 CURVE SMOOTH"
);
},
{
closed = 1;
nodes = (
"108 13 OFFCURVE",
"62 63 OFFCURVE",
"62 135 CURVE SMOOTH",
"62 365 LINE SMOOTH",
"62 437 OFFCURVE",
"108 487 OFFCURVE",
"174 487 CURVE SMOOTH",
"241 487 OFFCURVE",
"287 437 OFFCURVE",
"287 365 CURVE SMOOTH",
"287 135 LINE SMOOTH",
"287 63 OFFCURVE",
"241 13 OFFCURVE",
"174 13 CURVE SMOOTH"
);
}
);
width = 349;
},
{
anchors = (
{
name = top;
position = "{223, 532}";
}
);
associatedMasterId = "4E2227F3-52E4-4048-A8EE-327B486EF0A4";
guideLines = (
{
angle = 39.959;
position = "{289, 232}";
showMeasurement = 1;
},
{
angle = -39.959;
position = "{156, 232}";
showMeasurement = 1;
},
{
angle = 39.959;
position = "{289, 404}";
showMeasurement = 1;
},
{
angle = -180;
position = "{224, 260}";
showMeasurement = 1;
},
{
angle = -39.959;
position = "{155, 404}";
showMeasurement = 1;
}
);
layerId = "A2592930-FB52-446A-8915-5702D869B7BD";
name = oldbc;
paths = (
{
closed = 1;
nodes = (
"359 -7 OFFCURVE",
"435 67 OFFCURVE",
"435 190 CURVE SMOOTH",
"435 330 LINE SMOOTH",
"435 456 OFFCURVE",
"359 532 OFFCURVE",
"223 532 CURVE SMOOTH",
"87 532 OFFCURVE",
"10 456 OFFCURVE",
"10 330 CURVE SMOOTH",
"10 190 LINE SMOOTH",
"10 67 OFFCURVE",
"87 -7 OFFCURVE",
"223 -7 CURVE SMOOTH"
);
},
{
closed = 1;
nodes = (
"206 154 OFFCURVE",
"198 165 OFFCURVE",
"198 186 CURVE SMOOTH",
"198 339 LINE SMOOTH",
"198 360 OFFCURVE",
"206 371 OFFCURVE",
"223 371 CURVE SMOOTH",
"239 371 OFFCURVE",
"247 360 OFFCURVE",
"247 339 CURVE SMOOTH",
"247 186 LINE SMOOTH",
"247 165 OFFCURVE",
"239 154 OFFCURVE",
"223 154 CURVE SMOOTH"
);
}
);
width = 445;
},
{
anchors = (
{
name = top;
position = "{251, 528}";
}
);
associatedMasterId = "FFFA8D72-12AC-4CE0-B2CA-57A29829F4DA";
guideLines = (
{
angle = -180;
position = "{174, 260}";
showMeasurement = 1;
},
{
angle = -59.0044;
position = "{218, 260}";
showMeasurement = 1;
},
{
angle = 59.004;
position = "{290, 260}";
showMeasurement = 1;
},
{
angle = 59.004;
position = "{290, 260}";
showMeasurement = 1;
},
{
angle = 59.004;
position = "{290, 380}";
showMeasurement = 1;
},
{
angle = -59.004;
position = "{220, 380}";
showMeasurement = 1;
}
);
layerId = "3864C296-439A-4200-9E6D-A7A6FACAB388";
name = oldbold;
paths = (
{
closed = 1;
nodes = (
"402 -7 OFFCURVE",
"500 93 OFFCURVE",
"500 244 CURVE SMOOTH",
"500 281 LINE SMOOTH",
"500 432 OFFCURVE",
"402 532 OFFCURVE",
"255 532 CURVE SMOOTH",
"108 532 OFFCURVE",
"10 432 OFFCURVE",
"10 281 CURVE SMOOTH",
"10 244 LINE SMOOTH",
"10 93 OFFCURVE",
"108 -7 OFFCURVE",
"255 -7 CURVE SMOOTH"
);
},
{
closed = 1;
nodes = (
"221 154 OFFCURVE",
"198 186 OFFCURVE",
"198 235 CURVE SMOOTH",
"198 290 LINE SMOOTH",
"198 339 OFFCURVE",
"221 371 OFFCURVE",
"255 371 CURVE SMOOTH",
"289 371 OFFCURVE",
"312 339 OFFCURVE",
"312 290 CURVE SMOOTH",
"312 235 LINE SMOOTH",
"312 186 OFFCURVE",
"289 154 OFFCURVE",
"255 154 CURVE SMOOTH"
);
}
);
width = 510;
},
{
anchors = (
{
name = top;
position = "{251, 528}";
}
);
associatedMasterId = "FFFA8D72-12AC-4CE0-B2CA-57A29829F4DA";
guideLines = (
{
angle = -29.004;
position = "{218, 260}";
showMeasurement = 1;
},
{
angle = 59.004;
position = "{290, 260}";
showMeasurement = 1;
},
{
angle = 59.004;
position = "{290, 260}";
showMeasurement = 1;
},
{
angle = 59.004;
position = "{290, 380}";
showMeasurement = 1;
},
{
angle = -59.004;
position = "{220, 380}";
showMeasurement = 1;
}
);
layerId = "DE3342F3-73B1-435C-BEC9-D64414508369";
name = "Feb 19 17, 05:54";
paths = (
{
closed = 1;
nodes = (
"402 -7 OFFCURVE",
"500 93 OFFCURVE",
"500 244 CURVE SMOOTH",
"500 281 LINE SMOOTH",
"500 432 OFFCURVE",
"402 532 OFFCURVE",
"255 532 CURVE SMOOTH",
"108 532 OFFCURVE",
"10 432 OFFCURVE",
"10 281 CURVE SMOOTH",
"10 244 LINE SMOOTH",
"10 93 OFFCURVE",
"108 -7 OFFCURVE",
"255 -7 CURVE SMOOTH"
);
},
{
closed = 1;
nodes = (
"221 154 OFFCURVE",
"198 186 OFFCURVE",
"198 235 CURVE SMOOTH",
"198 290 LINE SMOOTH",
"198 339 OFFCURVE",
"221 371 OFFCURVE",
"255 371 CURVE SMOOTH",
"289 371 OFFCURVE",
"312 339 OFFCURVE",
"312 290 CURVE SMOOTH",
"312 235 LINE SMOOTH",
"312 186 OFFCURVE",
"289 154 OFFCURVE",
"255 154 CURVE SMOOTH"
);
}
);
width = 510;
},
{
anchors = (
{
name = top;
position = "{251, 528}";
}
);
associatedMasterId = "FFFA8D72-12AC-4CE0-B2CA-57A29829F4DA";
guideLines = (
{
angle = -29.004;
position = "{218, 260}";
showMeasurement = 1;
},
{
angle = 59.004;
position = "{290, 260}";
showMeasurement = 1;
},
{
angle = 59.004;
position = "{290, 260}";
showMeasurement = 1;
},
{
angle = 59.004;
position = "{290, 380}";
showMeasurement = 1;
},
{
angle = -59.004;
position = "{220, 380}";
showMeasurement = 1;
}
);
layerId = "D68179E8-F548-401F-8247-1E270525670B";
name = "Feb 19 17, 05:55";
paths = (
{
closed = 1;
nodes = (
"292 -8 OFFCURVE",
"332 -1 OFFCURVE",
"366 14 CURVE SMOOTH",
"545 94 OFFCURVE",
"550 420 OFFCURVE",
"366 505 CURVE SMOOTH",
"333 520 OFFCURVE",
"294 528 OFFCURVE",
"251 528 CURVE SMOOTH",
"213 528 OFFCURVE",
"176 522 OFFCURVE",
"144 508 CURVE SMOOTH",
"-40 428 OFFCURVE",
"-38 91 OFFCURVE",
"142 12 CURVE SMOOTH",
"174 -2 OFFCURVE",
"211 -8 OFFCURVE",
"250 -8 CURVE SMOOTH"
);
},
{
closed = 1;
nodes = (
"236 153 OFFCURVE",
"220 158 OFFCURVE",
"209 182 CURVE SMOOTH",
"192 220 OFFCURVE",
"191 300 OFFCURVE",
"210 339 CURVE SMOOTH",
"218 355 OFFCURVE",
"231 367 OFFCURVE",
"253 367 CURVE SMOOTH",
"268 367 OFFCURVE",
"281 361 OFFCURVE",
"292 339 CURVE SMOOTH",
"314 296 OFFCURVE",
"317 223 OFFCURVE",
"297 182 CURVE SMOOTH",
"288 163 OFFCURVE",
"274 153 OFFCURVE",
"252 153 CURVE SMOOTH"
);
}
);
width = 510;
},
{
anchors = (
{
name = top;
position = "{223, 532}";
}
);
associatedMasterId = "4E2227F3-52E4-4048-A8EE-327B486EF0A4";
guideLines = (
{
angle = 39.959;
position = "{289, 232}";
showMeasurement = 1;
},
{
angle = -39.959;
position = "{156, 232}";
showMeasurement = 1;
},
{
angle = 39.959;
position = "{289, 404}";
showMeasurement = 1;
},
{
angle = -180;
position = "{224, 260}";
showMeasurement = 1;
},
{
angle = -39.959;
position = "{155, 404}";
showMeasurement = 1;
}
);
layerId = "F7F399D2-DBAD-450E-B011-6AA073A84551";
name = "Feb 24 17, 00:19";
paths = (
{
closed = 1;
nodes = (
"359 -7 OFFCURVE",
"435 57 OFFCURVE",
"435 170 CURVE SMOOTH",
"435 193 OFFCURVE",
"435 237 OFFCURVE",
"435 260 CURVE SMOOTH",
"435 283 OFFCURVE",
"435 327 OFFCURVE",
"435 350 CURVE SMOOTH",
"435 456 OFFCURVE",
"359 532 OFFCURVE",
"223 532 CURVE SMOOTH",
"87 532 OFFCURVE",
"10 456 OFFCURVE",
"10 350 CURVE SMOOTH",
"10 327 OFFCURVE",
"10 283 OFFCURVE",
"10 260 CURVE SMOOTH",
"10 237 OFFCURVE",
"10 193 OFFCURVE",
"10 170 CURVE SMOOTH",
"10 57 OFFCURVE",
"87 -7 OFFCURVE",
"223 -7 CURVE SMOOTH"
);
},
{
closed = 1;
nodes = (
"215 154 OFFCURVE",
"207 158 OFFCURVE",
"204 164 CURVE SMOOTH",
"198 175 OFFCURVE",
"198 195 OFFCURVE",
"198 260 CURVE SMOOTH",
"198 332 OFFCURVE",
"197 348 OFFCURVE",
"204 360 CURVE SMOOTH",
"208 366 OFFCURVE",
"214 371 OFFCURVE",
"223 371 CURVE SMOOTH",
"231 371 OFFCURVE",
"238 366 OFFCURVE",
"241 360 CURVE SMOOTH",
"247 348 OFFCURVE",
"247 332 OFFCURVE",
"247 260 CURVE SMOOTH",
"247 196 OFFCURVE",
"247 176 OFFCURVE",
"241 164 CURVE SMOOTH",
"238 158 OFFCURVE",
"231 154 OFFCURVE",
"223 154 CURVE SMOOTH"
);
}
);
width = 445;
},
{
anchors = (
{
name = top;
position = "{262, 528}";
}
);
associatedMasterId = "FFFA8D72-12AC-4CE0-B2CA-57A29829F4DA";
guideLines = (
{
position = "{263, 144}";
},
{
position = "{262, 381}";
},
{
position = "{264, 263}";
},
{
position = "{262, 340}";
},
{
position = "{262, 186}";
}
);
layerId = "080DEFAF-74FD-4956-92F6-84BCF3C584DE";
name = "Feb 24 17, 15:49";
paths = (
{
closed = 1;
nodes = (
"372 -8 OFFCURVE",
"459 49 OFFCURVE",
"494 144 CURVE SMOOTH",
"507 179 OFFCURVE",
"514 219 OFFCURVE",
"514 263 CURVE SMOOTH",
"514 307 OFFCURVE",
"507 346 OFFCURVE",
"494 381 CURVE SMOOTH",
"459 476 OFFCURVE",
"372 528 OFFCURVE",
"262 528 CURVE SMOOTH",
"152 528 OFFCURVE",
"65 476 OFFCURVE",
"30 381 CURVE SMOOTH",
"17 346 OFFCURVE",
"10 307 OFFCURVE",
"10 263 CURVE SMOOTH",
"10 219 OFFCURVE",
"17 179 OFFCURVE",
"30 144 CURVE SMOOTH",
"65 49 OFFCURVE",
"152 -8 OFFCURVE",
"262 -8 CURVE SMOOTH"
);
},
{
closed = 1;
nodes = (
"237 153 OFFCURVE",
"221 165 OFFCURVE",
"212 185 CURVE SMOOTH",
"203 205 OFFCURVE",
"200 232 OFFCURVE",
"200 262 CURVE SMOOTH",
"200 298 OFFCURVE",
"202 316 OFFCURVE",
"212 336 CURVE SMOOTH",
"222 355 OFFCURVE",
"237 367 OFFCURVE",
"262 367 CURVE SMOOTH",
"287 367 OFFCURVE",
"302 355 OFFCURVE",
"312 336 CURVE SMOOTH",
"322 317 OFFCURVE",
"324 290 OFFCURVE",
"324 262 CURVE SMOOTH",
"324 232 OFFCURVE",
"321 205 OFFCURVE",
"312 185 CURVE SMOOTH",
"303 165 OFFCURVE",
"287 153 OFFCURVE",
"262 153 CURVE SMOOTH"
);
}
);
width = 524;
},
{
anchors = (
{
name = top;
position = "{262, 517}";
}
);
associatedMasterId = "DCBE1F7B-116A-43E0-B7B4-8657BA77D8B5";
guideLines = (
{
angle = 66;
position = "{193, 250}";
showMeasurement = 1;
},
{
angle = 112;
position = "{192, 250}";
showMeasurement = 1;
},
{
angle = -180;
position = "{192, 250}";
showMeasurement = 1;
}
);
hints = (
{
horizontal = 1;
origin = "{0, 11}";
target = "{1, 11}";
},
{
origin = "{0, 17}";
target = "{1, 5}";
},
{
origin = "{1, 17}";
target = "{0, 5}";
},
{
horizontal = 1;
origin = "{0, 23}";
target = "{1, 23}";
}
);
layerId = "6D643361-19D7-4F3D-9238-F56945FA1F6A";
name = "{100,5}";
paths = (
{
closed = 1;
nodes = (
"357 -8 OFFCURVE",
"430 45 OFFCURVE",
"461 135 CURVE SMOOTH",
"473 170 OFFCURVE",
"480 215 OFFCURVE",
"480 257 CURVE SMOOTH",
"480 299 OFFCURVE",
"473 343 OFFCURVE",
"461 377 CURVE SMOOTH",
"430 465 OFFCURVE",
"358 517 OFFCURVE",
"265 517 CURVE SMOOTH",
"166 517 OFFCURVE",
"91 465 OFFCURVE",
"62 376 CURVE SMOOTH",
"51 344 OFFCURVE",
"45 299 OFFCURVE",
"45 256 CURVE SMOOTH",
"45 213 OFFCURVE",
"52 168 OFFCURVE",
"63 135 CURVE SMOOTH",
"94 45 OFFCURVE",
"168 -8 OFFCURVE",
"264 -8 CURVE SMOOTH"
);
},
{
closed = 1;
nodes = (
"212 78 OFFCURVE",
"172 109 OFFCURVE",
"157 162 CURVE SMOOTH",
"150 185 OFFCURVE",
"146 220 OFFCURVE",
"146 255 CURVE SMOOTH",
"146 291 OFFCURVE",
"150 325 OFFCURVE",
"157 347 CURVE SMOOTH",
"173 400 OFFCURVE",
"212 431 OFFCURVE",
"262 431 CURVE SMOOTH",
"313 431 OFFCURVE",
"352 400 OFFCURVE",
"368 347 CURVE SMOOTH",
"375 325 OFFCURVE",
"379 291 OFFCURVE",
"379 255 CURVE SMOOTH",
"379 222 OFFCURVE",
"375 187 OFFCURVE",
"367 162 CURVE SMOOTH",
"350 109 OFFCURVE",
"312 78 OFFCURVE",
"264 78 CURVE SMOOTH"
);
}
);
width = 525;
},
{
anchors = (
{
name = top;
position = "{253, 528}";
}
);
associatedMasterId = "FFFA8D72-12AC-4CE0-B2CA-57A29829F4DA";
guideLines = (
{
position = "{280, 149}";
},
{
position = "{247, 331}";
},
{
position = "{280, 261}";
},
{
position = "{271, 376}";
},
{
position = "{257, 188}";
}
);
layerId = "410D9D81-A3F8-4EFF-8836-02885025781E";
name = "{188,4}";
paths = (
{
closed = 1;
nodes = (
"376 -8 OFFCURVE",
"458 56 OFFCURVE",
"476 160 CURVE SMOOTH",
"482 187 OFFCURVE",
"486 228 OFFCURVE",
"486 262 CURVE SMOOTH",
"486 294 OFFCURVE",
"483 335 OFFCURVE",
"476 363 CURVE SMOOTH",
"456 467 OFFCURVE",
"373 528 OFFCURVE",
"254 528 CURVE SMOOTH",
"131 528 OFFCURVE",
"48 463 OFFCURVE",
"30 363 CURVE SMOOTH",
"23 335 OFFCURVE",
"20 294 OFFCURVE",
"20 261 CURVE SMOOTH",
"20 230 OFFCURVE",
"23 189 OFFCURVE",
"30 160 CURVE SMOOTH",
"49 55 OFFCURVE",
"131 -8 OFFCURVE",
"253 -8 CURVE SMOOTH"
);
},
{
closed = 1;
nodes = (
"233 153 OFFCURVE",
"222 167 OFFCURVE",
"216 188 CURVE SMOOTH",
"210 209 OFFCURVE",
"209 235 OFFCURVE",
"209 261 CURVE SMOOTH",
"209 285 OFFCURVE",
"210 311 OFFCURVE",
"215 331 CURVE SMOOTH",
"221 352 OFFCURVE",
"232 367 OFFCURVE",
"253 367 CURVE SMOOTH",
"274 367 OFFCURVE",
"285 353 OFFCURVE",
"291 331 CURVE SMOOTH",
"296 312 OFFCURVE",
"297 287 OFFCURVE",
"297 261 CURVE SMOOTH",
"297 235 OFFCURVE",
"296 209 OFFCURVE",
"290 188 CURVE SMOOTH",
"284 167 OFFCURVE",
"273 153 OFFCURVE",
"253 153 CURVE SMOOTH"
);
}
);
width = 506;
}
);
leftKerningGroup = o;
rightKerningGroup = o;
unicode = 006F;
},
{
color = 3;
glyphname = oslash;
lastChange = "2017-03-31 05:06:09 +0000";
layers = (
{
components = (
{
name = o;
transform = "{1, 0, 0, 1, 14, 0}";
}
);
layerId = "262880E7-CFE1-4BDA-902E-E24798F3240A";
paths = (
{
closed = 1;
nodes = (
"53 -10 LINE",
"71 -22 LINE",
"412 510 LINE",
"393 522 LINE"
);
}
);
width = 468;
},
{
components = (
{
name = o;
transform = "{1, 0, 0, 1, -12, 0}";
}
);
layerId = "FFFA8D72-12AC-4CE0-B2CA-57A29829F4DA";
paths = (
{
closed = 1;
nodes = (
"46 -1 LINE",
"102 -43 LINE",
"499 520 LINE",
"443 562 LINE"
);
}
);
width = 544;
},
{
components = (
{
name = o;
transform = "{1, 0, 0, 1, -18, 0}";
}
);
layerId = "DCBE1F7B-116A-43E0-B7B4-8657BA77D8B5";
paths = (
{
closed = 1;
nodes = (
"58 -11 LINE",
"78 -20 LINE",
"307 517 LINE",
"287 526 LINE"
);
}
);
width = 359;
},
{
components = (
{
name = o;
transform = "{1, 0, 0, 1, -8, 0}";
}
);
layerId = "4E2227F3-52E4-4048-A8EE-327B486EF0A4";
paths = (
{
closed = 1;
nodes = (
"41 2 LINE",
"90 -33 LINE",
"405 518 LINE",
"356 553 LINE"
);
}
);
width = 445;
},
{
associatedMasterId = "4E2227F3-52E4-4048-A8EE-327B486EF0A4";
components = (
{
name = o;
}
);
layerId = "7612D324-623E-43BE-8E83-BA2F140089CB";
name = "Mar 11 17, 03:09";
paths = (
{
closed = 0;
nodes = (
"29 -30 LINE",
"417 550 LINE"
);
}
);
width = 445;
},
{
associatedMasterId = "4E2227F3-52E4-4048-A8EE-327B486EF0A4";
components = (
{
name = o;
transform = "{1, 0, 0, 1, 21, 0}";
}
);
layerId = "92E5A5E4-16C2-4CBD-A4EF-FCC9D4499A9B";
name = "{100,5}";
paths = (
{
closed = 1;
nodes = (
"46 2 LINE",
"111 -45 LINE",
"486 511 LINE",
"421 558 LINE"
);
}
);
width = 517;
},
{
associatedMasterId = "4E2227F3-52E4-4048-A8EE-327B486EF0A4";
components = (
{
name = o;
transform = "{1, 0, 0, 1, 12, 0}";
}
);
layerId = "09747819-426A-476F-92E4-309237D14A88";
name = "{100,3}";
paths = (
{
closed = 1;
nodes = (
"29 0 LINE",
"97 -40 LINE",
"396 509 LINE",
"328 548 LINE"
);
}
);
width = 482;
}
);
leftKerningGroup = o;
rightKerningGroup = o;
unicode = 00F8;
},
{
glyphname = thorn;
lastChange = "2017-03-29 00:54:24 +0000";
layers = (
{
components = (
{
name = b.bowl;
transform = "{1, 0, 0, 1, 91, 0}";
}
);
layerId = "262880E7-CFE1-4BDA-902E-E24798F3240A";
paths = (
{
closed = 1;
nodes = (
"88 -167 LINE",
"110 -167 LINE",
"110 725 LINE",
"88 725 LINE"
);
}
);
width = 512;
},
{
components = (
{
name = b.bowl;
transform = "{1, 0, 0, 1, 162, 0}";
}
);
layerId = "FFFA8D72-12AC-4CE0-B2CA-57A29829F4DA";
paths = (
{
closed = 1;
nodes = (
"33 -183 LINE",
"221 -183 LINE",
"221 733 LINE",
"33 733 LINE"
);
}
);
width = 549;
},
{
components = (
{
name = b.bowl;
transform = "{1, 0, 0, 1, 84, 0}";
}
);
layerId = "DCBE1F7B-116A-43E0-B7B4-8657BA77D8B5";
paths = (
{
closed = 1;
nodes = (
"77 -167 LINE",
"99 -167 LINE",
"99 725 LINE",
"77 725 LINE"
);
}
);
width = 407;
},
{
components = (
{
name = b.bowl;
transform = "{1, 0, 0, 1, 176, 0}";
}
);
layerId = "4E2227F3-52E4-4048-A8EE-327B486EF0A4";
paths = (
{
closed = 1;
nodes = (
"22 -183 LINE",
"210 -183 LINE",
"210 733 LINE",
"22 733 LINE"
);
}
);
width = 461;
}
);
leftMetricsKey = "=l";
rightMetricsKey = "=b";
unicode = 00FE;
},
{
color = 3;
glyphname = r;
lastChange = "2017-03-31 05:01:14 +0000";
layers = (
{
hints = (
{
horizontal = 1;
origin = "{0, 10}";
target = "{0, 3}";
},
{
origin = "{1, 3}";
target = "{1, 0}";
}
);
layerId = "262880E7-CFE1-4BDA-902E-E24798F3240A";
paths = (
{
closed = 1;
nodes = (
"110 331 LINE",
"110 419 OFFCURVE",
"169 479 OFFCURVE",
"254 479 CURVE SMOOTH",
"281 479 OFFCURVE",
"296 474 OFFCURVE",
"311 466 CURVE",
"322 489 LINE",
"305 498 OFFCURVE",
"287 504 OFFCURVE",
"255 504 CURVE SMOOTH",
"158 504 OFFCURVE",
"95 438 OFFCURVE",
"95 331 CURVE"
);
},
{
closed = 1;
nodes = (
"110 0 LINE",
"110 500 LINE",
"88 500 LINE",
"88 0 LINE"
);
}
);
width = 330;
},
{
layerId = "4E2227F3-52E4-4048-A8EE-327B486EF0A4";
paths = (
{
closed = 1;
nodes = (
"210 273 LINE",
"210 294 OFFCURVE",
"222 318 OFFCURVE",
"241 327 CURVE SMOOTH",
"265 338 OFFCURVE",
"304 333 OFFCURVE",
"314 325 CURVE",
"343 510 LINE",
"334 519 OFFCURVE",
"318 527 OFFCURVE",
"293 527 CURVE SMOOTH",
"176 527 OFFCURVE",
"182 352 OFFCURVE",
"182 273 CURVE"
);
},
{
closed = 1;
nodes = (
"210 1 LINE",
"210 520 LINE",
"22 520 LINE",
"22 1 LINE"
);
}
);
width = 345;
},
{
layerId = "FFFA8D72-12AC-4CE0-B2CA-57A29829F4DA";
paths = (
{
closed = 1;
nodes = (
"221 273 LINE",
"221 307 OFFCURVE",
"255 326 OFFCURVE",
"284 332 CURVE SMOOTH",
"317 339 OFFCURVE",
"351 332 OFFCURVE",
"359 325 CURVE",
"388 507 LINE",
"379 516 OFFCURVE",
"359 527 OFFCURVE",
"325 527 CURVE SMOOTH",
"207 527 OFFCURVE",
"173 394 OFFCURVE",
"173 273 CURVE"
);
},
{
closed = 1;
nodes = (
"221 1 LINE",
"221 520 LINE",
"33 520 LINE",
"33 1 LINE"
);
}
);
width = 391;
},
{
layerId = "DCBE1F7B-116A-43E0-B7B4-8657BA77D8B5";
paths = (
{
closed = 1;
nodes = (
"99 331 LINE",
"99 419 OFFCURVE",
"142 479 OFFCURVE",
"203 479 CURVE SMOOTH",
"224 479 OFFCURVE",
"235 474 OFFCURVE",
"246 466 CURVE",
"256 489 LINE",
"243 498 OFFCURVE",
"230 504 OFFCURVE",
"206 504 CURVE SMOOTH",
"133 504 OFFCURVE",
"86 438 OFFCURVE",
"86 331 CURVE"
);
},
{
closed = 1;
nodes = (
"99 0 LINE",
"99 500 LINE",
"77 500 LINE",
"77 0 LINE"
);
}
);
width = 263;
},
{
associatedMasterId = "4E2227F3-52E4-4048-A8EE-327B486EF0A4";
layerId = "0231DC7A-BAB0-489B-A1F9-3A50B9D86C74";
name = "{100,5}";
paths = (
{
closed = 1;
nodes = (
"161 304 LINE",
"161 360 OFFCURVE",
"196 402 OFFCURVE",
"244 408 CURVE SMOOTH",
"267 411 OFFCURVE",
"290 405 OFFCURVE",
"299 400 CURVE",
"332 499 LINE",
"319 508 OFFCURVE",
"303 515 OFFCURVE",
"270 515 CURVE SMOOTH",
"173 515 OFFCURVE",
"121 412 OFFCURVE",
"121 304 CURVE"
);
},
{
closed = 1;
nodes = (
"161 0 LINE",
"161 510 LINE",
"62 510 LINE",
"62 0 LINE"
);
}
);
width = 337;
}
);
leftKerningGroup = n;
rightKerningGroup = r;
unicode = 0072;
},
{
color = 3;
glyphname = s;
lastChange = "2017-03-31 05:06:10 +0000";
layers = (
{
anchors = (
{
name = top;
position = "{232, 504}";
}
);
hints = (
{
horizontal = 1;
origin = "{0, 20}";
target = "{0, 11}";
},
{
origin = "{0, 23}";
target = "{0, 8}";
},
{
origin = "{0, 14}";
target = "{0, 17}";
},
{
horizontal = 1;
origin = "{0, 41}";
target = "{0, 32}";
},
{
origin = "{0, 29}";
target = "{0, 2}";
},
{
origin = "{0, 38}";
target = "{0, 35}";
}
);
layerId = "262880E7-CFE1-4BDA-902E-E24798F3240A";
paths = (
{
closed = 1;
nodes = (
"335 -4 OFFCURVE",
"400 53 OFFCURVE",
"400 130 CURVE SMOOTH",
"400 218 OFFCURVE",
"314 241 OFFCURVE",
"231 267 CURVE SMOOTH",
"154 291 OFFCURVE",
"88 313 OFFCURVE",
"88 379 CURVE SMOOTH",
"88 440 OFFCURVE",
"144 483 OFFCURVE",
"230 483 CURVE SMOOTH",
"319 483 OFFCURVE",
"376 437 OFFCURVE",
"376 379 CURVE SMOOTH",
"376 366 LINE",
"398 366 LINE",
"398 379 LINE SMOOTH",
"398 450 OFFCURVE",
"332 504 OFFCURVE",
"231 504 CURVE SMOOTH",
"133 504 OFFCURVE",
"66 454 OFFCURVE",
"66 378 CURVE SMOOTH",
"66 297 OFFCURVE",
"143 271 OFFCURVE",
"226 245 CURVE SMOOTH",
"302 221 OFFCURVE",
"378 202 OFFCURVE",
"378 129 CURVE SMOOTH",
"378 65 OFFCURVE",
"320 17 OFFCURVE",
"233 17 CURVE SMOOTH",
"144 17 OFFCURVE",
"86 67 OFFCURVE",
"86 122 CURVE SMOOTH",
"86 147 LINE",
"64 147 LINE",
"64 122 LINE SMOOTH",
"64 54 OFFCURVE",
"132 -4 OFFCURVE",
"234 -4 CURVE SMOOTH"
);
}
);
width = 464;
},
{
anchors = (
{
name = top;
position = "{219, 528}";
}
);
layerId = "4E2227F3-52E4-4048-A8EE-327B486EF0A4";
paths = (
{
closed = 1;
nodes = (
"350 -8 OFFCURVE",
"433 52 OFFCURVE",
"433 151 CURVE SMOOTH",
"433 253 OFFCURVE",
"344 285 OFFCURVE",
"273 306 CURVE SMOOTH",
"246 314 OFFCURVE",
"203 327 OFFCURVE",
"203 357 CURVE SMOOTH",
"203 368 OFFCURVE",
"209 383 OFFCURVE",
"224 383 CURVE SMOOTH",
"236 383 OFFCURVE",
"246 374 OFFCURVE",
"246 357 CURVE SMOOTH",
"246 336 LINE",
"421 336 LINE",
"421 346 LINE SMOOTH",
"421 455 OFFCURVE",
"342 528 OFFCURVE",
"219 528 CURVE SMOOTH",
"102 528 OFFCURVE",
"23 463 OFFCURVE",
"23 358 CURVE SMOOTH",
"23 258 OFFCURVE",
"95 215 OFFCURVE",
"151 197 CURVE SMOOTH",
"194 183 OFFCURVE",
"244 177 OFFCURVE",
"244 149 CURVE SMOOTH",
"244 138 OFFCURVE",
"237 130 OFFCURVE",
"225 130 CURVE SMOOTH",
"213 130 OFFCURVE",
"196 139 OFFCURVE",
"196 161 CURVE SMOOTH",
"196 174 LINE",
"16 174 LINE",
"16 156 LINE",
"16 58 OFFCURVE",
"99 -8 OFFCURVE",
"227 -8 CURVE SMOOTH"
);
}
);
width = 449;
},
{
anchors = (
{
name = top;
position = "{259, 528}";
}
);
layerId = "FFFA8D72-12AC-4CE0-B2CA-57A29829F4DA";
paths = (
{
closed = 1;
nodes = (
"408 -8 OFFCURVE",
"505 49 OFFCURVE",
"505 155 CURVE SMOOTH",
"505 230 OFFCURVE",
"470 272 OFFCURVE",
"394 299 CURVE SMOOTH",
"309 329 OFFCURVE",
"211 317 OFFCURVE",
"211 355 CURVE SMOOTH",
"211 373 OFFCURVE",
"234 383 OFFCURVE",
"263 383 CURVE SMOOTH",
"297 383 OFFCURVE",
"318 369 OFFCURVE",
"318 347 CURVE SMOOTH",
"318 336 LINE",
"493 336 LINE",
"493 347 LINE SMOOTH",
"493 456 OFFCURVE",
"401 528 OFFCURVE",
"259 528 CURVE SMOOTH",
"124 528 OFFCURVE",
"31 459 OFFCURVE",
"31 356 CURVE SMOOTH",
"31 287 OFFCURVE",
"66 250 OFFCURVE",
"117 223 CURVE SMOOTH",
"199 180 OFFCURVE",
"316 193 OFFCURVE",
"316 159 CURVE SMOOTH",
"316 142 OFFCURVE",
"297 130 OFFCURVE",
"265 130 CURVE SMOOTH",
"231 130 OFFCURVE",
"204 144 OFFCURVE",
"204 166 CURVE SMOOTH",
"204 177 LINE",
"24 177 LINE",
"24 153 LINE",
"24 56 OFFCURVE",
"118 -8 OFFCURVE",
"267 -8 CURVE SMOOTH"
);
}
);
width = 529;
},
{
anchors = (
{
name = top;
position = "{183, 504}";
}
);
layerId = "DCBE1F7B-116A-43E0-B7B4-8657BA77D8B5";
paths = (
{
closed = 1;
nodes = (
"262 -4 OFFCURVE",
"312 47 OFFCURVE",
"312 123 CURVE SMOOTH",
"312 212 OFFCURVE",
"246 238 OFFCURVE",
"184 264 CURVE SMOOTH",
"130 287 OFFCURVE",
"80 310 OFFCURVE",
"80 378 CURVE SMOOTH",
"80 441 OFFCURVE",
"121 483 OFFCURVE",
"183 483 CURVE SMOOTH",
"247 483 OFFCURVE",
"289 437 OFFCURVE",
"289 379 CURVE SMOOTH",
"289 366 LINE",
"310 366 LINE",
"310 379 LINE SMOOTH",
"310 450 OFFCURVE",
"261 504 OFFCURVE",
"184 504 CURVE SMOOTH",
"109 504 OFFCURVE",
"58 454 OFFCURVE",
"58 378 CURVE SMOOTH",
"58 294 OFFCURVE",
"117 268 OFFCURVE",
"178 243 CURVE SMOOTH",
"236 219 OFFCURVE",
"290 196 OFFCURVE",
"290 123 CURVE SMOOTH",
"290 59 OFFCURVE",
"249 17 OFFCURVE",
"186 17 CURVE SMOOTH",
"119 17 OFFCURVE",
"78 61 OFFCURVE",
"78 116 CURVE SMOOTH",
"78 130 LINE",
"56 130 LINE",
"56 116 LINE SMOOTH",
"56 48 OFFCURVE",
"108 -4 OFFCURVE",
"186 -4 CURVE SMOOTH"
);
}
);
width = 368;
},
{
anchors = (
{
name = top;
position = "{231, 515}";
}
);
associatedMasterId = "4E2227F3-52E4-4048-A8EE-327B486EF0A4";
layerId = "85F9CC44-E494-4B9A-8AA4-6569A0BE88A1";
name = "{100,5}";
paths = (
{
closed = 1;
nodes = (
"355 -6 OFFCURVE",
"434 51 OFFCURVE",
"434 143 CURVE SMOOTH",
"434 249 OFFCURVE",
"330 278 OFFCURVE",
"244 301 CURVE SMOOTH",
"181 318 OFFCURVE",
"134 333 OFFCURVE",
"134 375 CURVE SMOOTH",
"134 414 OFFCURVE",
"174 436 OFFCURVE",
"230 436 CURVE SMOOTH",
"296 436 OFFCURVE",
"334 405 OFFCURVE",
"334 369 CURVE SMOOTH",
"334 357 LINE",
"428 357 LINE",
"428 369 LINE SMOOTH",
"428 453 OFFCURVE",
"350 515 OFFCURVE",
"231 515 CURVE SMOOTH",
"117 515 OFFCURVE",
"38 459 OFFCURVE",
"38 367 CURVE SMOOTH",
"38 263 OFFCURVE",
"138 232 OFFCURVE",
"226 208 CURVE SMOOTH",
"286 191 OFFCURVE",
"334 178 OFFCURVE",
"334 136 CURVE SMOOTH",
"334 99 OFFCURVE",
"295 70 OFFCURVE",
"235 70 CURVE SMOOTH",
"173 70 OFFCURVE",
"130 103 OFFCURVE",
"130 138 CURVE SMOOTH",
"130 152 LINE",
"34 152 LINE",
"34 132 LINE SMOOTH",
"34 55 OFFCURVE",
"113 -6 OFFCURVE",
"236 -6 CURVE SMOOTH"
);
}
);
width = 473;
},
{
anchors = (
{
name = top;
position = "{191, 515}";
}
);
associatedMasterId = "4E2227F3-52E4-4048-A8EE-327B486EF0A4";
layerId = "785EF2C0-A975-4A92-811F-C78DC21C62C7";
name = "{100,3}";
paths = (
{
closed = 1;
nodes = (
"295 -6 OFFCURVE",
"359 49 OFFCURVE",
"359 136 CURVE SMOOTH",
"359 233 OFFCURVE",
"278 268 OFFCURVE",
"222 292 CURVE SMOOTH",
"172 314 OFFCURVE",
"128 330 OFFCURVE",
"128 373 CURVE SMOOTH",
"128 405 OFFCURVE",
"151 436 OFFCURVE",
"193 436 CURVE SMOOTH",
"232 436 OFFCURVE",
"259 408 OFFCURVE",
"259 373 CURVE SMOOTH",
"259 355 LINE",
"352 355 LINE",
"352 368 LINE SMOOTH",
"352 458 OFFCURVE",
"291 515 OFFCURVE",
"191 515 CURVE SMOOTH",
"95 515 OFFCURVE",
"32 462 OFFCURVE",
"32 370 CURVE SMOOTH",
"32 269 OFFCURVE",
"110 236 OFFCURVE",
"163 214 CURVE SMOOTH",
"211 194 OFFCURVE",
"259 177 OFFCURVE",
"259 131 CURVE SMOOTH",
"259 97 OFFCURVE",
"234 70 OFFCURVE",
"194 70 CURVE SMOOTH",
"153 70 OFFCURVE",
"123 97 OFFCURVE",
"123 132 CURVE SMOOTH",
"123 149 LINE",
"28 149 LINE",
"28 130 LINE",
"28 47 OFFCURVE",
"91 -6 OFFCURVE",
"192 -6 CURVE SMOOTH"
);
}
);
width = 392;
}
);
leftKerningGroup = s;
rightKerningGroup = s;
unicode = 0073;
},
{
glyphname = t;
lastChange = "2017-03-31 05:06:10 +0000";
layers = (
{
hints = (
{
horizontal = 1;
origin = "{1, 1}";
target = "{1, 0}";
},
{
origin = "{0, 7}";
target = "{0, 6}";
},
{
horizontal = 1;
origin = "{0, 0}";
target = "{0, 1}";
}
);
layerId = "262880E7-CFE1-4BDA-902E-E24798F3240A";
paths = (
{
closed = 1;
nodes = (
"293 0 LINE",
"293 21 LINE",
"264 21 LINE SMOOTH",
"191 21 OFFCURVE",
"153 43 OFFCURVE",
"153 123 CURVE SMOOTH",
"153 626 LINE",
"131 626 LINE",
"131 124 LINE SMOOTH",
"131 23 OFFCURVE",
"187 0 OFFCURVE",
"264 0 CURVE SMOOTH"
);
},
{
closed = 1;
nodes = (
"291 479 LINE",
"291 500 LINE",
"56 500 LINE",
"56 479 LINE"
);
}
);
width = 341;
},
{
layerId = "4E2227F3-52E4-4048-A8EE-327B486EF0A4";
paths = (
{
closed = 1;
nodes = (
"290 7 LINE",
"290 169 LINE",
"273 169 LINE",
"255 168 OFFCURVE",
"242 173 OFFCURVE",
"242 199 CURVE",
"242 650 LINE",
"62 650 LINE",
"62 116 LINE",
"62 17 OFFCURVE",
"129 -11 OFFCURVE",
"227 0 CURVE SMOOTH"
);
},
{
closed = 1;
nodes = (
"305 390 LINE",
"305 520 LINE",
"14 520 LINE",
"14 390 LINE"
);
}
);
width = 317;
},
{
layerId = "FFFA8D72-12AC-4CE0-B2CA-57A29829F4DA";
paths = (
{
closed = 1;
nodes = (
"363 5 LINE",
"363 162 LINE",
"311 164 LINE",
"284 165 OFFCURVE",
"275 185 OFFCURVE",
"275 214 CURVE",
"275 660 LINE",
"95 660 LINE",
"95 136 LINE",
"96 37 OFFCURVE",
"163 -2 OFFCURVE",
"260 0 CURVE"
);
},
{
closed = 1;
nodes = (
"378 370 LINE",
"378 520 LINE",
"21 520 LINE",
"21 370 LINE"
);
}
);
width = 396;
},
{
layerId = "DCBE1F7B-116A-43E0-B7B4-8657BA77D8B5";
paths = (
{
closed = 1;
nodes = (
"229 0 LINE",
"229 21 LINE",
"208 21 LINE SMOOTH",
"155 21 OFFCURVE",
"128 43 OFFCURVE",
"128 123 CURVE SMOOTH",
"128 626 LINE",
"105 626 LINE",
"105 124 LINE SMOOTH",
"105 23 OFFCURVE",
"146 0 OFFCURVE",
"206 0 CURVE SMOOTH"
);
},
{
closed = 1;
nodes = (
"229 479 LINE",
"229 500 LINE",
"49 500 LINE",
"49 479 LINE"
);
}
);
width = 271;
}
);
leftKerningGroup = t;
rightKerningGroup = t;
unicode = 0074;
},
{
glyphname = u;
lastChange = "2017-03-31 05:06:10 +0000";
layers = (
{
anchors = (
{
name = top;
position = "{252, 500}";
}
);
hints = (
{
origin = "{0, 11}";
target = "{0, 10}";
},
{
origin = "{1, 2}";
target = "{1, 1}";
},
{
horizontal = 1;
origin = "{0, 15}";
target = "{0, 6}";
}
);
layerId = "262880E7-CFE1-4BDA-902E-E24798F3240A";
paths = (
{
closed = 1;
nodes = (
"351 -7 OFFCURVE",
"421 57 OFFCURVE",
"421 161 CURVE",
"402 161 LINE",
"402 74 OFFCURVE",
"342 14 OFFCURVE",
"249 14 CURVE SMOOTH",
"162 14 OFFCURVE",
"102 71 OFFCURVE",
"102 161 CURVE SMOOTH",
"102 500 LINE",
"80 500 LINE",
"80 158 LINE SMOOTH",
"80 57 OFFCURVE",
"148 -7 OFFCURVE",
"246 -7 CURVE SMOOTH"
);
},
{
closed = 1;
nodes = (
"424 0 LINE",
"424 500 LINE",
"402 500 LINE",
"402 0 LINE"
);
}
);
width = 520;
},
{
anchors = (
{
name = top;
position = "{229, 520}";
}
);
layerId = "4E2227F3-52E4-4048-A8EE-327B486EF0A4";
paths = (
{
closed = 1;
nodes = (
"225 -8 OFFCURVE",
"282 8 OFFCURVE",
"281 185 CURVE",
"252 185 LINE",
"252 164 OFFCURVE",
"244 153 OFFCURVE",
"229 153 CURVE SMOOTH",
"215 153 OFFCURVE",
"208 164 OFFCURVE",
"208 185 CURVE SMOOTH",
"208 520 LINE",
"20 520 LINE",
"20 144 LINE SMOOTH",
"20 31 OFFCURVE",
"92 -8 OFFCURVE",
"162 -8 CURVE SMOOTH"
);
},
{
closed = 1;
nodes = (
"440 0 LINE",
"440 520 LINE",
"252 520 LINE",
"252 0 LINE"
);
}
);
width = 464;
},
{
anchors = (
{
name = top;
position = "{274, 520}";
}
);
layerId = "FFFA8D72-12AC-4CE0-B2CA-57A29829F4DA";
paths = (
{
closed = 1;
nodes = (
"334 -8 OFFCURVE",
"385 63 OFFCURVE",
"385 220 CURVE",
"331 220 LINE",
"331 180 OFFCURVE",
"310 153 OFFCURVE",
"274 153 CURVE SMOOTH",
"228 153 OFFCURVE",
"218 181 OFFCURVE",
"218 221 CURVE SMOOTH",
"218 520 LINE",
"30 520 LINE",
"30 158 LINE SMOOTH",
"30 31 OFFCURVE",
"134 -8 OFFCURVE",
"206 -8 CURVE SMOOTH"
);
},
{
closed = 1;
nodes = (
"519 0 LINE",
"519 520 LINE",
"331 520 LINE",
"331 0 LINE"
);
}
);
width = 555;
},
{
anchors = (
{
name = top;
position = "{200, 500}";
}
);
layerId = "DCBE1F7B-116A-43E0-B7B4-8657BA77D8B5";
paths = (
{
closed = 1;
nodes = (
"276 -7 OFFCURVE",
"326 49 OFFCURVE",
"326 154 CURVE",
"309 154 LINE",
"309 67 OFFCURVE",
"266 14 OFFCURVE",
"198 14 CURVE SMOOTH",
"131 14 OFFCURVE",
"92 57 OFFCURVE",
"92 143 CURVE SMOOTH",
"92 500 LINE",
"70 500 LINE",
"70 138 LINE SMOOTH",
"70 41 OFFCURVE",
"119 -7 OFFCURVE",
"198 -7 CURVE SMOOTH"
);
},
{
closed = 1;
nodes = (
"331 0 LINE",
"331 500 LINE",
"309 500 LINE",
"309 0 LINE"
);
}
);
width = 415;
},
{
anchors = (
{
name = top;
position = "{261, 509}";
}
);
associatedMasterId = "262880E7-CFE1-4BDA-902E-E24798F3240A";
hints = (
{
origin = "{0, 11}";
target = "{0, 10}";
},
{
origin = "{1, 2}";
target = "{1, 1}";
},
{
horizontal = 1;
origin = "{0, 15}";
target = "{0, 6}";
}
);
layerId = "9C4B8252-3DCE-4743-8175-D3E0ED97011B";
name = "{100,5}";
paths = (
{
closed = 1;
nodes = (
"349 -7 OFFCURVE",
"418 50 OFFCURVE",
"418 189 CURVE",
"366 189 LINE",
"366 123 OFFCURVE",
"324 79 OFFCURVE",
"258 79 CURVE SMOOTH",
"192 79 OFFCURVE",
"156 123 OFFCURVE",
"156 189 CURVE SMOOTH",
"156 509 LINE",
"57 509 LINE",
"57 158 LINE SMOOTH",
"57 47 OFFCURVE",
"142 -7 OFFCURVE",
"244 -7 CURVE SMOOTH"
);
},
{
closed = 1;
nodes = (
"465 0 LINE",
"465 509 LINE",
"366 509 LINE",
"366 0 LINE"
);
}
);
width = 528;
},
{
anchors = (
{
name = top;
position = "{248, 509}";
}
);
associatedMasterId = "262880E7-CFE1-4BDA-902E-E24798F3240A";
hints = (
{
origin = "{0, 11}";
target = "{0, 10}";
},
{
origin = "{1, 2}";
target = "{1, 1}";
},
{
horizontal = 1;
origin = "{0, 15}";
target = "{0, 6}";
}
);
layerId = "0F71E79D-333A-423C-B23C-C79EE27105F1";
name = tmp;
paths = (
{
closed = 1;
nodes = (
"327 -7 OFFCURVE",
"387 60 OFFCURVE",
"387 189 CURVE",
"353 189 LINE",
"353 123 OFFCURVE",
"311 79 OFFCURVE",
"246 79 CURVE SMOOTH",
"179 79 OFFCURVE",
"143 122 OFFCURVE",
"143 189 CURVE SMOOTH",
"143 509 LINE",
"44 509 LINE",
"44 158 LINE SMOOTH",
"44 45 OFFCURVE",
"128 -7 OFFCURVE",
"213 -7 CURVE SMOOTH"
);
},
{
closed = 1;
nodes = (
"452 0 LINE",
"452 509 LINE",
"353 509 LINE",
"353 0 LINE"
);
}
);
width = 510;
},
{
anchors = (
{
name = top;
position = "{248, 509}";
}
);
associatedMasterId = "262880E7-CFE1-4BDA-902E-E24798F3240A";
hints = (
{
origin = "{0, 11}";
target = "{0, 10}";
},
{
origin = "{1, 2}";
target = "{1, 1}";
},
{
horizontal = 1;
origin = "{0, 15}";
target = "{0, 6}";
}
);
layerId = "DC25E39C-8CB0-4912-9D4B-0D14D859F8E8";
name = tmp;
paths = (
{
closed = 1;
nodes = (
"327 -7 OFFCURVE",
"387 60 OFFCURVE",
"387 189 CURVE",
"353 189 LINE",
"353 123 OFFCURVE",
"311 79 OFFCURVE",
"246 79 CURVE SMOOTH",
"179 79 OFFCURVE",
"143 122 OFFCURVE",
"143 189 CURVE SMOOTH",
"143 509 LINE",
"44 509 LINE",
"44 158 LINE SMOOTH",
"44 45 OFFCURVE",
"128 -7 OFFCURVE",
"213 -7 CURVE SMOOTH"
);
},
{
closed = 1;
nodes = (
"452 0 LINE",
"452 509 LINE",
"353 509 LINE",
"353 0 LINE"
);
}
);
width = 510;
},
{
anchors = (
{
name = top;
position = "{248, 509}";
}
);
associatedMasterId = "262880E7-CFE1-4BDA-902E-E24798F3240A";
hints = (
{
origin = "{0, 11}";
target = "{0, 10}";
},
{
origin = "{1, 2}";
target = "{1, 1}";
},
{
horizontal = 1;
origin = "{0, 15}";
target = "{0, 6}";
}
);
layerId = "3EF7A56C-E807-45E3-A48E-5C4055B9F171";
name = del;
paths = (
{
closed = 1;
nodes = (
"327 -7 OFFCURVE",
"387 60 OFFCURVE",
"387 189 CURVE",
"353 189 LINE",
"353 123 OFFCURVE",
"311 79 OFFCURVE",
"246 79 CURVE SMOOTH",
"179 79 OFFCURVE",
"143 122 OFFCURVE",
"143 189 CURVE SMOOTH",
"143 509 LINE",
"44 509 LINE",
"44 158 LINE SMOOTH",
"44 45 OFFCURVE",
"128 -7 OFFCURVE",
"213 -7 CURVE SMOOTH"
);
},
{
closed = 1;
nodes = (
"452 0 LINE",
"452 509 LINE",
"353 509 LINE",
"353 0 LINE"
);
}
);
width = 510;
},
{
anchors = (
{
name = top;
position = "{248, 509}";
}
);
associatedMasterId = "262880E7-CFE1-4BDA-902E-E24798F3240A";
hints = (
{
origin = "{0, 11}";
target = "{0, 10}";
},
{
origin = "{1, 2}";
target = "{1, 1}";
},
{
horizontal = 1;
origin = "{0, 15}";
target = "{0, 6}";
}
);
layerId = "21E4EFE5-D84F-471E-A886-B61893977029";
name = del;
paths = (
{
closed = 1;
nodes = (
"327 -7 OFFCURVE",
"387 60 OFFCURVE",
"387 189 CURVE",
"353 189 LINE",
"353 123 OFFCURVE",
"311 79 OFFCURVE",
"246 79 CURVE SMOOTH",
"179 79 OFFCURVE",
"143 122 OFFCURVE",
"143 189 CURVE SMOOTH",
"143 509 LINE",
"44 509 LINE",
"44 158 LINE SMOOTH",
"44 45 OFFCURVE",
"128 -7 OFFCURVE",
"213 -7 CURVE SMOOTH"
);
},
{
closed = 1;
nodes = (
"452 0 LINE",
"452 509 LINE",
"353 509 LINE",
"353 0 LINE"
);
}
);
width = 510;
},
{
anchors = (
{
name = top;
position = "{248, 509}";
}
);
associatedMasterId = "262880E7-CFE1-4BDA-902E-E24798F3240A";
hints = (
{
origin = "{0, 11}";
target = "{0, 10}";
},
{
origin = "{1, 2}";
target = "{1, 1}";
},
{
horizontal = 1;
origin = "{0, 15}";
target = "{0, 6}";
}
);
layerId = "D02CABC3-F35D-477B-9869-C8857D47E4E9";
name = del;
paths = (
{
closed = 1;
nodes = (
"327 -7 OFFCURVE",
"387 60 OFFCURVE",
"387 189 CURVE",
"353 189 LINE",
"353 123 OFFCURVE",
"311 79 OFFCURVE",
"246 79 CURVE SMOOTH",
"179 79 OFFCURVE",
"143 122 OFFCURVE",
"143 189 CURVE SMOOTH",
"143 509 LINE",
"44 509 LINE",
"44 158 LINE SMOOTH",
"44 45 OFFCURVE",
"128 -7 OFFCURVE",
"213 -7 CURVE SMOOTH"
);
},
{
closed = 1;
nodes = (
"452 0 LINE",
"452 509 LINE",
"353 509 LINE",
"353 0 LINE"
);
}
);
width = 510;
},
{
anchors = (
{
name = top;
position = "{248, 509}";
}
);
associatedMasterId = "262880E7-CFE1-4BDA-902E-E24798F3240A";
hints = (
{
origin = "{0, 11}";
target = "{0, 10}";
},
{
origin = "{1, 2}";
target = "{1, 1}";
},
{
horizontal = 1;
origin = "{0, 15}";
target = "{0, 6}";
}
);
layerId = "3858974B-EB1C-4669-ADA7-F87E0B421CE6";
name = del;
paths = (
{
closed = 1;
nodes = (
"327 -7 OFFCURVE",
"387 60 OFFCURVE",
"387 189 CURVE",
"353 189 LINE",
"353 123 OFFCURVE",
"311 79 OFFCURVE",
"246 79 CURVE SMOOTH",
"179 79 OFFCURVE",
"143 122 OFFCURVE",
"143 189 CURVE SMOOTH",
"143 509 LINE",
"44 509 LINE",
"44 158 LINE SMOOTH",
"44 45 OFFCURVE",
"128 -7 OFFCURVE",
"213 -7 CURVE SMOOTH"
);
},
{
closed = 1;
nodes = (
"452 0 LINE",
"452 509 LINE",
"353 509 LINE",
"353 0 LINE"
);
}
);
width = 510;
},
{
anchors = (
{
name = top;
position = "{248, 509}";
}
);
associatedMasterId = "262880E7-CFE1-4BDA-902E-E24798F3240A";
hints = (
{
origin = "{0, 11}";
target = "{0, 10}";
},
{
origin = "{1, 2}";
target = "{1, 1}";
},
{
horizontal = 1;
origin = "{0, 15}";
target = "{0, 6}";
}
);
layerId = "6AF54002-E551-41A8-9666-1E56C58E7EE2";
name = del;
paths = (
{
closed = 1;
nodes = (
"327 -7 OFFCURVE",
"387 60 OFFCURVE",
"387 189 CURVE",
"353 189 LINE",
"353 123 OFFCURVE",
"311 79 OFFCURVE",
"246 79 CURVE SMOOTH",
"179 79 OFFCURVE",
"143 122 OFFCURVE",
"143 189 CURVE SMOOTH",
"143 509 LINE",
"44 509 LINE",
"44 158 LINE SMOOTH",
"44 45 OFFCURVE",
"128 -7 OFFCURVE",
"213 -7 CURVE SMOOTH"
);
},
{
closed = 1;
nodes = (
"452 0 LINE",
"452 509 LINE",
"353 509 LINE",
"353 0 LINE"
);
}
);
width = 510;
},
{
anchors = (
{
name = top;
position = "{248, 509}";
}
);
associatedMasterId = "262880E7-CFE1-4BDA-902E-E24798F3240A";
hints = (
{
origin = "{0, 11}";
target = "{0, 10}";
},
{
origin = "{1, 2}";
target = "{1, 1}";
},
{
horizontal = 1;
origin = "{0, 15}";
target = "{0, 6}";
}
);
layerId = "B249327B-787C-40FB-AC76-417F704F3F82";
name = del;
paths = (
{
closed = 1;
nodes = (
"327 -7 OFFCURVE",
"387 60 OFFCURVE",
"387 189 CURVE",
"353 189 LINE",
"353 123 OFFCURVE",
"311 79 OFFCURVE",
"246 79 CURVE SMOOTH",
"179 79 OFFCURVE",
"143 122 OFFCURVE",
"143 189 CURVE SMOOTH",
"143 509 LINE",
"44 509 LINE",
"44 158 LINE SMOOTH",
"44 45 OFFCURVE",
"128 -7 OFFCURVE",
"213 -7 CURVE SMOOTH"
);
},
{
closed = 1;
nodes = (
"452 0 LINE",
"452 509 LINE",
"353 509 LINE",
"353 0 LINE"
);
}
);
width = 510;
},
{
anchors = (
{
name = top;
position = "{248, 509}";
}
);
associatedMasterId = "262880E7-CFE1-4BDA-902E-E24798F3240A";
hints = (
{
origin = "{0, 11}";
target = "{0, 10}";
},
{
origin = "{1, 2}";
target = "{1, 1}";
},
{
horizontal = 1;
origin = "{0, 15}";
target = "{0, 6}";
}
);
layerId = "1915D9D0-D974-490F-9E5A-BA28644D503B";
name = del;
paths = (
{
closed = 1;
nodes = (
"327 -7 OFFCURVE",
"387 60 OFFCURVE",
"387 189 CURVE",
"353 189 LINE",
"353 123 OFFCURVE",
"311 79 OFFCURVE",
"246 79 CURVE SMOOTH",
"179 79 OFFCURVE",
"143 122 OFFCURVE",
"143 189 CURVE SMOOTH",
"143 509 LINE",
"44 509 LINE",
"44 158 LINE SMOOTH",
"44 45 OFFCURVE",
"128 -7 OFFCURVE",
"213 -7 CURVE SMOOTH"
);
},
{
closed = 1;
nodes = (
"452 0 LINE",
"452 509 LINE",
"353 509 LINE",
"353 0 LINE"
);
}
);
width = 510;
},
{
associatedMasterId = "262880E7-CFE1-4BDA-902E-E24798F3240A";
hints = (
{
place = "{66, 22}";
},
{
place = "{382, 22}";
},
{
horizontal = 1;
place = "{-7, 21}";
}
);
layerId = "F2564442-2341-4F93-A4CC-C894375C6887";
name = del;
width = 510;
},
{
associatedMasterId = "262880E7-CFE1-4BDA-902E-E24798F3240A";
hints = (
{
place = "{66, 22}";
},
{
place = "{382, 22}";
},
{
horizontal = 1;
place = "{-7, 21}";
}
);
layerId = "FB3E4697-8DBD-466A-8744-EBD61A169E63";
name = del;
width = 510;
}
);
leftKerningGroup = u;
unicode = 0075;
},
{
glyphname = v;
lastChange = "2017-03-31 05:06:10 +0000";
layers = (
{
hints = (
{
origin = "{0, 5}";
target = "{0, 4}";
},
{
origin = "{0, 6}";
target = "{0, 0}";
},
{
origin = "{0, 2}";
target = "{0, 1}";
}
);
layerId = "262880E7-CFE1-4BDA-902E-E24798F3240A";
paths = (
{
closed = 1;
nodes = (
"229 0 LINE",
"404 500 LINE",
"379 500 LINE",
"218 33 LINE",
"57 500 LINE",
"32 500 LINE",
"207 0 LINE"
);
}
);
width = 436;
},
{
layerId = "4E2227F3-52E4-4048-A8EE-327B486EF0A4";
paths = (
{
closed = 1;
nodes = (
"341 0 LINE",
"466 518 LINE",
"262 520 LINE",
"237 256 LINE",
"212 520 LINE",
"8 520 LINE",
"133 0 LINE"
);
}
);
width = 474;
},
{
layerId = "FFFA8D72-12AC-4CE0-B2CA-57A29829F4DA";
paths = (
{
closed = 1;
nodes = (
"377 0 LINE",
"538 518 LINE",
"334 520 LINE",
"275 245 LINE",
"216 520 LINE",
"12 520 LINE",
"174 0 LINE"
);
}
);
width = 550;
},
{
layerId = "DCBE1F7B-116A-43E0-B7B4-8657BA77D8B5";
paths = (
{
closed = 1;
nodes = (
"182 0 LINE",
"311 500 LINE",
"286 500 LINE",
"170 33 LINE",
"53 500 LINE",
"28 500 LINE",
"159 0 LINE"
);
}
);
width = 339;
}
);
leftKerningGroup = v;
rightKerningGroup = v;
unicode = 0076;
},
{
glyphname = w;
lastChange = "2017-03-31 05:06:21 +0000";
layers = (
{
hints = (
{
origin = "{0, 11}";
target = "{0, 10}";
},
{
origin = "{0, 12}";
target = "{0, 0}";
},
{
origin = "{0, 8}";
target = "{0, 7}";
},
{
origin = "{0, 2}";
target = "{0, 3}";
},
{
origin = "{0, 5}";
target = "{0, 4}";
}
);
layerId = "262880E7-CFE1-4BDA-902E-E24798F3240A";
paths = (
{
closed = 1;
nodes = (
"199 0 LINE",
"334 461 LINE",
"470 0 LINE",
"491 0 LINE",
"637 500 LINE",
"615 500 LINE",
"481 27 LINE",
"345 500 LINE",
"323 500 LINE",
"188 27 LINE",
"54 500 LINE",
"32 500 LINE",
"177 0 LINE"
);
}
);
width = 669;
},
{
layerId = "4E2227F3-52E4-4048-A8EE-327B486EF0A4";
paths = (
{
closed = 1;
nodes = (
"296 0 LINE",
"323 211 LINE",
"352 0 LINE",
"533 0 LINE",
"645 518 LINE",
"467 520 LINE",
"440 256 LINE",
"408 520 LINE",
"247 520 LINE",
"217 256 LINE",
"189 520 LINE",
"8 520 LINE",
"122 0 LINE"
);
}
);
width = 653;
},
{
layerId = "FFFA8D72-12AC-4CE0-B2CA-57A29829F4DA";
paths = (
{
closed = 1;
nodes = (
"355 0 LINE",
"405 223 LINE",
"467 0 LINE",
"650 0 LINE",
"806 518 LINE",
"612 520 LINE",
"554 251 LINE",
"489 519 LINE",
"319 519 LINE",
"261 251 LINE",
"206 520 LINE",
"12 520 LINE",
"165 0 LINE"
);
}
);
width = 818;
},
{
layerId = "DCBE1F7B-116A-43E0-B7B4-8657BA77D8B5";
paths = (
{
closed = 1;
nodes = (
"159 0 LINE",
"255 461 LINE",
"353 0 LINE",
"375 0 LINE",
"485 500 LINE",
"463 500 LINE",
"364 27 LINE",
"266 500 LINE",
"244 500 LINE",
"147 27 LINE",
"50 500 LINE",
"28 500 LINE",
"136 0 LINE"
);
}
);
width = 513;
}
);
leftKerningGroup = v;
rightKerningGroup = v;
unicode = 0077;
},
{
glyphname = x;
lastChange = "2017-03-31 04:55:46 +0000";
layers = (
{
hints = (
{
origin = "{0, 9}";
target = "{0, 8}";
},
{
origin = "{0, 6}";
target = "{0, 5}";
},
{
origin = "{0, 11}";
target = "{0, 0}";
},
{
origin = "{0, 2}";
target = "{0, 3}";
}
);
layerId = "262880E7-CFE1-4BDA-902E-E24798F3240A";
paths = (
{
closed = 1;
nodes = (
"49 0 LINE",
"215 233 LINE",
"379 0 LINE",
"405 0 LINE",
"225 250 LINE",
"405 500 LINE",
"379 500 LINE",
"215 267 LINE",
"49 500 LINE",
"24 500 LINE",
"204 250 LINE",
"24 0 LINE"
);
}
);
width = 429;
},
{
layerId = "4E2227F3-52E4-4048-A8EE-327B486EF0A4";
paths = (
{
closed = 1;
nodes = (
"210 0 LINE",
"241 95 LINE",
"272 0 LINE",
"476 0 LINE",
"357 260 LINE",
"476 520 LINE",
"272 520 LINE",
"241 430 LINE",
"210 520 LINE",
"6 520 LINE",
"125 260 LINE",
"6 0 LINE"
);
}
);
width = 482;
},
{
layerId = "FFFA8D72-12AC-4CE0-B2CA-57A29829F4DA";
paths = (
{
closed = 1;
nodes = (
"223 0 LINE",
"281 96 LINE",
"339 0 LINE",
"541 0 LINE",
"385 260 LINE",
"541 520 LINE",
"327 520 LINE",
"269 428 LINE",
"211 520 LINE",
"9 520 LINE",
"165 260 LINE",
"9 0 LINE"
);
}
);
width = 550;
},
{
layerId = "DCBE1F7B-116A-43E0-B7B4-8657BA77D8B5";
paths = (
{
closed = 1;
nodes = (
"46 0 LINE",
"166 233 LINE",
"286 0 LINE",
"310 0 LINE",
"177 250 LINE",
"310 500 LINE",
"286 500 LINE",
"166 267 LINE",
"46 500 LINE",
"21 500 LINE",
"155 250 LINE",
"21 0 LINE"
);
}
);
width = 331;
}
);
leftKerningGroup = x;
unicode = 0078;
},
{
glyphname = y;
lastChange = "2017-03-31 04:55:47 +0000";
layers = (
{
anchors = (
{
name = top;
position = "{212, 500}";
}
);
hints = (
{
origin = "{0, 8}";
target = "{0, 7}";
},
{
origin = "{0, 5}";
target = "{0, 4}";
},
{
horizontal = 1;
origin = "{0, 14}";
target = "{0, 13}";
}
);
layerId = "262880E7-CFE1-4BDA-902E-E24798F3240A";
paths = (
{
closed = 1;
nodes = (
"67 -200 LINE",
"133 -200 OFFCURVE",
"159 -185 OFFCURVE",
"202 -62 CURVE SMOOTH",
"400 500 LINE",
"378 500 LINE",
"214 27 LINE",
"46 500 LINE",
"24 500 LINE",
"203 0 LINE",
"154 -147 OFFCURVE",
"141 -178 OFFCURVE",
"67 -179 CURVE",
"53 -179 LINE",
"53 -200 LINE"
);
}
);
width = 424;
},
{
anchors = (
{
name = top;
position = "{229, 520}";
}
);
layerId = "4E2227F3-52E4-4048-A8EE-327B486EF0A4";
paths = (
{
closed = 1;
nodes = (
"40 -199 LINE",
"247 -199 OFFCURVE",
"284 -140 OFFCURVE",
"323 -2 CURVE",
"453 518 LINE",
"251 520 LINE",
"230 252 LINE",
"207 520 LINE",
"6 520 LINE",
"135 0 LINE",
"143 -40 OFFCURVE",
"105 -45 OFFCURVE",
"37 -45 CURVE",
"28 -45 LINE",
"28 -199 LINE"
);
}
);
width = 459;
},
{
anchors = (
{
name = top;
position = "{266, 533}";
}
);
layerId = "FFFA8D72-12AC-4CE0-B2CA-57A29829F4DA";
paths = (
{
closed = 1;
nodes = (
"51 -199 LINE",
"267 -199 OFFCURVE",
"309 -140 OFFCURVE",
"356 -2 CURVE",
"525 520 LINE",
"324 520 LINE",
"268 252 LINE",
"209 520 LINE",
"9 520 LINE",
"173 0 LINE",
"170 -40 OFFCURVE",
"131 -45 OFFCURVE",
"48 -45 CURVE",
"37 -45 LINE",
"37 -199 LINE"
);
}
);
width = 534;
},
{
anchors = (
{
name = top;
position = "{165, 500}";
}
);
layerId = "DCBE1F7B-116A-43E0-B7B4-8657BA77D8B5";
paths = (
{
closed = 1;
nodes = (
"53 -200 LINE",
"107 -200 OFFCURVE",
"129 -185 OFFCURVE",
"161 -62 CURVE SMOOTH",
"308 500 LINE",
"285 500 LINE",
"165 27 LINE",
"44 500 LINE",
"21 500 LINE",
"154 0 LINE",
"119 -147 OFFCURVE",
"109 -178 OFFCURVE",
"53 -179 CURVE",
"42 -179 LINE",
"42 -200 LINE"
);
}
);
width = 329;
}
);
leftKerningGroup = v;
rightKerningGroup = v;
unicode = 0079;
},
{
glyphname = z;
lastChange = "2017-03-31 04:55:47 +0000";
layers = (
{
anchors = (
{
name = top;
position = "{207, 509}";
}
);
hints = (
{
horizontal = 1;
origin = "{0, 5}";
target = "{0, 6}";
},
{
horizontal = 1;
origin = "{0, 0}";
target = "{0, 1}";
},
{
origin = "{0, 8}";
target = "{0, 2}";
},
{
origin = "{0, 7}";
target = "{0, 3}";
}
);
layerId = "262880E7-CFE1-4BDA-902E-E24798F3240A";
paths = (
{
closed = 1;
nodes = (
"384 0 LINE",
"384 21 LINE",
"56 21 LINE",
"387 479 LINE",
"387 500 LINE",
"35 500 LINE",
"35 479 LINE",
"363 479 LINE",
"32 21 LINE",
"32 0 LINE"
);
}
);
width = 419;
},
{
anchors = (
{
name = top;
position = "{189, 533}";
}
);
layerId = "4E2227F3-52E4-4048-A8EE-327B486EF0A4";
paths = (
{
closed = 1;
nodes = (
"373 0 LINE",
"373 170 LINE",
"222 170 LINE",
"364 350 LINE",
"364 520 LINE",
"15 520 LINE",
"15 350 LINE",
"140 350 LINE",
"8 170 LINE",
"8 0 LINE"
);
}
);
width = 381;
},
{
anchors = (
{
name = top;
position = "{226, 533}";
}
);
layerId = "FFFA8D72-12AC-4CE0-B2CA-57A29829F4DA";
paths = (
{
closed = 1;
nodes = (
"443 0 LINE",
"443 170 LINE",
"226 170 LINE",
"435 350 LINE",
"435 520 LINE",
"19 520 LINE",
"19 350 LINE",
"212 350 LINE",
"12 170 LINE",
"12 0 LINE"
);
}
);
width = 455;
},
{
anchors = (
{
name = top;
position = "{165, 509}";
}
);
layerId = "DCBE1F7B-116A-43E0-B7B4-8657BA77D8B5";
paths = (
{
closed = 1;
nodes = (
"294 0 LINE",
"294 21 LINE",
"53 21 LINE",
"296 479 LINE",
"296 500 LINE",
"30 500 LINE",
"30 479 LINE",
"271 479 LINE",
"28 21 LINE",
"28 0 LINE"
);
}
);
width = 324;
}
);
leftKerningGroup = z;
unicode = 007A;
},
{
glyphname = a.alt;
lastChange = "2017-03-29 01:02:15 +0000";
layers = (
{
anchors = (
{
name = top;
position = "{257, 500}";
}
);
components = (
{
name = b.bowl;
transform = "{-1, 0, 0, 1, 421, 0}";
}
);
layerId = "262880E7-CFE1-4BDA-902E-E24798F3240A";
paths = (
{
closed = 1;
nodes = (
"424 0 LINE",
"424 500 LINE",
"402 500 LINE",
"402 0 LINE"
);
}
);
width = 509;
},
{
anchors = (
{
name = top;
position = "{233, 520}";
}
);
components = (
{
name = b.bowl;
transform = "{-1, 0, 0, 1, 285, 0}";
}
);
layerId = "4E2227F3-52E4-4048-A8EE-327B486EF0A4";
paths = (
{
closed = 1;
nodes = (
"439 0 LINE",
"439 520 LINE",
"251 520 LINE",
"251 0 LINE"
);
}
);
width = 458;
},
{
anchors = (
{
name = top;
position = "{269, 520}";
}
);
components = (
{
name = b.bowl;
transform = "{-1, 0, 0, 1, 387, 0}";
}
);
layerId = "FFFA8D72-12AC-4CE0-B2CA-57A29829F4DA";
paths = (
{
closed = 1;
nodes = (
"516 0 LINE",
"516 520 LINE",
"328 520 LINE",
"328 0 LINE"
);
}
);
width = 546;
},
{
anchors = (
{
name = top;
position = "{200, 520}";
}
);
components = (
{
name = b.bowl;
transform = "{-1, 0, 0, 1, 323, 0}";
}
);
layerId = "DCBE1F7B-116A-43E0-B7B4-8657BA77D8B5";
paths = (
{
closed = 1;
nodes = (
"330 0 LINE",
"330 500 LINE",
"308 500 LINE",
"308 0 LINE"
);
}
);
width = 404;
}
);
leftKerningGroup = d;
leftMetricsKey = "=d";
rightKerningGroup = d;
rightMetricsKey = "=d-3";
},
{
glyphname = n.001;
layers = (
{
anchors = (
{
name = top;
position = "{255, 500}";
}
);
components = (
{
name = n.curve;
transform = "{1, 0, 0, 1, 92, 0}";
}
);
hints = (
{
origin = "{0, 2}";
target = "{0, 2}";
}
);
layerId = "262880E7-CFE1-4BDA-902E-E24798F3240A";
paths = (
{
closed = 1;
nodes = (
"110 0 LINE",
"110 500 LINE",
"88 500 LINE",
"88 0 LINE"
);
}
);
width = 521;
},
{
anchors = (
{
name = top;
position = "{238, 520}";
}
);
components = (
{
name = n.curve;
transform = "{1, 0, 0, 1, 174, 0}";
}
);
layerId = "4E2227F3-52E4-4048-A8EE-327B486EF0A4";
paths = (
{
closed = 1;
nodes = (
"210 0 LINE",
"210 520 LINE",
"22 520 LINE",
"22 0 LINE"
);
}
);
width = 464;
},
{
anchors = (
{
name = top;
position = "{289, 520}";
}
);
components = (
{
name = n.curve;
transform = "{1, 0, 0, 1, 182, 0}";
}
);
layerId = "FFFA8D72-12AC-4CE0-B2CA-57A29829F4DA";
paths = (
{
closed = 1;
nodes = (
"221 0 LINE",
"221 520 LINE",
"33 520 LINE",
"33 0 LINE"
);
}
);
width = 555;
},
{
anchors = (
{
name = top;
position = "{209, 507}";
}
);
components = (
{
name = n.curve;
transform = "{1, 0, 0, 1, 84, 0}";
}
);
layerId = "DCBE1F7B-116A-43E0-B7B4-8657BA77D8B5";
paths = (
{
closed = 1;
nodes = (
"99 0 LINE",
"99 500 LINE",
"77 500 LINE",
"77 0 LINE"
);
}
);
width = 415;
}
);
leftKerningGroup = n;
rightKerningGroup = n;
},
